<svg width="244" height="182" viewBox="0 0 244 182" fill="none" xmlns="http://www.w3.org/2000/svg">
<path d="M140.027 149.62H92.8332C91.5209 149.62 90.457 150.665 90.457 151.954V152.982C90.457 154.271 91.5209 155.316 92.8332 155.316H140.027C141.34 155.316 142.403 154.271 142.403 152.982V151.954C142.403 150.665 141.34 149.62 140.027 149.62Z" fill="white"/>
<path d="M228.574 68.6209L225.879 66.7913L132.109 66.2695C130.002 66.2576 128.17 67.6899 127.71 69.7088L117.57 114.139L116.045 111.363C113.88 107.349 107.215 97.637 103.683 94.0375C100.151 90.4363 87.2023 86.7634 87.2023 86.7634C87.2023 86.7634 97.4361 85.8478 100.043 85.0941C102.65 84.3404 103.147 82.4614 103.147 82.4614C103.147 82.4614 103.636 83.1025 104.716 83.713C105.794 84.3234 107.727 84.5775 110.107 83.0718C112.486 81.5662 112.188 79.5831 109.747 74.6621C107.307 69.7411 104.861 63.9198 104.716 58.5811C104.572 53.2423 105.564 50.9421 101.971 40.4795C98.3768 30.0168 85.7669 20.0026 66.8823 24.6235C47.9977 29.2444 51.8562 51.0939 51.3303 56.5912C50.8044 62.0885 47.1854 64.3274 44.2069 69.0455C41.2284 73.7635 41.527 77.7757 43.6185 80.9097C45.7101 84.0438 54.3348 88.9477 54.3348 88.9477C54.3348 88.9477 45.448 89.2665 36.1029 93.0553C26.7578 96.8424 18.133 133.16 16.3192 140.381C14.5054 147.602 17.2999 152.32 17.2999 152.32C23.4252 160.89 31.3019 156.868 47.9786 153.572C64.6554 150.276 74.7486 149.267 74.7486 149.267L73.3478 145.948C73.3478 145.948 75.2432 146.462 80.3393 147.297C85.4353 148.131 88.2125 144.216 91.8731 144.537C95.532 144.857 101.652 149.2 102.949 149.127C104.245 149.053 102.327 146.11 102.327 146.11C102.327 146.11 106.505 148.209 107.595 148.157C108.685 148.104 106.859 144.189 106.859 144.189C106.859 144.189 111.074 147.94 112.299 147.652C113.524 147.364 108.697 140.238 108.697 140.238C108.697 140.238 115.656 148.085 117.126 146.255C118.596 144.426 113.141 138.263 113.141 138.263L113.547 136.059L115.861 138.836L213.116 138.569L215.76 135.608L229.689 70.7165L228.569 68.6226L228.574 68.6209Z" fill="white"/>
<path d="M37.325 95.028C37.325 95.028 34.0949 95.8209 32.0762 99.7887C30.0576 103.755 13.367 144.789 19.0202 151.444C24.6734 158.099 35.9781 153.074 49.4386 150.827C62.8973 148.579 72.1851 147.786 72.1851 147.786C72.1851 147.786 65.9036 137.738 72.2754 131.92C72.2754 131.92 93.4511 128.614 101.93 130.201C101.93 130.201 108.166 133.16 111.004 136.101L115.66 113.542C115.66 113.542 107.181 98.4689 100.989 95.0314C94.798 91.5939 85.4928 88.9492 85.4928 88.9492C85.4928 88.9492 82.011 94.5028 72.4559 93.4439C62.899 92.3868 59.3998 89.9928 59.3998 89.9928C59.3998 89.9928 41.6973 91.7132 37.3268 95.0314L37.325 95.028Z" fill="#A7E92F"/>
<path d="M140.74 151.442H92.1259C91.4453 151.442 90.8936 151.984 90.8936 152.653V153.678C90.8936 154.346 91.4453 154.888 92.1259 154.888H140.74C141.42 154.888 141.972 154.346 141.972 153.678V152.653C141.972 151.984 141.42 151.442 140.74 151.442Z" fill="#C2C2C2"/>
<path d="M64.0898 86.523C63.984 86.523 63.8763 86.4855 63.793 86.4088C63.6177 86.2485 63.609 85.9791 63.7722 85.8069C64.3727 85.176 64.7251 84.3371 64.8848 83.4061C64.5047 83.1929 64.128 82.9627 63.76 82.7121C60.8718 80.7495 58.7022 77.682 60.1411 75.6119C60.8007 74.6639 61.5279 74.5377 62.0226 74.6008C63.1959 74.7474 64.3606 76.1013 65.1382 78.2225C65.6537 79.6258 65.9036 81.1519 65.8446 82.5194C65.8394 82.6575 65.829 82.7956 65.8169 82.9303C67.2714 83.6601 68.7919 84.0967 70.1614 84.1614C72.3744 84.2655 74.1066 83.464 75.306 81.7794C79.7547 75.5352 70.9806 65.9217 69.7292 64.6071C67.3478 64.856 65.192 64.0614 63.6368 62.3563C61.6494 60.1737 60.8683 56.7669 61.6477 53.6738C61.9827 52.3472 62.6683 51.4912 63.6854 51.1314C65.7353 50.4085 68.4899 52.0062 69.4723 52.6456C70.2933 51.5219 73.0183 47.7604 75.6618 43.7602C76.4117 42.6263 77.0695 41.6032 77.6475 40.679C76.7605 40.2323 76.2659 39.4104 76.2173 38.2953C76.1097 35.8552 78.2012 32.5763 79.9872 31.6009C80.9697 31.0655 81.6501 31.2735 82.0493 31.543C82.2037 31.647 82.4034 31.8516 82.471 32.2352C82.6967 33.5141 81.1068 36.6617 78.9857 40.1607C82.5613 40.4522 90.7313 36.0973 93.8278 34.2353C93.9268 34.1757 94.0448 34.1586 94.1576 34.1842C94.2704 34.2115 94.3676 34.2814 94.4266 34.3786C94.4961 34.4928 101.456 46.0331 101.442 59.7867C101.434 68.1111 98.8197 73.2947 93.6681 75.1925C87.1193 77.6052 81.4695 75.2846 81.2317 75.1857C81.0113 75.0936 80.9089 74.8429 81.0044 74.6264C81.0981 74.4098 81.3532 74.3109 81.5737 74.403C81.6292 74.4269 87.154 76.6845 93.3644 74.3962C98.1411 72.6365 100.568 67.7206 100.575 59.7884C100.587 47.6462 95.0671 37.2551 93.8973 35.1919C91.9845 36.3122 83.6878 41.0149 79.3034 41.0149C79.0187 41.0149 78.7497 40.9945 78.5015 40.9535C75.1272 46.4014 70.7185 52.4137 69.927 53.4862C69.8593 53.5783 69.7569 53.6397 69.6424 53.6567C69.5278 53.6738 69.4115 53.6465 69.3178 53.5783C69.2848 53.5544 66.0234 51.2116 63.9787 51.9346C63.2411 52.1954 62.7551 52.8315 62.4895 53.8784C61.7761 56.7055 62.4808 59.8088 64.2825 61.7868C65.2753 62.8764 67.0457 64.1006 69.835 63.7357C69.9704 63.7187 70.1058 63.7647 70.203 63.8602C70.3141 63.9728 72.9645 66.6447 75.0387 70.2374C77.835 75.0816 78.1734 79.2422 76.0159 82.2687C74.6534 84.1819 72.6157 85.13 70.118 85.014C68.6877 84.9475 67.162 84.5332 65.6815 83.8238C65.461 84.8605 65.0271 85.7353 64.4023 86.3917C64.3172 86.4821 64.2009 86.5265 64.0846 86.5265L64.0898 86.523ZM61.8178 75.438C61.4828 75.438 61.1617 75.658 60.8597 76.0911C59.8877 77.4893 61.3474 80.0333 64.2547 82.0096C64.4925 82.1716 64.7355 82.325 64.982 82.4717C65.0358 81.1485 64.7702 79.7298 64.3224 78.5107C63.6871 76.7782 62.7186 75.5454 61.9132 75.4448C61.8803 75.4414 61.849 75.438 61.816 75.438H61.8178ZM81.1432 32.121C80.9297 32.121 80.6867 32.196 80.4125 32.3444C78.8694 33.185 76.9949 36.1383 77.0886 38.256C77.125 39.0779 77.467 39.6457 78.104 39.9441C81.3237 34.6991 81.7212 32.9565 81.6205 32.3785C81.6084 32.3103 81.5876 32.2591 81.5633 32.2438C81.4418 32.1619 81.3012 32.121 81.1432 32.121Z" fill="black"/>
<path d="M28.073 157.917C23.8969 157.917 20.6928 156.842 18.4971 154.697C16.4559 152.702 15.3242 149.741 15.2235 146.131C15.1472 143.43 15.6627 141.341 15.6852 141.254C15.7095 141.159 18.1378 131.257 21.4895 120.629C26.0058 106.304 29.9684 97.5415 33.2628 94.5831C37.4737 90.8028 43.0141 90.0441 48.3705 89.3108C52.9996 88.6765 57.3736 88.078 60.2028 85.4999C60.3781 85.3396 60.6524 85.3498 60.8155 85.5221C60.9787 85.6943 60.9683 85.9637 60.793 86.124C57.7624 88.8846 53.2582 89.5018 48.4902 90.1549C43.264 90.871 37.8607 91.6094 33.8477 95.2123C26.228 102.053 16.6243 141.063 16.5288 141.457C16.508 141.541 14.5483 149.64 19.1115 154.097C22.4285 157.335 28.3386 157.93 36.6787 155.865C56.5405 150.948 70.9243 148.91 74.0209 148.501C72.8493 146.245 68.8102 137.745 71.4884 132.415C69.0133 132.628 61.3137 133.312 53.3416 134.236C47.6831 134.892 43.4306 135.487 40.2421 136.019C37.3348 138.5 31.9523 139.989 30.4475 139.672C29.932 139.563 29.7966 139.264 29.7601 139.095C29.6681 138.655 30.0031 138.205 30.8797 137.59C32.0322 136.782 35.4394 135.977 39.8377 135.23C40.1414 134.957 40.4018 134.679 40.6118 134.403C41.11 133.141 50.2641 109.619 44.9042 101.883C44.7689 101.688 44.8209 101.422 45.0188 101.291C45.2167 101.158 45.4874 101.209 45.6211 101.404C48.0459 104.904 48.065 111.599 45.6784 121.299C43.9149 128.462 41.4241 134.705 41.3981 134.768C41.3842 134.802 41.3669 134.833 41.346 134.862C41.3113 134.908 41.2766 134.954 41.2402 135C53.2617 133.076 71.1726 131.584 72.2348 131.497C72.3997 131.484 72.5594 131.564 72.6444 131.704C72.7295 131.844 72.726 132.019 72.6358 132.156C68.9838 137.656 75.0137 148.532 75.0744 148.641C75.1439 148.765 75.1473 148.915 75.0814 149.04C75.0154 149.164 74.8904 149.251 74.7481 149.268C74.5954 149.287 59.2169 151.164 36.8905 156.692C33.5891 157.509 30.6454 157.918 28.0713 157.918L28.073 157.917ZM30.7044 138.853C31.2529 138.93 32.8671 138.712 35.0437 137.907C36.2725 137.452 37.3765 136.925 38.2999 136.357C33.8825 137.169 32.053 137.813 31.3865 138.28C30.996 138.555 30.8016 138.741 30.7044 138.853Z" fill="black"/>
<path d="M84.3227 85.4437C84.1006 85.4437 83.9114 85.2783 83.8905 85.0566C83.7083 83.1264 85.0083 75.9683 85.0639 75.6648C85.1055 75.4329 85.3312 75.2794 85.5672 75.3203C85.8033 75.3612 85.9595 75.5829 85.9179 75.8148C85.904 75.8881 84.5814 83.1622 84.7532 84.9782C84.7758 85.2118 84.6005 85.4198 84.3609 85.442C84.347 85.442 84.3332 85.4437 84.321 85.4437H84.3227Z" fill="black"/>
<path d="M50.2695 86.3251C50.1931 86.3251 50.1167 86.3064 50.0473 86.2655C45.1717 83.4043 42.4883 80.3708 41.8443 76.9913C40.9313 72.2033 44.3993 67.8365 47.1851 64.3273C48.4834 62.6921 49.6047 61.2785 50.0681 60.1139C50.9308 57.9433 50.9568 54.765 50.9881 51.0853C51.0332 45.7568 51.0835 39.7172 53.6489 34.4126C57.9361 25.5493 70.4819 21.058 83.4754 23.7334C94.9294 26.0916 106.441 38.6345 105.215 57.234C104.755 64.2148 107.519 69.3643 109.739 73.5026C111.919 77.5659 113.642 80.775 110.438 83.3207C108.173 85.1213 105.595 85.0702 103.287 83.2099C102.862 83.7777 102.322 84.2671 101.676 84.6609C100.225 85.5476 98.2759 85.95 95.8823 85.8613C95.6428 85.8528 95.4553 85.655 95.4658 85.4197C95.4744 85.1844 95.6758 84.9986 95.9153 85.0105C99.8346 85.1571 101.728 83.909 102.639 82.6353C100.36 80.4049 98.9667 76.8088 99.9213 75.5283C100.187 75.1719 100.848 74.6928 102.299 75.4754C104.111 76.4542 104.733 79.404 104.158 81.44C104.056 81.8032 103.919 82.151 103.749 82.4767C105.245 83.7248 107.43 84.6149 109.895 82.6574C112.425 80.6454 111.32 78.2701 108.973 73.8982C106.701 69.6661 103.875 64.3989 104.351 57.1777C105.545 39.0573 94.3966 26.852 83.3001 24.5672C77.2946 23.331 71.0876 23.6549 65.8232 25.4777C60.4859 27.3261 56.4417 30.6289 54.4352 34.7775C51.9514 39.9116 51.9011 45.8506 51.8577 51.0904C51.8264 54.8553 51.7987 58.1053 50.8787 60.4226C50.3702 61.7031 49.2124 63.161 47.8725 64.8491C45.1943 68.2235 41.8617 72.4216 42.7018 76.831C43.2971 79.9565 45.8469 82.8006 50.4969 85.5288C50.7034 85.6499 50.7694 85.9108 50.6461 86.1137C50.5646 86.2467 50.4205 86.3217 50.273 86.3217L50.2695 86.3251ZM100.93 75.9034C100.8 75.9034 100.689 75.9392 100.619 76.0313C100.117 76.7048 100.942 79.67 103.082 81.8628C103.186 81.6343 103.263 81.4144 103.32 81.2132C103.91 79.121 103.047 76.8532 101.879 76.224C101.667 76.1097 101.244 75.9051 100.93 75.9051V75.9034Z" fill="black"/>
<path d="M94.4622 57.9433C94.2886 57.9433 94.1255 57.841 94.0578 57.6722C93.971 57.4522 94.0804 57.205 94.3043 57.1197C94.3234 57.1129 96.3368 56.3098 96.4375 54.7206C96.5069 53.6327 95.9584 53.0513 95.1999 52.2465C94.365 51.3615 93.3271 50.2617 92.7855 48.1235C92.3481 46.3996 92.5581 45.0969 93.4052 44.2511C94.9829 42.6773 98.1558 43.3781 98.2912 43.4088C98.5238 43.4616 98.6696 43.6918 98.6158 43.9203C98.562 44.1488 98.3294 44.292 98.0951 44.2392C98.0673 44.2324 95.2589 43.6151 94.0231 44.8496C93.4017 45.4703 93.2698 46.5019 93.6273 47.9171C94.1151 49.8439 95.0298 50.8124 95.8369 51.6667C96.6388 52.5176 97.3973 53.3207 97.3053 54.7735C97.1682 56.9083 94.726 57.8734 94.6219 57.9143C94.5698 57.9348 94.516 57.9433 94.4639 57.9433H94.4622Z" fill="black"/>
<path d="M84.6744 50.5737C85.3866 50.5737 85.964 49.8683 85.964 48.9981C85.964 48.128 85.3866 47.4226 84.6744 47.4226C83.9622 47.4226 83.3848 48.128 83.3848 48.9981C83.3848 49.8683 83.9622 50.5737 84.6744 50.5737Z" fill="black"/>
<path d="M95.8258 50.4426C96.538 50.4426 97.1154 49.7372 97.1154 48.867C97.1154 47.9969 96.538 47.2915 95.8258 47.2915C95.1135 47.2915 94.5361 47.9969 94.5361 48.867C94.5361 49.7372 95.1135 50.4426 95.8258 50.4426Z" fill="black"/>
<path d="M78.804 45.7346C78.6738 45.7346 78.5454 45.6766 78.4586 45.5674C78.3128 45.3799 78.3493 45.1122 78.5385 44.9707C78.653 44.8854 81.359 42.8665 84.0511 42.5937C86.8612 42.3089 88.2394 44.0056 88.2966 44.0789C88.4442 44.2647 88.4095 44.5324 88.2203 44.6774C88.0311 44.8223 87.7603 44.7882 87.6128 44.6041C87.5624 44.5427 86.4481 43.2076 84.1396 43.4429C81.687 43.6918 79.0904 45.6288 79.0644 45.6493C78.9863 45.709 78.8925 45.738 78.8005 45.738L78.804 45.7346Z" fill="black"/>
<path d="M93.1451 65.9916C93.0132 65.9916 92.8813 65.9848 92.7493 65.9694C91.3781 65.8177 90.151 64.9975 89.3647 64.3376C88.4187 63.543 87.5873 62.5319 87.1395 61.6333C86.7472 60.8455 86.683 60.23 86.9486 59.8037C87.1152 59.536 87.5457 59.1711 89.3335 59.0961C90.3905 59.0517 91.7426 59.1217 93.0409 59.2836C94.9416 59.5224 97.2691 60.0083 97.5625 60.9598C97.809 61.7561 97.2657 63.2498 96.3249 64.3598C95.4258 65.4221 94.308 65.9916 93.1433 65.9916H93.1451ZM90.0173 59.9333C88.7468 59.9333 87.8581 60.0663 87.6828 60.2573C87.6359 60.3323 87.6168 60.6512 87.9189 61.2582C88.634 62.6939 90.7984 64.8969 92.8448 65.122C94.2021 65.2703 95.1898 64.3666 95.6584 63.8142C96.5106 62.8081 96.8578 61.6197 96.7328 61.2087C96.6703 61.074 95.9934 60.6119 93.7508 60.247C92.3692 60.0237 91.064 59.9316 90.0173 59.9316V59.9333Z" fill="black"/>
<path d="M177.499 149.41L174.267 118.418L165.158 118.119L168.592 149.41C160.168 149.935 152.522 151.923 146.572 154.889H199.52C193.572 151.923 185.926 149.935 177.501 149.41H177.499Z" fill="#C2C2C2"/>
<path d="M229.169 73.9237L215.792 135.625C215.387 137.496 213.706 138.834 211.758 138.834H121.463C118.833 138.834 116.868 136.447 117.438 133.915L131.151 72.2135C131.565 70.3515 133.238 69.0215 135.177 69.0215H225.135C227.756 69.0215 229.712 71.4001 229.169 73.9237Z" fill="#C2C2C2"/>
<path d="M211.171 139.261H180.801C180.561 139.261 180.367 139.07 180.367 138.835C180.367 138.599 180.561 138.408 180.801 138.408H211.171C212.967 138.408 214.542 137.155 214.916 135.429L228.743 71.6543C228.984 70.5357 228.701 69.383 227.967 68.4947C227.237 67.6097 226.155 67.1016 224.997 67.1016H132.014C130.201 67.1016 128.665 68.3207 128.277 70.0651L114.103 133.84C113.851 134.959 114.125 136.111 114.854 137.002C115.585 137.895 116.673 138.407 117.84 138.407H165.159C165.398 138.407 165.593 138.598 165.593 138.833C165.593 139.068 165.398 139.259 165.159 139.259H117.84C116.409 139.259 115.075 138.63 114.179 137.535C113.285 136.441 112.948 135.027 113.256 133.656L127.43 69.8826C127.905 67.7427 129.79 66.2473 132.014 66.2473H224.996C226.416 66.2473 227.743 66.8697 228.639 67.9558C229.538 69.0454 229.885 70.4573 229.588 71.8299L215.762 135.605C215.304 137.723 213.372 139.259 211.167 139.259L211.171 139.261Z" fill="black"/>
<path d="M199.521 155.315H146.573C146.333 155.315 146.139 155.124 146.139 154.888C146.139 154.653 146.333 154.462 146.573 154.462H197.613C191.831 151.891 184.915 150.298 177.474 149.834C177.262 149.821 177.092 149.66 177.069 149.452L174.818 127.865C174.794 127.632 174.967 127.422 175.205 127.398C175.444 127.374 175.656 127.545 175.681 127.778L177.895 149.007C186.06 149.558 193.598 151.458 199.717 154.508C199.895 154.597 199.989 154.796 199.942 154.987C199.895 155.178 199.722 155.315 199.521 155.315Z" fill="black"/>
<path d="M168.591 149.836C168.373 149.836 168.185 149.674 168.161 149.456L165.448 124.72C165.422 124.486 165.595 124.274 165.833 124.251C166.073 124.225 166.286 124.394 166.311 124.629L169.023 149.365C169.05 149.599 168.876 149.81 168.638 149.834C168.623 149.834 168.607 149.836 168.591 149.836Z" fill="black"/>
<path d="M140.51 155.315H92.3563C91.3114 155.315 90.4609 154.479 90.4609 153.453V151.481C90.4609 150.455 91.3114 149.619 92.3563 149.619H140.51C141.555 149.619 142.406 150.455 142.406 151.481V153.453C142.406 154.479 141.555 155.315 140.51 155.315ZM92.3563 150.47C91.7888 150.47 91.3288 150.924 91.3288 151.48V153.451C91.3288 154.008 91.7905 154.46 92.3563 154.46H140.51C141.078 154.46 141.538 154.007 141.538 153.451V151.48C141.538 150.922 141.076 150.47 140.51 150.47H92.3563Z" fill="black"/>
<path d="M102.898 149.553C102.78 149.553 102.646 149.536 102.493 149.497C101.566 149.256 100.37 148.581 98.9854 147.8C95.6129 145.899 91.4159 143.532 88.3906 145.684C82.6002 149.804 76.3603 146.786 76.2979 146.755C76.0844 146.649 75.9976 146.392 76.1069 146.182C76.2145 145.972 76.4766 145.889 76.6901 145.994C76.7474 146.023 82.5291 148.803 87.882 144.994C91.3621 142.518 96.019 145.144 99.4176 147.06C100.749 147.812 101.9 148.46 102.715 148.671C102.809 148.695 102.868 148.702 102.899 148.7C102.967 148.377 102.488 147.234 101.587 145.839C101.318 145.693 101.049 145.544 100.784 145.396C97.2045 143.384 95.3369 141.892 95.2328 140.961C95.1894 140.579 95.3907 140.258 95.7812 140.081C97.0205 139.52 98.8552 141.145 100.176 142.608C100.726 143.217 101.493 144.173 102.177 145.185C104.482 146.426 106.642 147.403 107.506 147.655C107.487 147.075 106.89 145.595 105.996 143.873C105.965 143.848 105.933 143.822 105.902 143.797C103.123 141.507 99.848 138.475 98.9923 136.835C98.4855 135.864 98.9489 135.491 99.1728 135.377C99.9122 134.995 100.851 135.39 102.045 136.587C103.399 137.945 105.062 140.332 106.491 142.968C106.553 143.084 106.617 143.201 106.68 143.321C109.124 145.309 111.424 146.919 112.286 147.236C111.818 145.715 107.431 139.701 103.141 134.362C102.993 134.18 103.024 133.914 103.208 133.767C103.392 133.62 103.663 133.646 103.816 133.827C103.844 133.861 106.676 137.21 109.722 140.376C115.6 146.484 116.62 146.025 116.662 146.003C116.855 145.897 117.098 145.676 117 144.995C116.462 141.239 107.155 131.866 101.834 130.614C95.6163 129.151 77.3723 131.784 77.1883 131.811C76.9505 131.845 76.73 131.685 76.6953 131.451C76.6606 131.218 76.8238 131.001 77.0616 130.967C77.8183 130.856 95.6563 128.283 102.037 129.784C107.723 131.122 117.28 140.825 117.861 144.876C118.019 145.979 117.53 146.501 117.091 146.745C116.421 147.116 115.355 146.661 113.638 145.268C112.609 144.433 111.349 143.259 109.882 141.771C113.402 146.675 113.255 147.326 113.18 147.657C113.137 147.846 113.022 147.995 112.854 148.078C112.553 148.225 112.069 148.272 110.097 146.961C109.361 146.472 108.497 145.843 107.572 145.127C108.167 146.46 108.554 147.694 108.261 148.216C108.11 148.484 107.825 148.6 107.497 148.532C106.772 148.377 105 147.599 103.056 146.608C103.637 147.686 103.958 148.666 103.635 149.181C103.54 149.335 103.328 149.553 102.903 149.553H102.898ZM96.0971 140.882C96.1301 141.148 96.9615 142.177 100.398 144.187C99.9053 143.57 99.3481 142.944 98.7372 142.352C97.3521 141.01 96.4894 140.7 96.1457 140.855C96.1214 140.865 96.1058 140.876 96.0971 140.882ZM99.6311 136.108C99.6554 136.258 99.8324 136.78 101.023 138.101C102.056 139.247 103.401 140.521 104.805 141.747C103.594 139.728 102.153 137.735 100.87 136.676C100.336 136.234 99.8897 136.031 99.6311 136.108Z" fill="black"/>
<path d="M73.3532 92.3802C72.0584 92.3802 70.8694 92.2421 69.828 92.0426C65.8237 91.2736 63.1681 89.5053 63.057 89.4303C62.8591 89.2973 62.8088 89.0313 62.9441 88.8386C63.0795 88.6443 63.3503 88.5948 63.5482 88.7278C63.5742 88.7449 66.1917 90.4841 70.0276 91.2122C75.1427 92.1858 79.8917 90.999 84.1407 87.6877C84.3281 87.541 84.6007 87.5717 84.7499 87.7559C84.8992 87.94 84.8679 88.2077 84.6805 88.3544C80.6797 91.4714 76.6684 92.3802 73.3532 92.3802Z" fill="black"/>
<path d="M115.657 111.982C115.499 111.982 115.347 111.897 115.27 111.75C115.255 111.718 113.6 108.545 111.28 104.867C108.225 100.022 105.408 96.5064 103.136 94.6989C97.6319 90.3219 88.7381 88.4565 88.6495 88.4377C88.4152 88.39 88.2642 88.1632 88.3128 87.933C88.3614 87.7028 88.5923 87.5545 88.8266 87.6022C89.1998 87.6789 98.012 89.5256 103.681 94.0356C109.341 98.5355 115.772 110.84 116.043 111.361C116.152 111.571 116.067 111.829 115.853 111.934C115.791 111.967 115.723 111.98 115.657 111.98V111.982Z" fill="black"/>
<path d="M102.199 126.924C102 126.924 101.821 126.789 101.776 126.59L95.4489 98.5594C95.3969 98.3292 95.5444 98.1024 95.7787 98.0513C96.013 98.0001 96.2439 98.1451 96.296 98.3753L102.623 126.406C102.675 126.636 102.527 126.863 102.293 126.914C102.262 126.921 102.23 126.924 102.199 126.924Z" fill="black"/>
</svg>
