<svg width="64" height="64" viewBox="0 0 64 64" fill="none" xmlns="http://www.w3.org/2000/svg">
<path d="M36 22C32.69 22 30 24.24 30 27V30.35C29.37 30.13 28.7 30 28 30C24.69 30 22 32.69 22 36C22 39.31 24.69 42 28 42C29.47 42 30.81 41.47 31.85 40.59C32.93 41.46 34.38 42 36 42C39.31 42 42 39.76 42 37V27C42 24.24 39.31 22 36 22ZM24 36C24 33.79 25.79 32 28 32C28.74 32 29.42 32.21 30.01 32.56C30.15 32.64 30.28 32.73 30.41 32.83C30.43 32.85 30.45 32.86 30.47 32.88C30.67 33.04 30.86 33.22 31.03 33.42C31.09 33.49 31.15 33.55 31.2 33.63C31.27 33.72 31.33 33.81 31.39 33.9C31.48 34.04 31.56 34.18 31.63 34.34C31.66 34.41 31.69 34.47 31.72 34.54C31.79 34.72 31.85 34.91 31.9 35.11C31.91 35.17 31.93 35.24 31.94 35.3C31.98 35.53 32.01 35.77 32.01 36.01C32.01 36.31 31.97 36.6 31.91 36.87C31.9 36.93 31.87 36.99 31.85 37.05C31.79 37.27 31.72 37.49 31.62 37.69C31.6 37.73 31.57 37.77 31.55 37.81C31.44 38.03 31.31 38.24 31.16 38.43C31.15 38.45 31.13 38.46 31.12 38.48C30.95 38.69 30.76 38.88 30.56 39.05C29.87 39.63 28.98 40 28.01 40C25.8 40 24.01 38.21 24.01 36H24ZM36 40C34.82 40 33.84 39.62 33.14 39.07C33.57 38.36 33.85 37.56 33.95 36.69C34.59 36.89 35.28 36.99 36 36.99C37.4 36.99 38.69 36.58 39.71 35.91C39.9 36.26 40 36.63 40 36.99C40 38.44 38.39 39.99 36 39.99V40ZM37.3 34.82C37.22 34.84 37.13 34.86 37.05 34.88C36.94 34.9 36.84 34.92 36.73 34.94C36.5 34.97 36.26 35 36.01 35C35.76 35 35.52 34.98 35.29 34.94C35.18 34.92 35.07 34.9 34.97 34.88C34.88 34.86 34.8 34.84 34.72 34.82C34.39 34.74 34.09 34.61 33.81 34.47C33.51 33.34 32.9 32.35 32.07 31.58C32.12 31.35 32.18 31.12 32.3 30.91C32.39 30.97 32.5 31.02 32.59 31.07C32.76 31.17 32.93 31.28 33.12 31.36C33.22 31.4 33.32 31.43 33.42 31.47C33.62 31.55 33.81 31.63 34.02 31.7C34.18 31.75 34.36 31.77 34.52 31.81C34.68 31.84 34.83 31.89 34.99 31.91C35.32 31.96 35.67 31.98 36.02 31.98C36.37 31.98 36.71 31.95 37.05 31.91C37.23 31.88 37.4 31.83 37.58 31.79C37.73 31.76 37.88 31.74 38.02 31.69C38.23 31.63 38.42 31.54 38.61 31.47C38.71 31.43 38.82 31.4 38.92 31.35C39.11 31.26 39.28 31.16 39.45 31.05C39.54 30.99 39.65 30.95 39.74 30.89C39.92 31.23 40.02 31.6 40.02 31.97C40.02 33.2 38.95 34.37 37.32 34.79L37.3 34.82ZM37.3 29.82C37.22 29.84 37.14 29.86 37.05 29.88C36.94 29.9 36.84 29.92 36.72 29.94C36.49 29.97 36.25 30 36 30C35.75 30 35.51 29.98 35.28 29.94C35.17 29.92 35.06 29.9 34.95 29.88C34.86 29.86 34.78 29.84 34.7 29.82C33.07 29.4 32 28.23 32 26.99C32 25.46 33.65 23.99 36 23.99C38.35 23.99 40 25.46 40 26.99C40 28.22 38.93 29.39 37.29 29.82H37.3Z" fill="#323942"/>
<rect x="1" y="1" width="62" height="62" rx="31" stroke="#A7E92F" stroke-width="2"/>
</svg>
