<svg width="65" height="64" viewBox="0 0 65 64" fill="none" xmlns="http://www.w3.org/2000/svg">
<path d="M30.5 30.5C30.5 31.3284 29.8284 32 29 32C28.1716 32 27.5 31.3284 27.5 30.5C27.5 29.6716 28.1716 29 29 29C29.8284 29 30.5 29.6716 30.5 30.5Z" fill="#323942"/>
<path d="M36 32C36.8284 32 37.5 31.3284 37.5 30.5C37.5 29.6716 36.8284 29 36 29C35.1716 29 34.5 29.6716 34.5 30.5C34.5 31.3284 35.1716 32 36 32Z" fill="#323942"/>
<path d="M32.4998 36C31.6135 36 30.7951 35.7124 30.1317 35.2242C29.7759 34.9623 29.2736 34.9301 28.9466 35.2273L28.6506 35.4963C28.3237 35.7935 28.2965 36.3042 28.6343 36.589C29.6778 37.4686 31.0273 38 32.4998 38C33.9724 38 35.3218 37.4686 36.3653 36.589C36.7031 36.3042 36.676 35.7935 36.349 35.4963L36.053 35.2273C35.726 34.9301 35.2237 34.9623 34.8679 35.2242C34.2046 35.7124 33.3862 36 32.4998 36Z" fill="#323942"/>
<path fill-rule="evenodd" clip-rule="evenodd" d="M22.5 32C22.5 26.4772 26.9772 22 32.5 22C38.0228 22 42.5 26.4772 42.5 32C42.5 37.5228 38.0228 42 32.5 42C26.9772 42 22.5 37.5228 22.5 32ZM32.5 24C28.0817 24 24.5 27.5817 24.5 32C24.5 36.4183 28.0817 40 32.5 40C36.9183 40 40.5 36.4183 40.5 32C40.5 27.5817 36.9183 24 32.5 24Z" fill="#323942"/>
<rect x="1.5" y="1" width="62" height="62" rx="31" stroke="#A7E92F" stroke-width="2"/>
</svg>
