<svg width="64" height="64" viewBox="0 0 64 64" fill="none" xmlns="http://www.w3.org/2000/svg">
<path fill-rule="evenodd" clip-rule="evenodd" d="M33.4932 30.2319C32.7536 30.7258 31.8841 30.9894 30.9946 30.9894C29.8027 30.9867 28.6603 30.5123 27.8175 29.67C26.9746 28.8277 26.4999 27.6859 26.4973 26.4947C26.4973 25.6057 26.7611 24.7367 27.2552 23.9976C27.7494 23.2584 28.4518 22.6823 29.2736 22.3421C30.0954 22.002 30.9996 21.9129 31.872 22.0864C32.7444 22.2598 33.5457 22.6879 34.1747 23.3165C34.8037 23.9451 35.232 24.7459 35.4055 25.6178C35.5791 26.4897 35.49 27.3934 35.1496 28.2147C34.8092 29.036 34.2328 29.738 33.4932 30.2319ZM32.3827 24.4185C31.9718 24.1441 31.4888 23.9976 30.9946 23.9976C30.332 23.9976 29.6965 24.2607 29.2279 24.729C28.7594 25.1973 28.4961 25.8324 28.4961 26.4947C28.4961 26.9886 28.6426 27.4713 28.9172 27.882C29.1917 28.2926 29.582 28.6127 30.0385 28.8017C30.495 28.9907 30.9974 29.0401 31.4821 28.9438C31.9667 28.8474 32.4119 28.6096 32.7613 28.2604C33.1108 27.9112 33.3487 27.4662 33.4451 26.9818C33.5415 26.4975 33.4921 25.9954 33.3029 25.5391C33.1138 25.0828 32.7936 24.6929 32.3827 24.4185Z" fill="#323942"/>
<path d="M26.0478 36.0337C27.3598 34.7225 29.1392 33.9858 30.9946 33.9858C31.2597 33.9858 31.5139 33.8806 31.7013 33.6933C31.8887 33.506 31.994 33.2519 31.994 32.987C31.994 32.7221 31.8887 32.4681 31.7013 32.2807C31.5139 32.0934 31.2597 31.9882 30.9946 31.9882C28.6091 31.9882 26.3213 32.9353 24.6345 34.6211C22.9477 36.307 22 38.5934 22 40.9776C22 41.2425 22.1053 41.4965 22.2927 41.6839C22.4802 41.8712 22.7343 41.9764 22.9994 41.9764C23.2645 41.9764 23.5187 41.8712 23.7061 41.6839C23.8935 41.4965 23.9988 41.2425 23.9988 40.9776C23.9988 39.1233 24.7359 37.3449 26.0478 36.0337Z" fill="#323942"/>
<path fill-rule="evenodd" clip-rule="evenodd" d="M41.6314 35.2785C41.7745 35.3985 41.881 35.5562 41.939 35.7338C42.0063 35.9168 42.0185 36.1156 41.9741 36.3055C41.9297 36.4954 41.8306 36.6682 41.6891 36.8025L39.9002 38.4805L40.3099 40.8177C40.3467 41.004 40.3295 41.197 40.2605 41.3739C40.1915 41.5508 40.0734 41.7043 39.9202 41.8166C39.7763 41.9183 39.6081 41.9802 39.4326 41.996C39.257 42.0117 39.0805 41.9809 38.9208 41.9065L36.772 40.7978L34.6233 41.8865C34.4802 41.9569 34.3231 41.9945 34.1636 41.9964C33.9508 41.9942 33.7442 41.9242 33.5739 41.7966C33.4189 41.6856 33.2989 41.5326 33.228 41.3556C33.1572 41.1786 33.1385 40.985 33.1742 40.7978L33.5839 38.4306L31.855 36.7326C31.7265 36.6045 31.6354 36.4438 31.5914 36.2678C31.5473 36.0919 31.5521 35.9072 31.6051 35.7338C31.663 35.5562 31.7696 35.3985 31.9127 35.2785C32.0558 35.1584 32.2297 35.0808 32.4147 35.0546L34.8032 34.7249L35.8726 32.5375C35.9564 32.3713 36.085 32.2318 36.2439 32.1347C36.4029 32.0376 36.5858 31.9869 36.772 31.9882C36.9594 31.9878 37.143 32.04 37.302 32.1389C37.4611 32.2378 37.5891 32.3794 37.6715 32.5475L38.7309 34.7249L41.1294 35.0546C41.3144 35.0808 41.4883 35.1584 41.6314 35.2785ZM37.9212 37.8116C37.97 37.6567 38.0558 37.5161 38.1712 37.4018L38.8408 36.7526L37.9313 36.6327C37.7684 36.6092 37.6139 36.5458 37.4814 36.4482C37.3489 36.3507 37.2425 36.2219 37.1718 36.0734L36.772 35.2543L36.3623 36.0833C36.2903 36.23 36.1834 36.3568 36.051 36.4526C35.9185 36.5483 35.7646 36.6102 35.6027 36.6327L34.7033 36.7526L35.3629 37.3918C35.4783 37.5061 35.5641 37.6468 35.6129 37.8017C35.6616 37.9566 35.6719 38.121 35.6427 38.2808L35.4928 39.1697L36.3123 38.7502C36.4544 38.6766 36.612 38.6382 36.772 38.6382C36.932 38.6382 37.0897 38.6766 37.2318 38.7502L38.0413 39.1697L37.8914 38.2907C37.8622 38.131 37.8724 37.9665 37.9212 37.8116Z" fill="#323942"/>
<rect x="1" y="1" width="62" height="62" rx="31" stroke="#A7E92F" stroke-width="2"/>
</svg>
