<svg width="64" height="64" viewBox="0 0 64 64" fill="none" xmlns="http://www.w3.org/2000/svg">
<path d="M41.3 29.1C40.7 28.4 39.9 28 39 28H34.4V24.9C34.4 23.3 33.1 22 31.5 22C30.4 22 29.4 22.6 29 23.6L26.7 28H23C22.4 28 22 28.4 22 29V41C22 41.6 22.4 42 23 42H37.7C39.2 42 40.4 40.9 40.7 39.5L42 31.5C42.1 30.6 41.9 29.7 41.3 29.1ZM24 40V30H26.4V40H24ZM38.7 39.2C38.6 39.7 38.2 40 37.7 40H28.4V29.2L30.8 24.4C30.9 24.2 31.2 24 31.5 24C32 24 32.4 24.4 32.4 24.9V29C32.4 29.6 32.8 30 33.4 30H39C39.3 30 39.6 30.1 39.8 30.4C40 30.6 40 30.9 40 31.2L38.7 39.2Z" fill="#323942"/>
<rect x="1" y="1" width="62" height="62" rx="31" stroke="#A7E92F" stroke-width="2"/>
</svg>
