<svg width="56" height="56" viewBox="0 0 56 56" fill="none" xmlns="http://www.w3.org/2000/svg">
<rect width="56" height="56" rx="12" fill="#A7E92F"/>
<path d="M0 28C0 20.2268 0 16.3383 1.08368 13.2109C3.05595 7.52591 7.52591 3.05595 13.2109 1.08368C16.3383 0 20.2268 0 28 0C35.7732 0 39.6617 0 42.7891 1.08368C48.476 3.05595 52.9441 7.52397 54.9163 13.2109C56 16.3383 56 20.2249 56 28C56 35.7751 56 39.6617 54.9163 42.7891C52.9441 48.476 48.476 52.9441 42.7891 54.9163C39.6617 56 35.7751 56 28 56C20.2249 56 16.3383 56 13.2109 54.9163C7.52397 52.9441 3.05595 48.476 1.08368 42.7891C0 39.6617 0 35.7751 0 28Z" fill="#A7E92F"/>
<path fill-rule="evenodd" clip-rule="evenodd" d="M17.4849 13.2764H17.4578C17.0985 13.2764 16.7894 13.2764 16.5402 13.3092C16.2756 13.344 16.0206 13.4251 15.8139 13.6318C15.6072 13.8385 15.5261 14.0935 15.4913 14.3581C15.4585 14.6054 15.4585 14.9164 15.4585 15.2757V17.6942C15.4585 18.0535 15.4585 18.3626 15.4913 18.6118C15.528 18.8783 15.6072 19.1314 15.8139 19.3381C16.0206 19.5448 16.2756 19.6259 16.5402 19.6607C16.7875 19.6935 17.0985 19.6935 17.4578 19.6935H20.0521C20.4114 19.6935 20.7204 19.6935 20.9696 19.6607C21.2343 19.6259 21.4893 19.5448 21.696 19.3381C21.9026 19.1314 21.9838 18.8764 22.0186 18.6118C22.0514 18.3645 22.0514 18.0535 22.0514 17.6942V15.2757C22.0514 14.9164 22.0514 14.6073 22.0186 14.3581C21.9819 14.0916 21.9026 13.8385 21.696 13.6318C21.4893 13.4251 21.2343 13.344 20.9696 13.3092C20.7224 13.2764 20.4114 13.2764 20.0521 13.2764H17.4849V13.2764ZM17.4849 24.3161H17.4578C17.0985 24.3161 16.7894 24.3161 16.5402 24.3489C16.2756 24.3856 16.0206 24.4648 15.8139 24.6715C15.6072 24.8782 15.5261 25.1332 15.4913 25.3978C15.4585 25.6451 15.4585 25.9561 15.4585 26.3154V40.6505C15.4585 41.0098 15.4585 41.3189 15.4913 41.5681C15.528 41.8347 15.6072 42.0877 15.8139 42.2944C16.0206 42.5011 16.2756 42.5822 16.5402 42.617C16.7875 42.6498 17.0985 42.6498 17.4578 42.6498H20.0521C20.4114 42.6498 20.7204 42.6498 20.9696 42.617C21.2343 42.5803 21.4893 42.5011 21.696 42.2944C21.9026 42.0877 21.9838 41.8327 22.0186 41.5681C22.0514 41.3208 22.0514 41.0098 22.0514 40.6505V26.3154C22.0514 25.9561 22.0514 25.647 22.0186 25.3978C21.9819 25.1312 21.9026 24.8782 21.696 24.6715C21.4893 24.4648 21.2343 24.3837 20.9696 24.3489C20.7224 24.3161 20.4114 24.3161 20.0521 24.3161H17.4849V24.3161ZM28.851 13.2764H31.706C40.1727 13.2764 46.5878 19.5312 46.5878 27.9651C46.5878 36.3989 40.1727 42.6537 31.706 42.6537H28.851C28.4917 42.6537 28.1826 42.6537 27.9334 42.6209C27.6668 42.5842 27.4138 42.505 27.2071 42.2983C27.0004 42.0916 26.9193 41.8366 26.8845 41.572C26.8517 41.3247 26.8517 41.0137 26.8517 40.6544V38.2939C26.8517 37.9346 26.8517 37.6255 26.8845 37.3763C26.9193 37.1097 27.0004 36.8567 27.2071 36.65C27.4138 36.4433 27.6688 36.3622 27.9334 36.3274C28.1807 36.2945 28.4917 36.2945 28.851 36.2945H31.706C34.1554 36.2945 36.2223 35.433 37.6769 33.9746C39.1315 32.5181 39.995 30.4396 39.995 27.967C39.995 25.4944 39.1296 23.4159 37.6769 21.9594C36.2223 20.501 34.1554 19.6394 31.708 19.6394H28.8529C28.4936 19.6394 28.1845 19.6394 27.9354 19.6066C27.6688 19.5718 27.4157 19.4907 27.209 19.284C27.0023 19.0773 26.9212 18.8223 26.8864 18.5577C26.8536 18.3104 26.8536 17.9994 26.8536 17.6401V15.2796C26.8536 14.9203 26.8536 14.6112 26.8864 14.362C26.9212 14.0954 27.0023 13.8424 27.209 13.6357C27.4157 13.429 27.6707 13.3479 27.9354 13.3131C28.1826 13.2803 28.4936 13.2803 28.8529 13.2803L28.851 13.2764Z" fill="#1B1B1C"/>
</svg>
