<svg width="510" height="195" viewBox="0 0 510 195" fill="none" xmlns="http://www.w3.org/2000/svg">
<path d="M283.345 -59.6558C288.857 -59.6558 294.211 -59.3418 299.398 -58.707C315.88 -56.6866 328.924 -51.7995 338.165 -44.1752C348.802 -35.4043 354.377 -22.9952 353.872 -9.22787C353.201 9.03075 342.225 29.0572 321.247 50.2986C302.4 69.3763 276.249 88.4745 245.602 105.532C222.294 118.507 184.696 136.691 135.797 151.161C207.631 165.481 295.421 133.353 357.586 103.109C429.738 68.0043 484.344 27.4258 484.89 27.0231L509.367 58.8989C507.043 60.6395 451.615 101.873 376.143 138.67C331.449 160.465 288.996 176.123 249.959 185.214C199.767 196.9 154.838 197.76 116.431 187.76C97.5558 182.846 82.3535 175.658 71.0451 166.321C49.4174 170.082 26.3719 172.805 2.05368 174.02L-0.000457764 134.077C16.848 133.23 33.0462 131.613 48.5182 129.394C46.9551 121.156 47.0381 112.405 48.8087 103.32C56.0503 66.3116 92.1887 23.4465 145.494 -11.3506C170.123 -27.4319 196.495 -40.3324 221.754 -48.6733C243.921 -55.9904 264.567 -59.6694 283.345 -59.6694V-59.6558ZM88.357 122.132C151.22 108.173 198.771 85.6827 225.69 70.6936C288.671 35.6303 312.892 2.17096 313.369 -10.6817C313.432 -12.3062 313.127 -12.7021 312.18 -13.4802C310.741 -14.6611 306.142 -17.5757 294.411 -19.009C261.33 -23.0567 212.825 -7.34402 167.854 22.0199C124.772 50.1416 93.6688 85.0412 88.606 110.917C87.7137 115.477 87.7829 119.149 88.3639 122.139L88.357 122.132Z" fill="white" fill-opacity="0.15"/>
</svg>
