<svg width="180" height="180" viewBox="0 0 180 180" fill="none" xmlns="http://www.w3.org/2000/svg">
<path d="M28.469 118.93C28.469 118.93 28.419 129.19 31.689 134.69C33.029 136.95 34.269 137.39 36.449 137.9C39.589 138.64 44.429 138.44 52.839 138.57C63.629 138.73 58.909 109.67 58.909 109.67L28.459 118.94L28.469 118.93Z" fill="white"/>
<path d="M28.6895 122.05C28.7395 126.3 29.7195 133.27 34.0395 137.05C34.7095 137.63 35.5795 137.9 36.4595 137.9L53.2995 138.75" stroke="black" stroke-linecap="round" stroke-linejoin="round"/>
<path d="M59.7803 122.61C59.7803 131.52 56.8803 138.74 53.2903 138.74C49.7003 138.74 47.0603 132.37 46.8203 122.04" stroke="black" stroke-linecap="round" stroke-linejoin="round"/>
<path d="M17.1205 19.8801L99.3706 13.3501V121.58L16.0605 118.53L17.1205 19.8801Z" fill="white"/>
<path d="M51.8405 113.41L26.1305 112.76C25.3605 112.74 24.7305 112.05 24.7305 111.21V82.4401C24.7305 81.6001 25.3605 80.9301 26.1305 80.9501L51.8405 81.2301C52.6405 81.2301 53.2805 81.9301 53.2805 82.7801V111.92C53.2805 112.76 52.6405 113.43 51.8505 113.41H51.8405Z" fill="#A5E72F"/>
<path d="M48.5302 113.33L24.7602 112.73C24.0102 112.71 23.4102 112.04 23.4102 111.24V82.3801C23.4102 81.5801 24.0202 80.9301 24.7602 80.9401L31.4302 81.0101" stroke="black" stroke-linecap="round" stroke-linejoin="round"/>
<path d="M39.3096 109.71L26.8496 109.36V103.39L39.3096 103.71V109.71Z" fill="white"/>
<path d="M88.5689 114.35L61.9989 113.68C61.1989 113.66 60.5489 112.95 60.5489 112.11V82.8697C60.5389 82.0197 61.1889 81.3397 61.9889 81.3497L88.5589 81.6397C89.3789 81.6397 90.0489 82.3497 90.0489 83.2097L90.0689 112.84C90.0689 113.7 89.3989 114.38 88.5789 114.36L88.5689 114.35Z" fill="#A5E72F"/>
<path d="M103.769 114.73L88.6188 114.35C87.9988 114.33 87.4887 113.79 87.4887 113.14L87.4688 82.7995C87.4688 82.1495 87.9687 81.6195 88.5987 81.6295L103.739 81.7895C104.369 81.7895 104.889 82.3395 104.889 82.9895L104.909 113.56C104.909 114.22 104.399 114.74 103.759 114.72L103.769 114.73Z" stroke="black" stroke-linecap="round" stroke-linejoin="round"/>
<path d="M85.1496 114.26L60.5896 113.64C59.8196 113.62 59.1896 112.94 59.1896 112.12V82.7897C59.1796 81.9697 59.7996 81.3197 60.5796 81.3297" stroke="black" stroke-linecap="round" stroke-linejoin="round"/>
<path d="M84.4503 110.83L77.0803 110.63L77.0703 98.1797L84.4403 98.3497L84.4503 110.83Z" fill="white"/>
<path d="M67.1597 79.2699L41.0997 79.0199C40.3197 79.0199 39.6797 78.3199 39.6797 77.4799V48.5299C39.6797 47.6899 40.3097 47.0099 41.0997 46.9999L67.1597 46.8799C67.9697 46.8799 68.6197 47.5599 68.6197 48.4099V77.7399C68.6297 78.5899 67.9797 79.2799 67.1697 79.2699H67.1597Z" fill="#A5E72F"/>
<path d="M82.0695 79.4196L67.2195 79.2796C66.6095 79.2796 66.1095 78.7496 66.1095 78.0996V48.0696C66.0995 47.4196 66.5995 46.8896 67.2095 46.8896L82.0595 48.4897C82.6795 48.4897 83.1795 49.0096 83.1795 49.6696V78.2597C83.1995 78.9097 82.6895 79.4396 82.0695 79.4296V79.4196Z" stroke="black" stroke-linecap="round" stroke-linejoin="round"/>
<path d="M38.3398 77.52V48.48" stroke="black" stroke-linecap="round" stroke-linejoin="round"/>
<path d="M61.9198 75.8498L55.2598 75.7898V65.0298L61.9198 65.0698V75.8498Z" fill="white"/>
<path d="M120.44 138.81C122.91 135.91 123.78 130.6 123.78 124.82C123.78 115.81 119.8 108.5 114.88 108.5C111.41 108.5 108.4 112.16 106.93 117.49L90.0704 121.46C90.0704 121.46 90.0204 131.72 93.3804 137.22C95.3104 140.38 95.9904 140.42 100.18 140.58C103.15 140.69 108.68 141.85 114.44 141.67C114.62 141.69 115.49 142.08 115.67 142.08C116.13 142.08 116.59 142.01 117.04 141.89C118.51 141.58 119.6 140.04 120.44 138.82V138.81Z" fill="white"/>
<path d="M164.34 86.4402L162.74 73.0802C162.74 73.0802 162.34 68.7402 161.73 67.5102C161.12 66.2802 159.49 65.2802 159.49 65.2802L144.54 57.2402L138.81 113.51C138.81 113.51 137.22 122.63 139.66 126.61C142.05 130.51 144.75 129.74 154.81 129.43C154.94 129.44 155.07 129.45 155.2 129.45C155.54 129.45 155.36 129.27 155.68 129.18C156.74 128.95 157.27 128.04 157.87 127.16C159.34 125.43 160.02 123.08 160.34 119.8C161.28 119.72 163.18 119.71 163.46 119.47C163.91 119.09 164.72 118.12 164.72 118.12L164.34 86.4402Z" fill="white"/>
<path d="M101.459 11.1001V125.15L106.919 123.8C107.289 115.74 110.109 109.48 113.539 109.48C116.499 109.48 118.999 114.14 119.869 120.59L145.429 114.25V32.7501L101.449 11.1001H101.459Z" fill="#A5E72F"/>
<path d="M90.3906 126.22C90.5606 130.61 91.3906 136.24 95.4406 139.69C96.1206 140.27 97.0206 140.54 97.9206 140.54L115.651 141.74" stroke="black" stroke-linecap="round" stroke-linejoin="round"/>
<path d="M116.38 141.74C120.467 141.74 123.78 133.73 123.78 123.85C123.78 113.97 120.467 105.96 116.38 105.96C112.294 105.96 108.98 113.97 108.98 123.85C108.98 133.73 112.294 141.74 116.38 141.74Z" stroke="black" stroke-linecap="round" stroke-linejoin="round"/>
<path d="M155.039 129.27C157.889 129.27 160.199 123.472 160.199 116.32C160.199 109.168 157.889 103.37 155.039 103.37C152.189 103.37 149.879 109.168 149.879 116.32C149.879 123.472 152.189 129.27 155.039 129.27Z" stroke="black" stroke-linecap="round" stroke-linejoin="round"/>
<path d="M149.35 64.8199L157.03 68.1399C158.25 68.6699 159.1 69.8099 159.27 71.1299L160.99 85.2699C161.08 86.0199 160.5 86.6799 159.75 86.6799H148.85C148.16 86.6799 147.6 86.1199 147.6 85.4299V65.9699C147.6 65.0699 148.53 64.4599 149.35 64.8199Z" fill="#2E3C45"/>
<path d="M138.471 119.2C138.471 119.2 138.441 127.65 141.371 129.27L154.801 129.42" stroke="black" stroke-linecap="round" stroke-linejoin="round"/>
<path d="M161.13 120.13L162.81 119.79C163.5 119.55 163.76 119.01 163.75 118.28C163.65 112.39 163.41 87.0803 163.36 86.6803L161.33 70.0203C161.16 68.2703 160.11 66.7203 158.54 65.9203L147.59 60.3003" stroke="black" stroke-linecap="round" stroke-linejoin="round"/>
<path d="M145.439 114.24L148.549 113.56" stroke="black" stroke-linecap="round" stroke-linejoin="round"/>
<path d="M16.3998 17.3001C14.9598 17.4101 13.8398 18.6101 13.8398 20.0601V119.34C13.8398 120.83 15.0198 122.05 16.4998 122.1L101.46 125.16V11.1001L16.3998 17.2901V17.3001ZM96.6898 117.72C96.6898 118.87 95.7398 119.78 94.5898 119.74L20.5598 117.03C19.4698 116.99 18.6098 116.1 18.6098 115.01V24.1001C18.6098 23.0401 19.4298 22.1601 20.4798 22.0801L94.5098 16.6001C95.6798 16.5101 96.6798 17.4401 96.6798 18.6201V117.71L96.6898 117.72Z" fill="#A5E72F"/>
<path d="M167.51 91.7001H165C163.47 91.7001 162.24 90.5001 162.24 89.0201V78.5301C162.24 77.0501 163.48 75.8501 165 75.8501H167.51C169.04 75.8501 170.27 77.0501 170.27 78.5301V89.0201C170.27 90.5101 169.03 91.7001 167.51 91.7001Z" fill="#A5E72F"/>
</svg>
