<svg width="180" height="180" viewBox="0 0 180 180" fill="none" xmlns="http://www.w3.org/2000/svg">
<path d="M168.273 85.1715C163.191 81.321 131.807 84.6585 116.18 88.8975C100.551 93.1365 77.6809 108.831 77.0449 110.64C76.4089 112.449 75.9199 137.607 75.9199 137.607L168.273 134.358V85.1715Z" fill="white"/>
<path d="M13.0925 171.823H73.175L59.8715 138.825L56.3765 126.708C56.3765 126.708 60.455 131.904 67.988 130.152C75.521 128.401 75.9245 120.864 75.92 114.582C75.9155 108.298 71.54 97.2086 71.54 97.2086C71.54 97.2086 75.0695 97.6256 77.3285 94.9706C79.5875 92.3171 80.5475 83.6771 80.039 82.3781C79.5305 81.0791 76.829 77.4086 75.9215 77.8601C75.014 78.3116 75.014 82.8266 75.014 82.8266C75.014 82.8266 71.4005 80.6261 70.778 81.6146C70.157 82.6031 70.439 85.5386 70.439 85.5386L66.7685 84.1271C66.7685 84.1271 63.719 87.8591 63.2675 89.1836C62.816 90.5081 62.759 92.8106 62.759 92.8106L61.1675 102.48C61.1675 102.48 57.8075 94.3481 56.669 93.3311C55.5305 92.3141 54.9995 91.9196 54.9995 91.9196C54.9995 91.9196 56.705 89.7731 55.9205 88.7006C55.1345 87.6281 51.725 90.2246 51.725 90.2246L43.364 85.3676L43.1615 83.0471C43.1615 83.0471 47.8295 83.6171 48.9395 79.6631L50.672 62.3831L43.5875 54.3071L27.125 67.2446L27.3515 75.0941L32.378 75.5276L29.2715 86.0066L22.58 83.6006C22.58 83.6006 16.3865 88.9406 13.5965 96.3956C10.8065 103.851 6.647 123.234 9.827 130.632C13.007 138.03 16.7345 136.506 16.7345 136.506C16.7345 136.506 12.9275 143.767 12.4595 151.869C11.9915 159.969 13.0925 171.823 13.0925 171.823Z" fill="white"/>
<path d="M61.2539 116.964C61.2539 116.964 62.7029 118.833 66.1199 119.736C69.5369 120.639 73.4894 119.62 73.4894 119.62L74.0819 115.582C74.0819 115.582 71.0189 116.245 67.1219 115.426C63.2249 114.607 61.5734 112.617 61.5734 112.617L61.2539 116.964Z" fill="#88DA09"/>
<path d="M25.4603 116.304C25.4603 116.304 24.7733 118.711 24.9803 121.203C25.3193 125.269 27.2393 128.799 27.2393 128.799C27.2393 128.799 24.9638 130.272 22.4528 131.043C22.4528 131.043 20.4623 127.641 20.3498 123.519C20.2343 119.313 21.1658 118.518 21.1658 118.518L25.4603 116.304Z" fill="#88DA09"/>
<path d="M44.6041 172.167H41.7031L41.8726 166.973L44.6041 172.167Z" fill="#88DA09"/>
<path d="M20.7232 135.735C20.7232 135.735 30.9667 139.639 38.8447 140.74C46.7227 141.841 55.0012 141.286 55.0012 141.286L66.2722 172.165L46.7227 172.674L41.0467 163.102L40.2847 172.165H22.0312C22.0312 172.165 16.7257 159.574 17.2447 150.244C17.7397 141.381 20.7232 135.735 20.7232 135.735Z" fill="#495563"/>
<path d="M167.678 78.3297C158.276 78.6462 139.483 79.9647 119.207 85.2492C100.18 90.2082 83.6932 100 74.3737 106.336C74.8972 109.258 76.0132 116.268 75.3532 119.736C74.5057 124.185 72.7552 128.742 68.7457 129.418C62.1592 130.528 55.2832 125.247 55.2832 125.247L57.3097 139.47L68.1517 172.167H72.0352H169.246C171.854 172.167 173.969 170.052 173.969 167.443V84.4137C173.969 80.9712 171.118 78.2142 167.678 78.3297ZM166.639 124.092C166.639 126.957 164.326 129.285 161.461 129.303L97.6762 129.712C97.6762 129.712 99.6532 122.032 90.6712 121.677C81.6907 121.321 78.2662 125.103 78.2662 125.103L78.2782 113.943C78.2797 112.476 78.8977 111.079 79.9822 110.092C83.3167 107.064 91.7242 100.522 106.702 95.4147C133.465 86.2902 152.981 85.7172 161.651 86.0847C164.44 86.2032 166.639 88.4997 166.639 91.2912V124.092Z" fill="#88DA09"/>
<path d="M86.5808 121.07C86.5808 121.07 81.0743 113.633 83.2583 109.925C85.4423 106.218 90.9893 111.74 90.9893 111.74L90.8033 114.558L88.4903 113.66C88.4903 113.66 86.9513 112.254 86.4398 112.425C84.7643 112.988 89.7923 121.103 89.7923 121.103L86.5808 121.07Z" fill="#1C2024"/>
<path d="M95.895 117.481C95.895 117.481 94.3575 115.59 93.2325 116.473C92.1075 117.357 92.826 118.956 93.387 119.488C97.305 123.219 98.9115 128.743 98.9115 128.743L101.857 128.83C101.859 128.83 100.707 122.845 95.895 117.481Z" fill="#1C2024"/>
<path d="M142.542 116.673C142.419 116.673 142.299 116.613 142.227 116.502C142.114 116.328 142.162 116.095 142.336 115.983L165.799 100.704C165.973 100.591 166.206 100.639 166.318 100.813C166.431 100.987 166.383 101.22 166.209 101.332L142.746 116.613C142.683 116.653 142.612 116.673 142.542 116.673Z" fill="#1C2024"/>
<path d="M153.107 115.026C152.983 115.026 152.86 114.963 152.789 114.849C152.68 114.674 152.734 114.443 152.909 114.333L165.805 106.313C165.98 106.203 166.211 106.257 166.321 106.433C166.43 106.608 166.376 106.839 166.201 106.949L153.305 114.969C153.244 115.008 153.176 115.026 153.107 115.026Z" fill="#1C2024"/>
<path d="M92.8851 120.111C92.8161 120.111 92.7471 120.093 92.6856 120.054C91.4046 119.247 87.0876 115.476 87.7626 114.058C87.8886 113.793 88.1046 113.61 88.3881 113.527C89.2446 113.277 90.5301 114.057 90.6741 114.147C90.8496 114.256 90.9036 114.487 90.7941 114.663C90.6846 114.838 90.4536 114.892 90.2781 114.783C89.8116 114.493 88.9821 114.135 88.5996 114.246C88.5216 114.268 88.4751 114.307 88.4406 114.379C88.3941 114.499 88.5726 115.183 89.9751 116.697C90.9696 117.772 92.2506 118.89 93.0876 119.418C93.2631 119.529 93.3156 119.76 93.2046 119.935C93.1311 120.049 93.0096 120.111 92.8851 120.111Z" fill="#1C2024"/>
<path d="M162.332 128.532C162.323 128.532 162.314 128.532 162.305 128.53C162.098 128.515 161.944 128.335 161.959 128.13C161.965 128.052 162.482 120.27 158.804 116.721C157.376 115.342 155.474 114.772 153.151 115.024C149.072 115.467 128.612 120.057 128.407 120.103C128.371 120.111 128.333 120.114 128.296 120.111C118.526 119.376 103.571 118.381 102.409 118.656C102.343 118.671 102.283 118.692 102.226 118.716C102.251 118.839 102.272 118.957 102.29 119.07C102.421 119.901 102.346 120.424 102.055 120.72C101.642 121.138 101.303 121.069 101.137 120.991C100.801 120.832 100.637 120.394 100.699 119.82C100.751 119.32 100.978 118.777 101.381 118.392C100.733 115.882 98.8433 112.123 97.8968 111.628C97.2413 111.286 95.8268 110.905 94.3943 110.842C92.8973 110.775 91.8308 111.069 91.4708 111.646C90.7343 112.827 91.5938 115.458 91.9868 116.371C92.0678 116.562 91.9808 116.782 91.7903 116.863C91.5998 116.946 91.3793 116.857 91.2983 116.667C91.2338 116.518 89.7413 113.001 90.8348 111.247C92.0108 109.363 96.6713 110.14 98.2448 110.962C99.4388 111.585 101.318 115.353 102.049 117.981C102.11 117.96 102.173 117.94 102.239 117.925C103.877 117.54 125.546 119.151 128.299 119.358C129.716 119.04 149.017 114.718 153.071 114.277C155.627 114 157.732 114.64 159.328 116.181C163.259 119.976 162.733 127.849 162.709 128.182C162.692 128.38 162.527 128.532 162.332 128.532ZM101.578 119.398C101.558 119.442 101.543 119.482 101.53 119.52C101.416 119.844 101.425 120.117 101.456 120.253C101.474 120.238 101.495 120.22 101.519 120.195C101.522 120.192 101.653 120.049 101.578 119.398Z" fill="#1C2024"/>
<path d="M92.0718 117.01C92.0373 117.01 92.0028 117.006 91.9698 116.995C91.7703 116.938 91.6548 116.731 91.7118 116.532C91.7388 116.437 92.3913 114.213 94.2993 113.886C96.1293 113.572 98.5803 115.312 98.6838 115.386C98.8518 115.506 98.8908 115.741 98.7693 115.909C98.6493 116.077 98.4138 116.116 98.2458 115.996C98.2233 115.98 95.9463 114.364 94.4253 114.625C92.9778 114.874 92.4378 116.719 92.4318 116.737C92.3868 116.904 92.2353 117.01 92.0718 117.01Z" fill="#1C2024"/>
<path d="M91.4079 115.476C91.3794 115.476 91.3509 115.473 91.3224 115.466C91.1214 115.418 90.9954 115.217 91.0434 115.014C91.0509 114.981 91.2384 114.195 91.7184 113.426C92.3889 112.347 93.2964 111.824 94.3479 111.911C96.5604 112.095 98.4264 112.613 98.5044 112.635C98.7039 112.691 98.8194 112.898 98.7639 113.097C98.7084 113.297 98.4999 113.414 98.3019 113.357C98.2839 113.352 96.4239 112.836 94.2849 112.658C92.4219 112.5 91.7799 115.158 91.7739 115.185C91.7319 115.359 91.5789 115.476 91.4079 115.476Z" fill="#1C2024"/>
<path d="M91.0861 113.592C91.0306 113.592 90.9751 113.58 90.9211 113.555C90.7351 113.463 90.6586 113.24 90.7486 113.054C90.7996 112.949 92.0386 110.468 94.7971 110.253C95.0011 110.237 95.1841 110.391 95.2006 110.598C95.2171 110.805 95.0626 110.985 94.8556 111.002C92.5321 111.182 91.4341 113.361 91.4236 113.384C91.3591 113.516 91.2256 113.592 91.0861 113.592Z" fill="#1C2024"/>
<path d="M117.137 129.118C117.114 129.118 117.09 129.117 117.066 129.112C109.446 127.668 100.949 125.023 100.865 124.996C100.667 124.935 100.557 124.725 100.619 124.527C100.68 124.329 100.89 124.219 101.088 124.281C101.172 124.308 109.629 126.939 117.206 128.376C117.41 128.415 117.543 128.611 117.504 128.814C117.471 128.992 117.314 129.118 117.137 129.118Z" fill="#1C2024"/>
<path d="M142.505 129.395C142.454 129.395 142.403 129.384 142.353 129.363C142.166 129.281 142.08 129.062 142.16 128.874C142.172 128.841 142.616 127.626 141.96 123.855C141.213 119.565 139.173 117.896 139.154 117.881C138.992 117.752 138.965 117.516 139.092 117.354C139.221 117.192 139.455 117.164 139.617 117.291C139.71 117.365 141.899 119.129 142.698 123.726C143.4 127.761 142.905 129.039 142.847 129.171C142.785 129.312 142.649 129.395 142.505 129.395Z" fill="#1C2024"/>
<path d="M83.7102 134.736C81.9882 134.736 80.7417 134.705 80.5932 134.7C80.3862 134.694 80.2227 134.522 80.2287 134.315C80.2347 134.108 80.4102 133.94 80.6142 133.95C80.7252 133.953 91.7127 134.231 94.6962 133.106C96.4122 132.458 96.6867 130.658 96.6972 130.581C96.7257 130.376 96.9162 130.235 97.1202 130.262C97.3242 130.29 97.4682 130.478 97.4397 130.683C97.4277 130.778 97.1022 132.999 94.9602 133.808C92.8557 134.601 87.2682 134.736 83.7102 134.736Z" fill="#1C2024"/>
<path d="M150.108 107.864C150.047 107.864 149.985 107.849 149.928 107.817C149.747 107.718 149.679 107.49 149.778 107.309C150.591 105.816 150.779 104.273 150.78 104.256C150.801 104.07 150.957 103.929 151.143 103.925C151.163 103.925 153.179 103.857 154.161 102.645C154.655 102.038 154.811 101.223 154.629 100.224C154.508 99.5596 153.848 99.2866 153.272 99.2536C152.298 99.1981 151.13 99.7561 150.711 101.129C150.651 101.327 150.441 101.438 150.243 101.378C150.045 101.318 149.934 101.108 149.994 100.91C150.533 99.1471 152.049 98.4316 153.315 98.5051C154.397 98.5681 155.202 99.1891 155.367 100.089C155.592 101.315 155.381 102.335 154.742 103.121C153.789 104.292 152.163 104.58 151.478 104.651C151.38 105.21 151.104 106.44 150.435 107.667C150.369 107.793 150.242 107.864 150.108 107.864Z" fill="#1C2024"/>
<path d="M142.013 108.714C141.752 108.714 141.498 108.66 141.252 108.552C140.096 108.043 139.593 106.489 139.572 106.423C139.532 106.296 139.563 106.155 139.655 106.056C139.746 105.957 139.883 105.915 140.015 105.945C140.019 105.946 140.687 106.086 141.854 105.889C143.469 105.615 144.464 105.145 144.473 105.139C144.599 105.079 144.75 105.094 144.863 105.18C144.975 105.265 145.029 105.406 145.004 105.546C144.987 105.634 144.584 107.736 142.97 108.486C142.643 108.637 142.322 108.714 142.013 108.714ZM140.522 106.741C140.729 107.142 141.072 107.653 141.557 107.866C141.891 108.013 142.25 107.994 142.653 107.806C143.403 107.458 143.829 106.683 144.053 106.108C143.567 106.275 142.859 106.479 141.977 106.629C141.369 106.731 140.877 106.75 140.522 106.741Z" fill="#1C2024"/>
<path d="M146.598 99.6433C146.463 99.6433 146.331 99.5698 146.265 99.4408C146.249 99.4108 145.82 98.6383 144.696 98.5393C143.76 98.4568 143.435 98.8738 143.421 98.8918C143.304 99.0628 143.073 99.1033 142.902 98.9863C142.731 98.8693 142.689 98.6323 142.806 98.4613C142.829 98.4283 143.366 97.6693 144.761 97.7923C146.309 97.9273 146.906 99.0478 146.93 99.0958C147.024 99.2803 146.954 99.5053 146.769 99.6013C146.715 99.6298 146.657 99.6433 146.598 99.6433Z" fill="#1C2024"/>
<path d="M144.471 101.117C144.777 101.077 144.986 100.756 144.939 100.4C144.892 100.045 144.607 99.7891 144.301 99.8294C143.996 99.8697 143.786 100.191 143.833 100.546C143.88 100.902 144.166 101.158 144.471 101.117Z" fill="#1C2024"/>
<path d="M139.201 101.117C139.507 101.077 139.717 100.756 139.67 100.4C139.623 100.045 139.337 99.7891 139.032 99.8294C138.726 99.8697 138.517 100.191 138.563 100.546C138.61 100.902 138.896 101.158 139.201 101.117Z" fill="#1C2024"/>
<path d="M142.401 112.587C142.367 112.587 142.332 112.587 142.296 112.587C140.699 112.561 139.317 111.975 138.302 110.889C136.265 108.712 136.281 103.029 136.298 97.5314C136.299 97.0724 136.301 96.6179 136.301 96.1694C136.301 95.9624 136.469 95.7944 136.676 95.7944C136.883 95.7944 137.051 95.9624 137.051 96.1694C137.051 96.6179 137.049 97.0739 137.048 97.5329C137.033 102.634 137.016 108.417 138.849 110.376C139.724 111.31 140.919 111.814 142.308 111.837C144.168 111.864 146.252 110.994 147.624 109.617C147.77 109.47 148.008 109.47 148.155 109.615C148.302 109.761 148.302 109.999 148.157 110.146C146.649 111.657 144.455 112.587 142.401 112.587Z" fill="#1C2024"/>
<path d="M142.539 116.673C142.355 116.673 142.194 116.536 142.169 116.349L141.609 112.269C141.581 112.063 141.725 111.874 141.93 111.846C142.136 111.817 142.325 111.961 142.353 112.167L142.913 116.247C142.941 116.452 142.797 116.641 142.592 116.67C142.574 116.673 142.557 116.673 142.539 116.673Z" fill="#1C2024"/>
<path d="M151.871 110.433C151.685 110.433 151.523 110.293 151.499 110.104L150.782 104.344C150.757 104.139 150.902 103.951 151.108 103.926C151.313 103.897 151.501 104.046 151.526 104.251L152.243 110.011C152.269 110.217 152.123 110.404 151.918 110.43C151.903 110.433 151.888 110.433 151.871 110.433Z" fill="#1C2024"/>
<path d="M140.86 105.022C140.84 105.022 140.819 105.021 140.798 105.018C140.738 105.007 139.336 104.763 139.117 103.579C138.991 102.894 139.288 102.498 139.603 102.078C139.826 101.779 140.08 101.442 140.267 100.899C140.54 100.105 140.543 99.4394 140.276 99.0254C140.093 98.7434 139.781 98.5799 139.349 98.5394C138.248 98.4404 137.705 99.2759 137.701 99.2849C137.59 99.4604 137.359 99.5129 137.183 99.4019C137.008 99.2909 136.955 99.0599 137.066 98.8844C137.098 98.8334 137.864 97.6484 139.418 97.7924C140.083 97.8539 140.597 98.1389 140.906 98.6174C141.307 99.2384 141.331 100.111 140.977 101.142C140.752 101.797 140.447 102.202 140.203 102.528C139.907 102.921 139.79 103.095 139.855 103.443C139.976 104.104 140.911 104.277 140.92 104.278C141.124 104.311 141.263 104.505 141.229 104.709C141.199 104.892 141.04 105.022 140.86 105.022Z" fill="#1C2024"/>
<path d="M150.354 101.394C150.252 101.394 150.148 101.352 150.075 101.269C149.967 101.149 147.715 98.6115 147.493 96.084C146.412 96.429 145.068 96.5864 143.968 96.3539C143.337 96.2204 142.819 95.9684 142.438 95.6129C142.419 95.6459 142.401 95.6775 142.38 95.709C141.907 96.4635 141.195 96.8415 140.316 96.807C137.737 96.702 136.431 95.0505 136.377 94.9815C136.251 94.818 136.281 94.5825 136.444 94.455C136.608 94.329 136.843 94.359 136.971 94.5225C137.016 94.581 138.13 95.9685 140.347 96.0585C140.934 96.0825 141.382 95.856 141.711 95.3655C141.799 95.2335 141.874 95.0895 141.939 94.9395C141.592 94.236 141.424 93.582 141.453 93.048C141.478 92.5515 141.681 92.16 141.993 91.9995C142.311 91.836 142.668 91.95 142.837 92.271C143.019 92.6115 143.101 93.7874 142.764 94.8614C143.043 95.2349 143.499 95.4914 144.123 95.6219C145.174 95.8439 146.509 95.658 147.495 95.301C147.501 95.244 147.507 95.1855 147.516 95.1285C147.663 94.1265 148.218 93.702 148.689 93.6375C149.058 93.5865 149.394 93.759 149.529 94.0635C149.61 94.248 149.724 94.7385 149.025 95.3235C148.819 95.496 148.546 95.6595 148.227 95.8065C148.296 98.1375 150.607 100.744 150.633 100.773C150.771 100.927 150.757 101.164 150.604 101.302C150.534 101.362 150.444 101.394 150.354 101.394ZM148.818 94.377C148.791 94.377 148.75 94.383 148.701 94.407C148.549 94.4805 148.422 94.6545 148.339 94.8945C148.414 94.845 148.483 94.7955 148.545 94.7445C148.758 94.566 148.825 94.434 148.839 94.377C148.833 94.377 148.825 94.377 148.818 94.377ZM142.23 92.8905C142.197 93.036 142.183 93.255 142.239 93.5535C142.255 93.294 142.248 93.0615 142.23 92.8905Z" fill="#1C2024"/>
<path d="M154.767 99.8162C154.742 99.8162 154.715 99.8132 154.689 99.8072C154.487 99.7637 154.358 99.5642 154.4 99.3632C155.55 93.9512 154.808 92.2022 154.149 91.3592C153.599 90.6542 152.783 90.2912 151.656 90.2507C151.491 90.2447 151.35 90.1322 151.308 89.9732C150.891 88.4297 149.568 87.4172 148.532 86.8397C146.457 85.6832 143.645 85.2332 141.846 85.7702C141.2 85.9637 140.883 86.2532 140.904 86.6297C140.906 86.6522 140.907 86.6747 140.91 86.6987C141.665 87.0617 142.383 87.5807 142.511 88.1447C142.595 88.5137 142.389 88.7432 142.164 88.8002C141.624 88.9337 140.645 88.0892 140.292 87.2417C140.198 87.2027 140.099 87.1637 139.997 87.1277C137.484 86.2217 135.945 87.1862 135.534 87.5042C134.874 88.0127 134.64 88.6337 134.837 89.3507C134.91 89.6162 135.03 89.8652 135.174 90.0872C135.314 90.1037 135.456 90.1307 135.606 90.1742C136.41 90.4022 136.929 90.9617 136.812 91.4747C136.76 91.7057 136.578 91.8602 136.338 91.8767C135.915 91.9097 135.285 91.4507 134.796 90.8357C134.306 90.8792 133.616 91.1732 133.209 92.3627C132.747 93.7142 133.547 95.3822 134.298 96.5432C135.14 97.8437 136.107 98.8082 136.118 98.8172C136.265 98.9627 136.266 99.1997 136.121 99.3482C135.975 99.4952 135.738 99.4967 135.59 99.3512C135.42 99.1832 131.447 95.2007 132.5 92.1212C132.791 91.2707 133.415 90.4022 134.349 90.1472C134.294 90.0392 134.246 89.9312 134.204 89.8232C133.779 88.7057 134.09 87.6722 135.078 86.9102C136.364 85.9202 138.263 85.7297 140.172 86.3942C140.24 85.9277 140.568 85.3712 141.635 85.0532C143.642 84.4547 146.63 84.9197 148.901 86.1857C150.464 87.0572 151.515 88.2047 151.956 89.5172C153.168 89.6147 154.106 90.0797 154.745 90.8987C156.296 92.8862 155.769 96.5507 155.138 99.5207C155.096 99.6947 154.941 99.8162 154.767 99.8162Z" fill="#1C2024"/>
<path d="M151.652 107.864C151.585 107.864 151.517 107.846 151.456 107.808C151.279 107.7 151.225 107.469 151.333 107.292C152.315 105.692 152.929 103.682 152.935 103.662C152.995 103.464 153.203 103.352 153.403 103.412C153.601 103.472 153.713 103.68 153.653 103.88C153.628 103.965 153.007 106.001 151.972 107.685C151.901 107.799 151.778 107.864 151.652 107.864Z" fill="#1C2024"/>
<path d="M33.8091 72.9075C33.8091 72.9075 39.1581 86.793 33.5076 88.4415C30.3216 89.3715 23.5971 86.007 23.5971 86.007C23.5971 86.007 17.1006 88.746 14.4621 93.9915C8.09607 84.4125 18.7671 80.355 20.8776 77.262C23.8476 72.909 21.4641 61.3125 26.1381 55.653C31.5591 49.0905 44.9436 48.7515 50.1381 58.578C53.5881 65.103 48.4581 75.348 50.9991 82.83C52.6836 87.789 50.9121 90.0015 50.9121 90.0015L42.8226 86.3835L42.4641 82.152C42.4641 82.152 46.2366 82.578 48.2541 78.5295C50.6616 73.6995 49.5156 64.761 49.5156 64.761C49.5156 64.761 49.5156 61.203 45.5916 57.7305C45.5916 57.7305 44.6316 61.0485 41.1576 63.5475C38.5626 65.415 34.0251 68.0985 34.0251 68.0985C34.0251 68.0985 30.4551 64.7325 28.6266 67.659C27.4536 69.5355 28.6671 71.8275 30.4116 72.909C31.9206 73.842 33.8091 72.9075 33.8091 72.9075Z" fill="#1C2024"/>
<path d="M44.302 77.6357C44.2375 77.6357 44.1715 77.6327 44.1055 77.6267C42.448 77.4842 40.7905 75.3737 40.5925 74.3702C40.4815 73.8047 40.7815 73.5842 40.915 73.5152C41.593 73.1672 44.2975 73.8947 45.3115 74.2577C46.2535 74.5937 46.4575 74.8127 46.5385 74.9972C46.72 75.4157 46.5685 76.0757 46.1605 76.6427C45.7015 77.2817 45.0325 77.6357 44.302 77.6357ZM41.32 74.1707C41.335 74.3222 41.461 74.6867 41.83 75.1952C42.4 75.9827 43.345 76.8077 44.1715 76.8797C44.908 76.9442 45.3535 76.4852 45.553 76.2062C45.82 75.8342 45.8905 75.4652 45.8605 75.3257C45.379 74.9057 42.0415 74.0657 41.32 74.1707Z" fill="#1C2024"/>
<path d="M43.1604 82.443C41.0739 82.443 38.7369 81.414 36.5379 79.485C36.3819 79.3485 36.3669 79.1115 36.5034 78.9555C36.6399 78.7995 36.8769 78.7845 37.0329 78.921C39.5994 81.1725 42.3234 82.119 44.5029 81.516C46.2864 81.024 47.6334 79.512 48.3969 77.145C49.0749 75.045 49.1334 72.399 49.1949 69.6C49.2399 67.5285 49.2879 65.3865 49.5744 63.21C49.6014 63.0045 49.7904 62.8605 49.9944 62.8875C50.1999 62.9145 50.3439 63.1035 50.3169 63.3075C50.0349 65.445 49.9884 67.566 49.9434 69.6165C49.8804 72.4725 49.8219 75.171 49.1094 77.376C48.2634 79.995 46.7394 81.6765 44.7009 82.239C44.2104 82.3755 43.6944 82.443 43.1604 82.443Z" fill="#1C2024"/>
<path d="M39.803 88.2479C39.7385 88.2479 39.674 88.2464 39.608 88.2449C33.9875 88.0904 30.623 84.7739 30.482 84.6329C30.3365 84.4859 30.3365 84.2489 30.4835 84.1019C30.6305 83.9564 30.8675 83.9564 31.0145 84.1034C31.046 84.1349 34.3205 87.3479 39.629 87.4949C41.7065 87.5489 42.3185 86.5829 42.4445 86.3219L42.0935 82.1819C42.0755 81.9749 42.2285 81.7949 42.4355 81.7769C42.6425 81.7619 42.824 81.9119 42.8405 82.1189L43.199 86.3504C43.2035 86.3999 43.1975 86.4509 43.181 86.4989C43.157 86.5724 42.572 88.2479 39.803 88.2479Z" fill="#1C2024"/>
<path d="M28.6781 128.304C28.5491 128.304 28.4231 128.238 28.3541 128.118C28.2491 127.94 28.3106 127.71 28.4891 127.605C38.2976 121.889 48.4196 112.493 48.5201 112.398C48.5756 112.346 48.6461 112.313 48.7211 112.302C48.8366 112.283 51.6446 111.753 51.9521 105.927C51.9626 105.72 52.1396 105.56 52.3466 105.573C52.5536 105.584 52.7126 105.761 52.7006 105.968C52.3916 111.834 49.5926 112.862 48.9551 113.019C47.9966 113.903 38.2946 122.759 28.8671 128.255C28.8071 128.288 28.7411 128.304 28.6781 128.304Z" fill="#1C2024"/>
<path d="M17.6854 132.926C15.5269 132.926 13.6294 132.452 12.4024 131.574C10.6249 130.302 9.51191 127.628 9.09341 123.627C8.56541 118.572 9.19091 111.617 10.8079 104.544C12.3589 97.7626 14.4724 92.4181 16.4584 90.2491C18.8749 87.6091 22.4224 85.8421 24.9724 84.8251C27.7249 83.7271 29.8774 83.2546 29.9674 83.2351C30.1699 83.1916 30.3694 83.3191 30.4129 83.5216C30.4564 83.7241 30.3289 83.9236 30.1264 83.9671C30.0409 83.9851 21.4624 85.8946 17.0119 90.7546C13.0819 95.0461 8.70941 112.731 9.83891 123.548C10.2274 127.272 11.2654 129.837 12.8374 130.962C14.2624 131.982 16.7464 132.395 19.4824 132.063C22.5754 131.69 25.5859 130.425 27.9619 128.505C28.1224 128.375 28.3594 128.4 28.4899 128.561C28.6204 128.721 28.5949 128.958 28.4344 129.089C25.9504 131.097 22.8034 132.417 19.5739 132.809C18.9304 132.887 18.2974 132.926 17.6854 132.926Z" fill="#1C2024"/>
<path d="M45.7798 73.2824C45.6373 73.2824 45.5008 73.2014 45.4378 73.0619C45.3523 72.8729 45.4363 72.6509 45.6238 72.5654C45.8698 72.4529 46.5883 72.0269 46.6618 71.5619C46.7398 71.0744 46.4233 70.5614 46.0588 69.9674C45.5368 69.1184 44.8873 68.0609 45.4138 66.7649C45.7513 65.9354 46.4008 65.4494 47.2423 65.3969C48.3283 65.3324 49.4848 65.9969 49.8433 66.6374C49.9438 66.8189 49.8793 67.0469 49.6993 67.1474C49.5193 67.2479 49.2898 67.1834 49.1893 67.0034C48.9763 66.6239 48.0838 66.0989 47.2888 66.1454C46.7353 66.1799 46.3378 66.4829 46.1083 67.0469C45.7243 67.9904 46.1968 68.7599 46.6963 69.5744C47.1028 70.2359 47.5228 70.9184 47.4013 71.6804C47.2513 72.6254 46.0663 73.1879 45.9328 73.2494C45.8848 73.2719 45.8323 73.2824 45.7798 73.2824Z" fill="#1C2024"/>
<path d="M39.1595 65.9266C39.041 65.9266 38.924 65.8711 38.8505 65.7661C38.732 65.5966 38.774 65.3626 38.945 65.2441C41.6195 63.3841 43.6955 64.5796 43.7825 64.6306C43.961 64.7371 44.0195 64.9666 43.913 65.1451C43.808 65.3221 43.5785 65.3821 43.4 65.2771C43.3265 65.2351 41.633 64.2886 39.3725 65.8606C39.308 65.9041 39.233 65.9266 39.1595 65.9266Z" fill="#1C2024"/>
<path d="M42.2972 67.6019C42.3476 67.159 42.1102 66.7684 41.7669 66.7293C41.4237 66.6902 41.1046 67.0175 41.0542 67.4604C41.0038 67.9032 41.2411 68.2939 41.5844 68.333C41.9276 68.372 42.2468 68.0447 42.2972 67.6019Z" fill="#1C2024"/>
<path d="M48.1761 68.5301C48.2265 68.0872 47.9891 67.6966 47.6458 67.6575C47.3026 67.6184 46.9835 67.9458 46.9331 68.3886C46.8827 68.8314 47.1201 69.2221 47.4633 69.2612C47.8065 69.3002 48.1257 68.9729 48.1761 68.5301Z" fill="#1C2024"/>
<path d="M79.4278 73.9199H72.3583C71.6638 73.9199 71.0443 74.3534 70.8073 75.0059L65.3743 89.9339C64.9828 91.0109 65.7793 92.1494 66.9253 92.1494H73.9948C74.5378 92.1494 75.0358 91.8824 75.3403 91.4534L75.1888 91.4054C75.1888 91.4054 70.7623 89.4464 70.9888 88.5584C71.2153 87.6704 75.2353 88.7444 75.2353 88.7444C75.2353 88.7444 70.7083 83.7509 71.5483 83.0324C72.3883 82.3139 76.2973 85.0409 76.2973 85.0409V83.5634C76.2973 83.5634 75.4213 79.7129 76.4953 79.9229C77.5693 80.1329 78.7288 82.3169 78.7288 82.3169L80.9803 76.1309C81.3718 75.0584 80.5738 73.9199 79.4278 73.9199Z" fill="#88DA09"/>
<path d="M61.2537 117.339C61.0572 117.339 60.8922 117.186 60.8802 116.988C60.3627 108.798 62.2902 97.2588 62.9232 93.4683C63.0147 92.9163 63.0957 92.4378 63.1062 92.3283C63.1002 92.1513 63.0192 89.3958 63.9477 87.8118C64.8447 86.2818 65.9307 84.8808 65.9757 84.8223C66.1032 84.6588 66.3387 84.6288 66.5022 84.7563C66.6657 84.8838 66.6957 85.1193 66.5682 85.2828C66.5577 85.2963 65.4657 86.7033 64.5942 88.1913C63.8082 89.5323 63.8472 91.9983 63.8547 92.2788C63.8667 92.3673 63.8412 92.5218 63.6627 93.5913C63.0327 97.3623 61.1157 108.836 61.6287 116.94C61.6422 117.147 61.4847 117.326 61.2777 117.338C61.2687 117.339 61.2612 117.339 61.2537 117.339ZM63.1137 92.3988V92.4003C63.1137 92.4003 63.1137 92.4003 63.1137 92.3988Z" fill="#1C2024"/>
<path d="M73.6332 114.957C73.4397 114.957 73.2762 114.809 73.2597 114.614C72.5697 106.4 70.1022 96.8206 70.0767 96.7246C70.0242 96.5236 70.1457 96.3196 70.3452 96.2671C70.5462 96.2146 70.7502 96.3361 70.8027 96.5356C70.8282 96.6316 73.3122 106.274 74.0067 114.549C74.0247 114.756 73.8702 114.936 73.6647 114.954C73.6542 114.957 73.6437 114.957 73.6332 114.957Z" fill="#1C2024"/>
<path d="M66.3453 128.352C63.5973 128.352 60.8298 127.179 58.2033 124.878C55.5303 122.537 53.9658 119.894 53.9013 119.783C53.7963 119.604 53.8563 119.375 54.0348 119.27C54.2133 119.165 54.4428 119.225 54.5478 119.403C54.5628 119.43 56.1258 122.066 58.7118 124.326C62.1288 127.314 65.6253 128.271 69.0993 127.17C73.1268 125.894 74.5053 117.876 74.3493 113.867C74.3418 113.66 74.5023 113.486 74.7093 113.477C74.9163 113.472 75.0903 113.63 75.0993 113.837C75.2463 117.618 73.9968 126.404 69.3258 127.884C68.3403 128.198 67.3443 128.352 66.3453 128.352Z" fill="#1C2024"/>
<path d="M70.6645 96.7844C69.211 96.7844 68.0665 96.6224 67.969 96.6089C67.7635 96.5789 67.6225 96.3884 67.6525 96.1844C67.6825 95.9789 67.8715 95.8379 68.077 95.8679C68.1235 95.8739 72.7855 96.5309 75.163 95.1674C77.5135 93.8174 78.7045 89.6834 78.5695 87.8834C78.463 87.3794 75.6895 84.7514 73.7005 83.7314C72.925 83.3339 72.703 83.4224 72.7015 83.4224C72.6355 83.5304 72.7255 84.2354 73.954 85.9679C74.7955 87.1544 75.97 88.5224 76.81 89.2964C76.963 89.4359 76.972 89.6744 76.8325 89.8259C76.6915 89.9789 76.4545 89.9879 76.303 89.8484C74.893 88.5509 71.713 84.7679 71.9515 83.3264C71.9965 83.0519 72.1555 82.8419 72.3985 82.7354C72.679 82.6124 73.2085 82.5419 74.563 83.3549C75.4855 83.9084 76.6255 84.7799 77.6155 85.6844C78.7135 86.6894 79.2865 87.4109 79.318 87.8264C79.4605 89.7209 78.2545 94.2584 75.538 95.8169C74.182 96.5939 72.2425 96.7844 70.6645 96.7844Z" fill="#1C2024"/>
<path d="M78.9447 86.9521C78.9252 86.9521 78.9042 86.9506 78.8847 86.9476C78.6807 86.9146 78.5412 86.7226 78.5742 86.5171C78.7752 85.2706 79.0272 83.0896 78.8457 82.5421C78.5637 81.6976 76.8627 79.6651 76.3032 79.4701C76.2087 79.9546 76.6287 81.7471 77.2677 83.5576C77.2872 83.6116 77.2932 83.6686 77.2872 83.7241L77.0967 85.4131C77.0742 85.6186 76.8867 85.7671 76.6827 85.7431C76.4772 85.7206 76.3287 85.5346 76.3527 85.3291L76.5342 83.7256C76.4397 83.4541 76.1382 82.5616 75.8922 81.6226C75.4992 80.1286 75.3552 79.0726 75.9282 78.7756C76.1172 78.6781 76.3392 78.6796 76.5867 78.7801C77.5782 79.1836 79.2927 81.5056 79.5597 82.3036C79.8597 83.2051 79.3737 86.2876 79.3182 86.6356C79.2837 86.8216 79.1247 86.9521 78.9447 86.9521Z" fill="#1C2024"/>
<path d="M75.2057 94.6997C74.9582 94.6997 74.2262 94.6772 72.2402 94.5107C70.3007 94.3472 69.0722 93.8387 68.8697 93.1172C68.8097 92.9027 68.7887 92.4857 69.3242 92.0927C69.9902 91.6052 72.5432 91.7162 74.4947 91.8857C73.7567 91.5347 72.9602 91.1612 72.3977 90.9062C71.4677 90.4847 69.4652 89.2382 69.5657 88.2812C69.5852 88.0997 69.6782 87.9407 69.8282 87.8357C70.3292 87.4832 71.4062 87.7247 73.5992 88.2602L74.0087 88.3607C76.2122 88.8962 78.4817 90.1862 78.5762 90.2402C78.7562 90.3437 78.8177 90.5717 78.7157 90.7517C78.6137 90.9317 78.3842 90.9932 78.2042 90.8912C78.1817 90.8777 75.9302 89.5997 73.8317 89.0897L73.4207 88.9892C72.2852 88.7117 70.7567 88.3397 70.3262 88.4267C70.4642 88.7822 71.5202 89.6852 72.7067 90.2237C74.0642 90.8387 76.7627 92.1377 76.7897 92.1512C76.9547 92.2307 77.0387 92.4197 76.9862 92.5952C76.9337 92.7722 76.7627 92.8832 76.5797 92.8607C72.8237 92.3852 70.1672 92.4047 69.7667 92.6972C69.6317 92.7962 69.5807 92.8787 69.5897 92.9147C69.6482 93.1217 70.3877 93.6017 72.3017 93.7637C74.7632 93.9707 75.2462 93.9512 75.2657 93.9497C75.4712 93.9332 75.6482 94.0952 75.6602 94.3007C75.6722 94.5062 75.5192 94.6832 75.3137 94.6982C75.3047 94.6982 75.2732 94.6997 75.2057 94.6997Z" fill="#1C2024"/>
<path d="M61.6936 105.386C61.5481 105.386 61.4101 105.3 61.3486 105.158C61.3066 105.059 57.1096 95.2788 54.7531 93.1908C54.5986 93.0528 54.5836 92.8158 54.7216 92.6613C54.8596 92.5053 55.0951 92.4918 55.2511 92.6298C57.7336 94.8288 61.8646 104.456 62.0401 104.864C62.1211 105.054 62.0326 105.275 61.8421 105.356C61.7941 105.377 61.7431 105.386 61.6936 105.386Z" fill="#1C2024"/>
<path d="M66.2704 172.542C66.1114 172.542 65.9644 172.442 65.9134 172.283L55.5634 140.264C55.5604 140.253 55.5574 140.243 55.5544 140.231C55.4374 139.715 52.7104 127.559 53.1469 123.264C53.4064 120.717 54.0409 118.794 54.6529 116.934C55.5964 114.074 56.4109 111.603 55.5529 107.615C55.5094 107.412 55.6384 107.213 55.8409 107.169C56.0434 107.126 56.2429 107.255 56.2864 107.457C57.1864 111.645 56.3029 114.329 55.3654 117.17C54.7654 118.991 54.1429 120.875 53.8924 123.341C53.4754 127.445 56.1649 139.53 56.2819 140.049L66.6259 172.052C66.6889 172.248 66.5809 172.46 66.3844 172.524C66.3484 172.536 66.3094 172.542 66.2704 172.542Z" fill="#1C2024"/>
<path d="M20.8628 120.51C20.3948 120.51 19.9988 120.256 19.7873 119.811C19.6523 119.527 19.6463 119.212 19.7678 118.9C20.0768 118.11 21.2438 117.265 23.2418 116.26C23.3078 116.008 23.3708 115.738 23.4293 115.452C24.6308 109.518 24.8453 103.792 24.0338 99.3315C23.1623 94.5405 21.1793 91.4355 18.2993 90.3495C18.1058 90.276 18.0083 90.06 18.0803 89.8665C18.1538 89.673 18.3698 89.574 18.5633 89.6475C25.5278 92.271 26.3948 104.572 24.1628 115.6C24.1478 115.678 24.1313 115.756 24.1133 115.834C25.7423 115.065 27.8153 114.201 30.3203 113.202C40.5218 109.129 43.1528 106.794 43.5098 106.444C43.7828 105.642 46.0418 99.0225 46.6058 97.392C46.9298 96.4545 48.7853 94.173 50.4788 92.3265C52.0883 90.573 54.1838 88.485 55.0418 88.5225C55.3028 88.533 55.5068 88.698 55.5728 88.953C55.9343 90.351 51.9923 96.3615 50.7758 98.172C50.6603 98.3445 50.4278 98.3895 50.2553 98.274C50.0828 98.1585 50.0378 97.926 50.1533 97.7535C52.7573 93.882 54.7208 90.3435 54.8498 89.3295C54.3548 89.574 53.0573 90.6225 50.9828 92.886C49.0973 94.947 47.5538 96.9435 47.3138 97.6365C46.7168 99.3645 44.2163 106.692 44.1923 106.765C44.1773 106.81 44.1533 106.852 44.1218 106.888C44.0363 106.989 41.9033 109.384 30.5978 113.899C28.2323 114.844 25.7723 115.851 23.8643 116.788C23.3213 118.588 22.3568 120.337 21.0278 120.501C20.9723 120.507 20.9168 120.51 20.8628 120.51ZM22.9253 117.27C21.5978 117.981 20.6768 118.636 20.4653 119.175C20.4053 119.329 20.4323 119.424 20.4638 119.49C20.5628 119.697 20.7173 119.784 20.9363 119.757C21.3863 119.7 22.2533 119.083 22.9253 117.27Z" fill="#1C2024"/>
<path d="M48.9436 99.4742C48.8326 99.4742 48.7216 99.4247 48.6481 99.3302C48.5206 99.1667 48.5491 98.9312 48.7111 98.8037C49.9696 97.8167 54.1831 94.6247 55.5346 94.9772C55.8586 95.0627 56.0926 95.2637 56.2111 95.5592C56.2771 95.7257 56.5471 96.6527 55.3636 98.5457C55.2541 98.7212 55.0231 98.7737 54.8476 98.6642C54.6721 98.5547 54.6181 98.3237 54.7276 98.1482C55.1596 97.4552 55.6891 96.2792 55.5136 95.8367C55.4896 95.7767 55.4521 95.7317 55.3456 95.7032C54.6706 95.5262 51.6151 97.4822 49.1746 99.3947C49.1056 99.4472 49.0246 99.4742 48.9436 99.4742Z" fill="#1C2024"/>
<path d="M50.1396 101.458C50.0196 101.458 49.9011 101.4 49.8276 101.293C49.7121 101.121 49.7571 100.888 49.9296 100.773C50.7801 100.2 55.0911 97.3634 56.4621 97.7204C56.7996 97.8089 57.0471 98.0174 57.1761 98.3219C57.5721 99.2579 56.6721 100.896 56.5686 101.08C56.4666 101.26 56.2386 101.325 56.0571 101.223C55.8771 101.121 55.8126 100.893 55.9146 100.711C56.2596 100.098 56.6661 99.0434 56.4846 98.6144C56.4561 98.5484 56.4111 98.4824 56.2716 98.4464C55.8096 98.3234 53.6661 99.1604 50.3481 101.395C50.2836 101.437 50.2116 101.458 50.1396 101.458Z" fill="#1C2024"/>
<path d="M55.1753 107.315C55.0043 107.315 54.8108 107.229 54.6893 106.983C54.3218 106.248 54.2633 105.395 54.2888 104.76L52.2308 106.403C52.0688 106.532 51.8333 106.505 51.7043 106.344C51.5753 106.182 51.6023 105.947 51.7643 105.818L54.5303 103.611C54.6548 103.512 54.8273 103.502 54.9623 103.586C55.0973 103.67 55.1648 103.829 55.1318 103.983C55.1288 103.997 54.8618 105.291 55.2413 106.359C55.6673 105.585 56.3573 103.251 56.2958 101.868C56.2733 101.357 56.1518 101.259 56.1503 101.259C55.3853 101.06 52.8833 102.444 51.3518 103.491C51.1808 103.608 50.9468 103.565 50.8313 103.394C50.7143 103.223 50.7578 102.989 50.9288 102.873C51.5918 102.42 54.9698 100.178 56.3423 100.536C56.8253 100.662 57.0638 101.196 57.0488 102.123C57.0353 102.963 56.8223 104.13 56.4788 105.246C55.8878 107.169 55.4543 107.268 55.2908 107.306C55.2518 107.31 55.2143 107.315 55.1753 107.315Z" fill="#1C2024"/>
<path d="M21.1409 172.542C20.9999 172.542 20.8649 172.462 20.8004 172.326C20.7389 172.194 14.6729 159.049 16.1939 147.553C17.2454 139.611 20.1029 134.235 20.1314 134.181C20.2199 134.017 20.4149 133.942 20.5904 134.007C41.9414 141.81 55.7249 139.8 55.8629 139.777C56.0669 139.746 56.2589 139.885 56.2904 140.091C56.3219 140.295 56.1824 140.487 55.9784 140.518C55.8359 140.541 52.4279 141.055 46.3049 140.602C40.7219 140.188 31.7564 138.849 20.6474 134.824C20.0564 136.026 17.8334 140.886 16.9379 147.651C15.4454 158.926 21.4199 171.877 21.4799 172.008C21.5669 172.195 21.4859 172.419 21.2984 172.506C21.2474 172.531 21.1934 172.542 21.1409 172.542Z" fill="#1C2024"/>
<path d="M28.2003 129.172C28.0863 129.172 27.9723 129.12 27.8988 129.021C27.8043 128.892 25.5693 125.824 25.3968 121.131C25.2243 116.398 26.7033 114.759 26.7663 114.691C26.9073 114.54 27.1458 114.532 27.2958 114.673C27.4458 114.814 27.4548 115.05 27.3153 115.201C27.2898 115.23 25.9863 116.751 26.1453 121.104C26.3073 125.554 28.4778 128.545 28.5003 128.575C28.6233 128.742 28.5873 128.977 28.4223 129.1C28.3548 129.148 28.2768 129.172 28.2003 129.172Z" fill="#1C2024"/>
<path d="M71.323 115.663C70.459 115.663 69.4015 115.543 68.11 115.24C62.248 113.863 60.973 111.493 60.9205 111.393C60.826 111.208 60.898 110.982 61.0825 110.887C61.2655 110.793 61.4905 110.865 61.5865 111.048C61.6075 111.087 62.833 113.23 68.281 114.51C71.08 115.167 72.5995 114.903 73.3825 114.567C74.182 114.222 74.3635 113.749 74.371 113.73C74.4415 113.538 74.653 113.434 74.8465 113.502C75.04 113.568 75.145 113.773 75.082 113.968C75.055 114.054 74.4865 115.663 71.323 115.663Z" fill="#1C2024"/>
<path d="M41.3441 172.542C41.3381 172.542 41.3336 172.542 41.3276 172.542C41.1206 172.533 40.9601 172.358 40.9691 172.151L41.6891 155.585C41.6981 155.378 41.8736 155.22 42.0806 155.226C42.2876 155.235 42.4481 155.411 42.4391 155.618L41.7191 172.184C41.7101 172.385 41.5436 172.542 41.3441 172.542Z" fill="#1C2024"/>
<path d="M45.9605 173.051C45.8285 173.051 45.7025 172.982 45.6335 172.859L41.3765 165.278C41.2745 165.098 41.339 164.868 41.5205 164.768C41.7005 164.666 41.93 164.73 42.0305 164.912L46.2875 172.493C46.3895 172.673 46.325 172.902 46.1435 173.003C46.085 173.036 46.022 173.051 45.9605 173.051Z" fill="#1C2024"/>
<path d="M25.3751 172.542C25.2357 172.542 25.1021 172.464 25.0377 172.33C24.9971 172.246 20.9367 163.83 19.9227 158.001C18.9072 152.164 19.2777 149.44 19.2942 149.328C19.3092 149.227 19.3632 149.136 19.4457 149.077C19.5282 149.017 19.6317 148.995 19.7322 149.013C19.7817 149.022 24.7541 149.89 28.4846 147.703C32.1836 145.534 32.9577 139.861 32.9652 139.804C32.9922 139.599 33.1797 139.455 33.3852 139.48C33.5907 139.507 33.7361 139.695 33.7091 139.9C33.7016 139.962 33.5051 141.438 32.8181 143.217C31.9001 145.596 30.5336 147.372 28.8641 148.35C25.4861 150.331 21.3102 149.985 20.0022 149.812C19.9392 150.736 19.8792 153.375 20.6607 157.873C21.6567 163.599 25.6707 171.921 25.7112 172.005C25.8012 172.191 25.7232 172.416 25.5372 172.506C25.4862 172.53 25.4306 172.542 25.3751 172.542Z" fill="#1C2024"/>
<path d="M58.241 150.858C58.181 150.858 58.121 150.844 58.0655 150.814C52.355 147.786 51.9635 142.758 51.95 142.545C51.9365 142.338 52.0925 142.159 52.2995 142.146C52.5065 142.132 52.6835 142.288 52.6985 142.495C52.7 142.507 52.79 143.718 53.54 145.258C54.2285 146.676 55.634 148.675 58.418 150.151C58.601 150.249 58.67 150.475 58.574 150.658C58.505 150.784 58.3745 150.858 58.241 150.858Z" fill="#1C2024"/>
<path d="M41.5854 151.371C41.4699 151.371 41.3529 151.365 41.2344 151.353C41.0289 151.332 40.8774 151.149 40.8984 150.942C40.9194 150.735 41.1024 150.585 41.3094 150.606C42.8244 150.756 44.1789 149.648 44.3304 148.134L44.9859 141.561C45.0069 141.356 45.1899 141.204 45.3969 141.225C45.6024 141.246 45.7539 141.429 45.7329 141.636L45.0774 148.209C44.8959 150.018 43.3659 151.371 41.5854 151.371Z" fill="#1C2024"/>
<path d="M41.5083 148.995C41.4963 148.995 41.4828 148.995 41.4708 148.993C41.2653 148.972 41.1138 148.789 41.1348 148.582L41.8668 141.249C41.8878 141.043 42.0708 140.893 42.2778 140.913C42.4833 140.934 42.6348 141.117 42.6138 141.324L41.8818 148.657C41.8623 148.851 41.6988 148.995 41.5083 148.995Z" fill="#1C2024"/>
<path d="M16.5707 134.149C15.3497 134.092 13.7942 133.828 12.2747 133.029C10.4102 132.048 9.56875 130.375 9.19075 129.144C8.93275 128.301 8.05675 127.81 7.20625 128.04C5.81125 128.416 4.84375 129.681 4.84375 131.125V168.628C4.84375 170.394 6.27475 171.823 8.03875 171.823H16.1087C17.1542 171.823 17.9297 170.853 17.6987 169.833C16.7957 165.84 14.8817 156.765 14.8172 151.24C14.7602 146.359 16.8167 139.77 18.0257 136.327C18.3872 135.298 17.6612 134.2 16.5707 134.149Z" fill="#88DA09"/>
<path d="M35.1598 87.8731C35.1598 87.8731 38.1388 88.8451 40.2838 88.7041C42.4303 88.5631 43.3663 86.9536 43.3663 86.9536L46.5808 88.5346C46.5808 88.5346 45.0208 90.9001 41.4418 91.3306C36.2743 91.9516 31.7578 89.1421 31.7578 89.1421C31.7578 89.1421 34.0153 89.1601 35.1598 87.8731Z" fill="#88DA09"/>
</svg>
