<svg width="180" height="180" viewBox="0 0 180 180" fill="none" xmlns="http://www.w3.org/2000/svg">
<path d="M64.0102 154.33L64.7102 18.38C64.7102 17.19 63.7502 16.23 62.5602 16.23C61.3702 16.23 60.4102 17.19 60.4102 18.38V154.33" fill="white"/>
<path d="M17.9699 61.33H59.0199V41.73H17.9699L9.16992 51.53L17.9699 61.33Z" fill="#A4E62F"/>
<path d="M104.99 39.07H63.5898V19.02H104.99L112.15 29.04L104.99 39.07Z" fill="#A4E62F"/>
<path d="M62.8891 152.38L63.5891 16.4298C63.5891 15.2398 62.6291 14.2798 61.4391 14.2798C60.2491 14.2798 59.2891 15.2398 59.2891 16.4298V152.38" stroke="black" stroke-linecap="round" stroke-linejoin="round"/>
<path d="M85.0995 114.68C88.3395 116.67 82.8595 128.64 81.5195 129.69C80.1795 130.74 54.1595 132.64 51.4595 131.26C48.7595 129.88 47.1395 127.73 48.4795 125.54C49.8195 123.35 81.1895 112.28 85.0995 114.68Z" fill="white"/>
<path d="M24.7399 107.65C24.7399 107.65 19.9899 111.57 18.1299 114.08C16.2699 116.59 16.1699 119.28 16.1699 119.28C16.1699 119.28 16.3299 124.84 18.9199 124.35C21.5099 123.86 24.7499 107.64 24.7499 107.64L24.7399 107.65Z" fill="white"/>
<path d="M89.2886 135.61C89.7786 133.53 90.4086 131.6 91.1686 129.86C93.6886 124.07 97.5486 120.44 101.639 120.74C108.209 121.22 112.909 131.68 112.119 144.1C111.339 156.42 105.689 165.78 99.1786 165.47C96.1386 166.17 87.8786 162.39 85.8586 161.58C83.5886 160.67 83.5586 158.16 83.5586 158.16C84.0886 150.4 87.2086 142.29 89.2886 135.62V135.61Z" fill="white"/>
<path d="M153.769 116.37C154.089 115 154.519 113.72 155.029 112.57C156.719 108.75 159.299 106.34 162.039 106.54C166.449 106.86 169.599 113.78 169.079 121.99C168.559 130.2 165.479 135.86 161.119 135.65C159.079 136.11 153.079 134.34 151.719 133.81C150.199 133.21 149.949 133.22 149.949 133.22C150.299 128.09 152.389 120.78 153.779 116.37H153.769Z" fill="white"/>
<path d="M160.058 77.94L166.358 92.69L104.978 108.21L46.9883 98.56C46.9883 98.56 55.7883 89.85 63.5083 84.18C71.2283 78.51 79.9083 74.84 79.9083 74.84L118.118 74L141.918 74.06L160.068 77.93L160.058 77.94Z" fill="black"/>
<path d="M13.3991 123.86C13.7491 122.47 16.1691 119.29 16.1691 119.29C16.1691 119.29 17.2491 124.03 18.7591 123.48C20.2791 122.93 22.0491 110.15 24.7391 107.65C27.4291 105.15 45.6291 97.82 47.4491 96.63C49.2691 95.45 64.8591 80.86 72.1391 77.6C75.0091 76.32 76.8591 74.26 90.1891 72.06C103.519 69.86 125.059 70.99 136.659 71.74C148.259 72.49 159.919 76.19 161.189 77.89C162.719 79.95 168.589 93.98 169.249 97.47C169.799 100.38 170.999 118.58 170.819 119.59C170.639 120.59 167.319 123.95 166.929 123.77C166.539 123.59 169.059 111.28 164.089 109.91C154.739 107.32 155.529 130.09 155.189 130.92C155.029 131.33 144.789 135.78 133.659 140.9C122.029 146.26 109.469 152.28 108.999 151.86C108.099 151.07 112.279 124.38 102.009 124.04C87.4691 123.56 89.6191 155.63 88.7391 157.17C87.8591 158.71 68.2891 161.53 56.4091 160.3C44.5291 159.07 21.8991 151.66 16.3991 146.94C15.2391 145.95 14.1891 143.35 13.9091 141.83C13.6291 140.31 13.0591 125.25 13.4091 123.86H13.3991ZM164.359 90.33C164.479 89.61 160.909 79.92 158.989 78.58C157.529 77.56 152.799 76.58 150.599 76.17C150.139 76.08 149.789 76.6 150.009 77.04C150.909 78.79 152.649 82.24 153.379 83.97C154.379 86.35 156.019 92.62 156.019 92.62C156.019 92.62 164.229 91.06 164.349 90.33H164.359ZM138.759 94.56C138.859 95.31 139.529 95.82 140.229 95.67L152.309 93.15C153.009 93 153.449 92.25 153.259 91.52C152.409 88.21 150.139 79.77 148.109 76.32C147.919 75.99 147.589 75.76 147.229 75.71C142.559 75.02 138.169 74.87 135.849 74.85C135.009 74.85 134.409 75.71 134.659 76.56C135.339 78.84 136.539 82.88 137.169 85.25C137.839 87.76 138.459 92.28 138.749 94.56H138.759ZM109.149 99.69C108.939 100.45 109.559 101.08 110.559 101.2C112.469 101.63 117.889 100.74 118.799 100.53L134.439 96.82C135.209 96.64 135.739 95.88 135.669 95.04C135.499 92.94 135.159 89.06 134.829 86.81C134.469 84.39 133.269 79.06 132.489 76.47C132.109 75.21 131.269 74.85 130.479 74.98C128.629 75.29 125.159 75.92 122.459 77.89C115.549 82.96 109.099 99.32 109.149 99.69ZM51.3391 130.43C52.1991 130.79 60.9691 131.04 65.7191 130.83C70.4691 130.63 79.0291 129.77 80.4691 128.97C81.9091 128.17 86.6791 118.21 84.9591 116.21C81.7991 112.54 50.7291 124.5 49.3091 126.13C48.0591 127.55 50.4791 130.06 51.3391 130.42V130.43ZM66.1191 100.25C71.0991 100.47 95.7891 102.93 100.209 99.78C103.699 97.29 112.569 83.56 116.159 77.86C116.839 76.78 116.139 75.33 114.919 75.28C109.689 75.07 98.4691 74.66 93.5291 74.71C86.9691 74.78 80.7191 75.23 78.8991 75.71C70.5291 77.93 48.9691 96.99 49.2691 97.58C49.5691 98.18 61.1491 100.01 66.1291 100.24L66.1191 100.25Z" fill="#88DA09"/>
<path d="M54.9785 146.93C54.9785 146.93 44.5385 147.2 28.1285 141.97C19.2085 139.13 14.9785 136.31 14.9785 136.31C14.9785 136.31 15.7985 140.51 17.9985 142.53C20.4485 144.79 43.4885 152.99 49.1785 151.47C52.7885 150.51 54.9785 146.93 54.9785 146.93Z" fill="black"/>
<path d="M106.818 104.99C106.818 104.99 107.498 96.6497 110.678 94.2597C113.858 91.8697 123.088 92.3897 124.418 93.8797C125.748 95.3697 127.478 102.29 124.168 104.75C120.858 107.21 110.108 106.74 110.108 106.74L106.738 108.22L106.818 104.98V104.99Z" fill="#88DA09"/>
<path d="M111.873 146.498C113.334 135.249 110.425 125.598 105.376 124.942C100.326 124.286 95.0479 132.874 93.5869 144.123C92.1258 155.373 95.035 165.024 100.085 165.68C105.134 166.336 110.412 157.748 111.873 146.498Z" stroke="black" stroke-linecap="round" stroke-linejoin="round"/>
<path d="M106.574 145.83C107.373 139.863 106.298 134.796 104.174 134.512C102.05 134.228 99.6811 138.834 98.8829 144.801C98.0846 150.768 99.1593 155.835 101.283 156.119C103.407 156.404 105.776 151.797 106.574 145.83Z" stroke="black" stroke-linecap="round" stroke-linejoin="round"/>
<path d="M165.188 123.302C165.584 120.34 165.053 117.826 164.002 117.685C162.951 117.544 161.778 119.831 161.381 122.793C160.985 125.754 161.516 128.269 162.567 128.409C163.618 128.55 164.791 126.263 165.188 123.302Z" stroke="black" stroke-linecap="round" stroke-linejoin="round"/>
<path d="M168.88 123.922C169.817 117.021 168.065 111.086 164.968 110.665C161.87 110.245 158.6 115.499 157.663 122.4C156.726 129.301 158.478 135.236 161.575 135.656C164.673 136.077 167.943 130.823 168.88 123.922Z" stroke="black" stroke-linecap="round" stroke-linejoin="round"/>
<path d="M44.2891 128.84C44.2891 128.84 31.1591 129.15 23.1191 123.37" stroke="black" stroke-linecap="round" stroke-linejoin="round"/>
<path d="M100.189 165.69C100.189 165.69 87.8586 164.78 83.5586 159.58" stroke="black" stroke-linecap="round" stroke-linejoin="round"/>
<path d="M161.8 135.66C161.8 135.66 156.69 135.45 150.85 133.54" stroke="black" stroke-linecap="round" stroke-linejoin="round"/>
</svg>
