<svg width="274" height="184" viewBox="0 0 274 184" fill="none" xmlns="http://www.w3.org/2000/svg">
<g clip-path="url(#clip0_923_9255)">
<path d="M46.7942 59.2993C46.7942 59.2993 50.5476 57.3824 56.461 59.7789C62.3744 62.1753 60.9832 70.1115 60.4166 71.1499C59.8501 72.1883 59.3496 72.9409 59.9792 73.9736C60.6074 75.0063 61.2456 75.2751 60.791 76.1946C60.3363 77.1141 59.2148 77.2584 59.2148 77.2584C59.2148 77.2584 56.8397 82.5252 55.0512 82.4969C53.2627 82.4672 52.5298 82.2677 52.5298 82.2677L49.6584 86.1821C49.6584 86.1821 47.0754 84.9216 45.796 83.1151C44.5152 81.3086 44.3087 79.8006 44.3087 79.8006L30.6662 86.4339C30.6662 86.4339 26.9056 85.4578 25.8974 82.2974C24.8891 79.1371 25.6693 77.3631 25.6693 77.3631C25.6693 77.3631 20.8847 75.094 23.2928 69.1001C25.6995 63.1061 28.2581 62.0239 28.2581 62.0239C28.2581 62.0239 25.6536 57.2296 31.0764 53.6166C36.4993 50.005 43.5715 49.8253 45.7315 53.6166C47.8914 57.4079 46.7957 59.2979 46.7957 59.2979L46.7942 59.2993Z" fill="white"/>
<path d="M36.4547 166.507C36.4547 166.507 31.277 176.133 32.0845 177.172C32.892 178.21 42.3064 177.875 42.3064 177.875C42.3064 177.875 51.3392 178.589 50.9735 176.892C50.6077 175.194 45.5277 174.096 44.2612 172.877C42.9948 171.659 43.2587 169.083 43.2587 169.083L36.4547 166.507Z" fill="white"/>
<path d="M67.8662 168.163C67.8662 168.163 68.3252 176.863 70.6472 177.558C72.9692 178.253 89.6208 178.381 89.4587 177.398C88.9524 174.328 85.81 174.324 83.0749 172.212C80.3398 170.101 75.4261 166.665 75.4261 166.665L67.8662 168.162V168.163Z" fill="white"/>
<path d="M90.7602 66.4447C90.7602 66.4447 88.5787 63.3989 86.6525 64.6042C84.7264 65.8095 85.4349 70.4425 88.6849 71.1315C89.6056 72.6395 86.6841 80.539 86.6841 80.539C86.6841 80.539 88.8986 83.903 93.6488 84.4349C98.4004 84.9668 98.8321 82.5973 98.8321 82.5973V78.3632L90.7602 66.4419V66.4447Z" fill="white"/>
<path d="M148.483 97.7244C148.483 97.7244 148.429 91.3245 146.485 88.2405C144.542 85.1566 140.411 82.1872 140.087 82.7064C139.763 83.2256 142.129 88.0538 142.129 88.0538C142.129 88.0538 132.068 84.2229 131.421 84.8227C130.774 85.4225 132.715 86.9801 132.715 86.9801C132.715 86.9801 128.047 86.7269 128.101 87.819C128.156 88.9111 130.747 90.081 130.747 90.081C130.747 90.081 129.154 89.8165 129.181 91.0685C129.208 92.3204 136.282 94.1581 136.282 94.1581L140.17 97.566L148.486 97.7259L148.483 97.7244Z" fill="white"/>
<path d="M150.373 98.8009C150.373 98.8009 154.869 91.1985 158.507 88.8969C162.144 86.5938 183.911 82.7601 186.446 84.8368C188.98 86.9135 192.488 98.8023 193.3 103.096C194.11 107.389 196.165 114.821 193.977 120.466C191.788 126.112 152.048 123.129 152.048 123.129L150.374 98.8009H150.373Z" fill="white"/>
<path d="M199.858 109.189C199.858 109.189 198.426 106.062 196.23 104.257C194.035 102.452 192.082 100.835 191.516 101.217C190.949 101.599 192.756 104.515 192.756 104.515C192.756 104.515 184.185 101.414 183.861 102.504C183.537 103.595 187.908 105.311 187.908 105.311C187.908 105.311 182.646 104.428 182.16 105.809C181.674 107.19 184.347 109.108 185.562 109.547C182.282 109.946 181.998 110.545 183.132 111.185C184.267 111.824 196.051 114.819 198.036 113.721C200.021 112.623 199.858 109.187 199.858 109.187V109.189Z" fill="white"/>
<path d="M201.397 100.241C201.397 100.241 198.933 98.7105 196.805 95.4412C194.675 92.1719 193.08 86.7 193.715 86.1808C194.351 85.6617 195.93 88.4118 195.93 88.4118C195.93 88.4118 194.942 82.8918 195.619 82.2198C196.296 81.5478 197.978 84.7393 197.978 84.7393C197.978 84.7393 197.343 81.2607 198.094 80.8249C198.846 80.3892 200.06 84.2399 200.06 84.2399C200.06 84.2399 199.425 80.6693 200.654 80.5887C201.883 80.5081 203.867 89.2563 203.867 89.2563C203.867 89.2563 206.603 84.2527 207.44 85.69C208.276 87.1273 205.951 92.4704 205.951 92.4704L204.717 98.9623L201.397 100.241Z" fill="white"/>
<path d="M221.806 96.2065C221.806 96.2065 209.793 91.3599 208.577 95.6746C208.033 97.6056 212.735 98.6043 218.283 97.4853C214.516 99.5352 213.167 102.652 215.596 103.199C217.352 103.595 221.805 96.2065 221.805 96.2065H221.806Z" fill="white"/>
<path d="M235.603 79.164C235.603 79.164 238.491 77.274 237.925 73.5181C237.358 69.7636 235.63 69.3831 235.63 69.3831C235.63 69.3831 236.872 66.6089 235.413 64.5718C233.956 62.5347 232.214 63.4132 232.214 63.4132C232.214 63.4132 232.538 59.9784 229.38 59.578C226.221 59.1777 224.259 60.9955 224.259 60.9955C224.259 60.9955 223.548 58.4194 220.55 58.7788C217.554 59.1381 216.555 62.4441 216.555 62.4441C216.555 62.4441 215.107 60.4976 212.788 63.2137C210.468 65.9299 213.101 70.0041 213.101 70.0041C213.101 70.0041 213.425 74.4999 213.021 75.0884C212.616 75.6769 210.469 76.4351 210.307 77.1142C210.145 77.7932 211.198 79.7101 211.198 79.7101C211.198 79.7101 210.921 86.2614 214.258 87.3394C217.596 88.4173 219.499 87.5388 219.499 87.5388L221.322 89.5759L235.604 79.164H235.603Z" fill="white"/>
<path d="M228.137 124.965L264.76 124.246C264.76 124.246 266.729 132.715 264.298 136.016C261.869 139.318 242.809 138.679 242.809 138.679L232.118 139.584L238.423 170.187L225.612 171.258L217.81 153.445L207.118 172.338L195.896 169.772C195.896 169.772 207.162 132.956 214.804 129.121C222.446 125.286 228.137 124.965 228.137 124.965Z" fill="white"/>
<path d="M162.494 141.609L153.49 177.875" stroke="black" stroke-width="1.1097" stroke-linecap="round" stroke-linejoin="round"/>
<path d="M179.343 141.608L188.345 177.875" stroke="black" stroke-width="1.1097" stroke-linecap="round" stroke-linejoin="round"/>
<path d="M161.708 145.462L184.259 161.431" stroke="black" stroke-width="1.1097" stroke-linecap="round" stroke-linejoin="round"/>
<path d="M180.182 145.268L157.632 161.236" stroke="black" stroke-width="1.1097" stroke-linecap="round" stroke-linejoin="round"/>
<path d="M185.891 138.194H155.222C154.266 138.194 153.491 138.958 153.491 139.901V139.903C153.491 140.846 154.266 141.61 155.222 141.61H185.891C186.847 141.61 187.622 140.846 187.622 139.903V139.901C187.622 138.958 186.847 138.194 185.891 138.194Z" fill="white" stroke="black" stroke-width="1.1097" stroke-linecap="round" stroke-linejoin="round"/>
<path d="M226.641 171.143L238.42 170.189L239.172 177.875H216.311C216.311 177.875 215.946 176.743 217.427 175.432C218.909 174.121 226.037 173.228 226.641 171.143Z" fill="#C7C7C7"/>
<path d="M195.893 169.772C195.893 169.772 192.872 172.155 188.101 173.228C183.329 174.3 181.215 177.875 181.215 177.875H205.865L207.116 171.558L195.894 169.77L195.893 169.772Z" fill="#C7C7C7"/>
<path d="M137.553 104.041C66.4402 69.9264 165.71 17.1214 190.227 37.9013C202.776 48.5367 167.956 71.0072 141.296 72.262C97.4126 74.3274 77.3577 39.0514 110.37 17.1482C124.901 7.50591 148.473 9.01959 159.617 13.9058" stroke="#A2E52F" stroke-width="8.87763" stroke-miterlimit="10"/>
<path d="M92.2346 56.2068L104.34 61.0336C104.34 61.0336 104.134 74.9157 103.228 76.2271C102.322 77.5385 93.8553 75.8437 90.9366 73.2775C88.0179 70.7113 92.2332 56.2068 92.2332 56.2068H92.2346Z" fill="white"/>
<path d="M155.213 90.5946C148.762 85.6687 156.445 81.4742 157.074 79.9775C158.129 77.4693 155.276 73.1249 155.586 70.1867C155.895 67.2498 159.797 61.396 165.945 60.0902C170.846 59.0504 176.801 61.0083 178.414 65.8422C180.028 70.6761 179.655 72.7571 182.633 74.4703C185.61 76.1834 194.048 80.6509 189.208 85.7904" fill="white"/>
<path d="M116.556 170.564C116.556 170.564 117.301 177.359 118.308 177.875C119.315 178.391 139.049 177.875 139.049 177.875C139.049 177.875 139.935 176.286 138.365 174.498C136.794 172.71 127.34 169.7 127.34 169.7L116.556 170.563V170.564Z" fill="black"/>
<path d="M108.38 127.23H118.21C118.21 127.23 120.833 127.51 121.2 131.58C121.834 138.611 101.075 170.514 98.8592 171.335C96.6448 172.155 86.4961 170.369 86.4961 169.296C86.4961 168.224 98.8592 138.791 98.8592 138.791L108.38 127.231V127.23Z" fill="#C7C7C7"/>
<path d="M65.4586 127.388C65.4586 127.388 63.0949 136.697 73.2694 139.027C83.4439 141.357 100.876 139.622 100.876 139.622C100.876 139.622 101.6 145.104 106.353 154.161C111.105 163.218 112.958 170.209 118.032 171.002C123.106 171.797 126.891 171.24 128.261 168.46C129.631 165.679 119.965 137.656 117.488 132.949C114.96 128.144 108.382 127.23 108.382 127.23L65.4586 127.388Z" fill="#C7C7C7"/>
<path d="M104.341 63.1189C104.341 63.1189 104.087 70.0182 103.81 71.8346C103.377 75.8862 100.417 78.1553 97.1255 78.1553C94.0806 78.1553 89.1869 76.0843 89.3175 71.2772C84.5644 69.9064 85.1295 65.5946 86.6512 64.6043C88.1715 63.614 90.1163 66.3712 90.1163 66.3712" stroke="black" stroke-width="1.1097" stroke-linecap="round" stroke-linejoin="round"/>
<path d="M89.3151 71.2773L87.4248 79.2079" stroke="black" stroke-width="1.1097" stroke-linecap="round" stroke-linejoin="round"/>
<path d="M103.499 65.5622C103.499 65.5622 102.616 64.3357 101.153 64.7473C99.9768 65.0784 99.5594 66.5722 100.83 67.8454C102.16 69.1766 101.071 70.3678 99.9639 70.3678" stroke="black" stroke-width="1.1097" stroke-linecap="round" stroke-linejoin="round"/>
<path d="M98.0047 64.1022C98.0047 64.1022 97.1126 63.3015 95.7443 63.5363C94.5855 63.7343 94.082 64.2974 94.082 64.2974" stroke="black" stroke-width="1.1097" stroke-linecap="round" stroke-linejoin="round"/>
<path d="M96.9245 66.0167C96.9528 65.5621 96.6476 65.1736 96.2428 65.1491C95.8381 65.1245 95.4869 65.4731 95.4586 65.9278C95.4302 66.3824 95.7354 66.7709 96.1402 66.7954C96.545 66.82 96.8961 66.4714 96.9245 66.0167Z" fill="black"/>
<path d="M102.68 67.1376C102.709 66.6829 102.404 66.2945 101.999 66.2699C101.594 66.2453 101.243 66.594 101.214 67.0486C101.186 67.5033 101.491 67.8917 101.896 67.9163C102.301 67.9409 102.652 67.5922 102.68 67.1376Z" fill="black"/>
<path d="M101.172 55.7867C104.729 57.6003 106.402 60.2556 104.998 62.1654C104.174 63.2844 101.673 62.9845 99.9648 62.3521C98.2567 61.7198 95.0067 59.3276 93.7316 59.8482C92.4566 60.3688 92.4781 65.2904 90.1159 66.3712C90.1159 66.3712 88.6057 64.4741 87.2288 64.2803C87.2288 64.2803 86.6149 60.4876 88.2055 57.4107C89.6957 54.5262 94.9364 52.6065 101.174 55.7867H101.172Z" fill="black"/>
<mask id="mask0_923_9255" style="mask-type:luminance" maskUnits="userSpaceOnUse" x="59" y="79" width="62" height="44">
<path d="M64.79 122.702C64.79 122.702 59.3127 121.907 59.152 116.903C58.9914 111.898 66.24 85.6024 71.1523 82.1068C76.066 78.6111 86.939 79.2081 86.939 79.2081C86.939 79.2081 88.3288 83.1593 93.383 83.8539C98.0056 84.4891 98.486 81.8677 98.486 81.8677C98.486 81.8677 105.868 85.1865 109.17 90.3995C112.471 95.6125 113.6 111.263 113.6 111.263L120.849 114.838L116.5 122.703H64.7915L64.79 122.702Z" fill="white"/>
</mask>
<g mask="url(#mask0_923_9255)">
<path d="M64.791 122.702C64.791 122.702 59.3136 121.907 59.153 116.903C58.9924 111.898 66.241 85.6024 71.1533 82.1068C76.067 78.6111 86.94 79.2081 86.94 79.2081C86.94 79.2081 88.3297 83.1593 93.384 83.8539C98.0065 84.4891 98.487 81.8677 98.487 81.8677C98.487 81.8677 105.869 85.1865 109.171 90.3995C112.472 95.6125 113.601 111.263 113.601 111.263L120.85 114.838L116.501 122.703H64.7924L64.791 122.702Z" fill="#A6E82F"/>
<path d="M65.2354 76.823V124.549" stroke="white" stroke-width="1.1097" stroke-miterlimit="10"/>
<path d="M76.5908 76.823V124.549" stroke="white" stroke-width="1.1097" stroke-miterlimit="10"/>
<path d="M87.9482 76.823V124.549" stroke="white" stroke-width="1.1097" stroke-miterlimit="10"/>
<path d="M99.3027 76.823V124.549" stroke="white" stroke-width="1.1097" stroke-miterlimit="10"/>
<path d="M110.658 76.823V124.549" stroke="white" stroke-width="1.1097" stroke-miterlimit="10"/>
<path d="M66.2012 86.1189H115.734" stroke="white" stroke-width="1.1097" stroke-miterlimit="10"/>
<path d="M61.6104 96.6042H117.427" stroke="white" stroke-width="1.1097" stroke-miterlimit="10"/>
<path d="M54.7227 107.09H117.426" stroke="white" stroke-width="1.1097" stroke-miterlimit="10"/>
<path d="M54.7227 117.576H126.366" stroke="white" stroke-width="1.1097" stroke-miterlimit="10"/>
</g>
<path d="M89.6372 122.702C89.6372 122.702 89.5167 119.574 91.4501 118.144C93.3835 116.713 100.196 116.879 102.094 117.245C107.367 118.262 109.15 122.702 109.15 122.702H89.6387H89.6372Z" fill="white"/>
<path d="M166.508 95.8896H128.782C127.798 95.8896 126.893 96.4216 126.426 97.276L113.77 120.379H94.1065C92.8056 120.379 91.75 121.419 91.75 122.703H154.056L167.68 97.8334C168.161 96.9563 167.517 95.8911 166.505 95.8911L166.508 95.8896Z" fill="#C7C7C7"/>
<path d="M115.5 121.034L128.156 97.931C128.623 97.078 129.528 96.5447 130.512 96.5447H168.238C169.25 96.5447 169.892 97.6099 169.413 98.487L156.571 121.034" stroke="black" stroke-width="1.1097" stroke-linecap="round" stroke-linejoin="round"/>
<path d="M143.449 112.143C145.177 110.861 145.981 109.041 145.246 108.077C144.511 107.113 142.515 107.37 140.787 108.652C139.06 109.933 138.255 111.754 138.99 112.718C139.726 113.682 141.722 113.425 143.449 112.143Z" stroke="white" stroke-width="1.1097" stroke-miterlimit="10"/>
<path d="M76.6636 106.913C76.6636 106.913 75.0644 116.862 70.9711 116.207C68.7366 115.849 69.7836 111.896 79.2868 114.519C88.7915 117.141 90.6431 117.936 90.6431 117.936" stroke="black" stroke-width="1.1097" stroke-linecap="round" stroke-linejoin="round"/>
<path d="M105.645 97.9153L102.806 116.743" stroke="black" stroke-width="1.1097" stroke-linecap="round" stroke-linejoin="round"/>
<path d="M89.4248 122.017C90.6425 115.493 100.087 116.578 103.228 117.301C106.719 118.104 107.799 120.379 107.799 120.379" stroke="black" stroke-width="1.1097" stroke-linecap="round" stroke-linejoin="round"/>
<path d="M96.8438 119.206C96.8438 119.206 99.7839 119.404 100.871 120.08" stroke="black" stroke-width="1.1097" stroke-linecap="round" stroke-linejoin="round"/>
<path d="M99.583 118.134C99.583 118.134 104.214 118.769 105.644 120.08" stroke="black" stroke-width="1.1097" stroke-linecap="round" stroke-linejoin="round"/>
<path d="M0.355469 177.875H273.638" stroke="black" stroke-width="1.1097" stroke-linecap="round" stroke-linejoin="round"/>
<path d="M75.0178 141.608L66.0137 177.875" stroke="black" stroke-width="1.1097" stroke-linecap="round" stroke-linejoin="round"/>
<path d="M91.8682 141.608L100.871 177.875" stroke="black" stroke-width="1.1097" stroke-linecap="round" stroke-linejoin="round"/>
<path d="M74.2305 145.462L96.781 161.431" stroke="black" stroke-width="1.1097" stroke-linecap="round" stroke-linejoin="round"/>
<path d="M92.7048 145.268L70.1543 161.236" stroke="black" stroke-width="1.1097" stroke-linecap="round" stroke-linejoin="round"/>
<path d="M98.4131 138.194H67.7448C66.7887 138.194 66.0137 138.958 66.0137 139.901V139.903C66.0137 140.846 66.7887 141.61 67.7448 141.61H98.4131C99.3692 141.61 100.144 140.846 100.144 139.903V139.901C100.144 138.958 99.3692 138.194 98.4131 138.194Z" fill="white" stroke="black" stroke-width="1.1097" stroke-linecap="round" stroke-linejoin="round"/>
<path d="M110.914 94.6265C110.914 94.6265 113.559 109.038 113.599 111.261C113.639 113.485 108.682 113.999 108.404 112.89C108.077 111.591 111.07 110.649 117.368 113.12" stroke="black" stroke-width="1.1097" stroke-linecap="round" stroke-linejoin="round"/>
<path d="M45.1819 61.0607C45.1819 61.0607 47.7233 59.5428 46.0252 55.0767C44.7573 51.7395 40.347 49.8934 34.5326 51.9192C30.0707 53.4739 27.2682 56.2551 27.687 60.7424C28.1058 65.2297 34.2487 64.0131 33.8198 61.6336C33.3924 59.2542 27.6956 60.956 24.9232 65.5041C20.6549 72.5067 23.6123 78.1286 27.3428 77.0096C31.0733 75.8906 29.9918 72.7515 28.0714 73.2296C26.1509 73.7078 24.6479 79.2136 25.8957 82.3004C27.142 85.3858 28.6752 85.5938 28.6752 85.5938" stroke="black" stroke-width="1.1097" stroke-linecap="round" stroke-linejoin="round"/>
<path d="M46.4139 76.7664C46.4139 76.7664 40.4188 72.5224 41.9047 66.4366C43.5756 59.5939 50.305 57.66 55.3148 59.8089C61.4017 62.4203 61.2067 68.6901 61.2067 68.6901C60.9313 70.4259 59.6634 71.3511 59.6003 72.5889C59.5214 74.1493 61.2827 75.1707 60.785 76.1935C60.5111 76.7565 59.2705 76.956 59.2705 76.956C59.2705 76.956 58.473 81.6314 55.4626 82.4236C53.7888 82.8636 51.6417 81.5268 50.0583 78.9507" stroke="black" stroke-width="1.1097" stroke-linecap="round" stroke-linejoin="round"/>
<path d="M60.5224 65.1716C58.4571 69.7749 52.9539 69.7891 52.0934 67.8552C51.2329 65.9214 53.6194 65.7333 54.1429 68.2782C54.6664 70.8218 51.2113 72.7372 51.2113 72.7372C51.2113 72.7372 51.6158 68.8738 48.9825 69.1879C46.3493 69.5019 45.767 73.7516 49.0327 75.336" stroke="black" stroke-width="1.1097" stroke-linecap="round" stroke-linejoin="round"/>
<path d="M47.5795 75.3755C47.5795 75.3755 46.3762 77.9686 44.3037 79.8005C44.3037 79.8005 46.3963 86.6716 50.0794 85.96L52.5248 81.6835" stroke="black" stroke-width="1.1097" stroke-linecap="round" stroke-linejoin="round"/>
<path d="M59.7338 69.4441C59.7338 69.4441 58.737 68.8711 56.458 69.9265" stroke="black" stroke-width="1.1097" stroke-linecap="round" stroke-linejoin="round"/>
<path d="M58.1787 72.4121C58.2834 72.0329 58.1397 71.6641 57.8577 71.5883C57.5757 71.5126 57.2621 71.7585 57.1574 72.1377C57.0527 72.5168 57.1964 72.8857 57.4784 72.9614C57.7604 73.0372 58.0739 72.7913 58.1787 72.4121Z" fill="black"/>
<path d="M56.0889 76.7366C56.0889 76.7366 56.4532 78.2743 57.6077 78.6223" stroke="black" stroke-width="1.1097" stroke-linecap="round" stroke-linejoin="round"/>
<path d="M43.8447 80.8123C43.6425 80.1785 42.9942 79.7895 42.3287 79.8942C40.0168 80.2549 34.9051 81.4121 31.4027 84.8667C26.7515 89.4544 17.5895 107.37 18.5562 113.566C19.5229 119.762 32.2087 121.337 37.6847 121.57C43.162 121.803 43.6855 117.141 45.5371 114.282C47.3902 111.421 49.9675 100.538 50.4508 97.9169C50.8338 95.8416 50.2185 90.05 49.946 87.7271C49.8814 87.1825 49.4899 86.7355 48.9549 86.5813C47.6412 86.2007 45.1657 84.9459 43.8433 80.8137L43.8447 80.8123Z" fill="black"/>
<path d="M86.1903 29.7515H60.07C57.7235 29.7515 55.555 30.9865 54.3818 32.991L47.9793 43.9292C46.8893 45.7923 48.2518 48.1208 50.4333 48.1208H67.3846L67.1494 51.3576C67.1106 51.898 67.7274 52.2389 68.1734 51.922L73.5332 48.1208H76.5522C78.8987 48.1208 81.0672 46.8858 82.2404 44.8813L88.6429 33.9431C89.7329 32.08 88.3704 29.7515 86.1889 29.7515H86.1903Z" fill="#A6E82F"/>
<path d="M239.123 32.3078H213.65C211.361 32.3078 209.247 33.5117 208.102 35.4667L201.857 46.1347C200.795 47.9511 202.123 50.2231 204.25 50.2231H220.781L220.551 53.3792C220.513 53.9069 221.115 54.2379 221.551 53.9295L226.779 50.2217H229.723C232.012 50.2217 234.126 49.0178 235.271 47.0627L241.516 36.3948C242.578 34.5783 241.25 32.3064 239.123 32.3064V32.3078Z" fill="#A6E82F"/>
<path d="M18.7176 116.991C18.7176 116.991 9.89845 129.612 17.9933 136.882C26.0881 144.151 53.1508 140.934 53.1508 140.934C53.1508 140.934 63.43 169.212 67.0443 169.701C71.0917 170.248 76.2263 167.269 76.2263 167.269C76.2263 167.269 70.6686 137.319 65.9055 130.751C62.0244 125.399 40.1021 122.702 40.1021 122.702L37.6854 121.57L18.7176 116.991Z" fill="#A6E82F"/>
<path d="M47.2332 139.385C47.2332 139.385 34.9705 163.336 36.3 167.269C36.9741 169.264 43.7308 170.844 43.7308 170.844L59.7986 148.798L56.2947 137.478L47.2332 139.385Z" fill="#A6E82F"/>
<path d="M124.355 14.0046H94.4026C91.712 14.0046 89.225 15.4207 87.8797 17.7195L80.5378 30.2633C79.2872 32.3995 80.8505 35.0704 83.3518 35.0704H113.304C115.995 35.0704 118.482 33.6543 119.827 31.3555L127.169 18.8117C128.42 16.6755 126.857 14.0046 124.355 14.0046Z" fill="white" stroke="black" stroke-width="1.1097" stroke-linecap="round" stroke-linejoin="round"/>
<path d="M91.4512 19.9082H121.831" stroke="black" stroke-width="1.1097" stroke-linecap="round" stroke-linejoin="round"/>
<path d="M106.993 24.9019H119.124" stroke="black" stroke-width="1.1097" stroke-linecap="round" stroke-linejoin="round"/>
<path d="M88.7451 24.9019H99.423" stroke="black" stroke-width="1.1097" stroke-linecap="round" stroke-linejoin="round"/>
<path d="M63.461 40.7126C65.1081 39.4905 65.8752 37.7548 65.1743 36.8357C64.4734 35.9166 62.5699 36.1622 60.9228 37.3842C59.2757 38.6063 58.5086 40.342 59.2095 41.2611C59.9104 42.1802 61.8138 41.9346 63.461 40.7126Z" stroke="black" stroke-width="1.1097" stroke-linecap="round" stroke-linejoin="round"/>
<path d="M75.8213 40.7118C77.4684 39.4898 78.2355 37.7541 77.5346 36.835C76.8337 35.9159 74.9303 36.1615 73.2832 37.3835C71.636 38.6055 70.869 40.3413 71.5699 41.2603C72.2708 42.1794 74.1742 41.9339 75.8213 40.7118Z" stroke="black" stroke-width="1.1097" stroke-linecap="round" stroke-linejoin="round"/>
<path d="M212.021 38.5959H233.825" stroke="black" stroke-width="1.1097" stroke-linecap="round" stroke-linejoin="round"/>
<path d="M209.285 43.178H231.09" stroke="black" stroke-width="1.1097" stroke-linecap="round" stroke-linejoin="round"/>
<path d="M68.3147 170.248C68.3147 170.248 68.2545 175.908 70.0057 177.398" stroke="black" stroke-width="1.1097" stroke-linecap="round" stroke-linejoin="round"/>
<path d="M80.5176 170.844C80.5176 170.844 84.2825 172.925 86.8196 174.057C89.3568 175.188 89.4572 177.398 89.4572 177.398" stroke="black" stroke-width="1.1097" stroke-linecap="round" stroke-linejoin="round"/>
<path d="M108.524 176.088C107.88 174.618 98.8583 171.335 98.8583 171.335L87.3342 169.907C87.3342 169.907 86.9025 171.212 86.4521 172.761C87.2195 173.079 89.1715 173.944 90.0593 174.867C90.7692 175.606 90.9671 177.16 91.0173 178.196C97.8314 178.279 108.524 177.876 108.524 177.876C108.524 177.876 109.168 177.558 108.524 176.088Z" fill="black"/>
<path d="M35.7522 168.501C35.7522 168.501 31.8855 175.135 32.0877 176.326" stroke="black" stroke-width="1.1097" stroke-linecap="round" stroke-linejoin="round"/>
<path d="M43.6064 171.335C43.6064 171.335 43.8072 173.03 46.0633 173.825C48.3179 174.62 51.7415 175.732 50.8149 177.876" stroke="black" stroke-width="1.1097" stroke-linecap="round" stroke-linejoin="round"/>
<path d="M49.89 92.3147L57.665 107.529L68.254 100.936L71.1425 106.439C71.1425 106.439 61.4284 121.332 57.2003 122.017C52.9722 122.702 44.7568 110.845 44.7568 110.845L49.8914 92.3147H49.89Z" fill="black"/>
<path d="M164.36 162.98C164.36 162.98 167.743 167.269 167.984 168.581C168.225 169.892 161.159 177.398 161.159 177.398H150.346C150.346 177.398 150.226 175.909 151.433 174.896C152.641 173.883 155.42 172.751 155.42 172.751L156.024 167.805L164.36 162.979V162.98Z" fill="#A6E82F"/>
<path d="M141.405 170.725C141.405 170.725 140.499 177.875 139.774 177.875C139.05 177.875 119.659 177.875 119.659 177.875C119.659 177.875 119.86 176.286 120.887 175.333C121.914 174.379 127.833 172.117 128.579 171.797C130.492 170.977 131.256 169.701 131.256 169.701L141.405 170.725Z" fill="#A6E82F"/>
<path d="M131.259 169.701L147.509 174.598L159.169 139.226C159.169 139.226 182.397 139.637 185.344 138.922C191.303 137.478 190.767 127.23 190.767 127.23H149.119C149.119 127.23 145.736 128.819 144.206 133.029C142.675 137.239 131.259 169.701 131.259 169.701Z" fill="black"/>
<path d="M140.17 127.23C140.17 127.23 135.981 128.359 135.486 132.89C134.782 139.345 150.343 172.512 150.343 172.512L164.362 162.979L150.343 136.404V127.229H140.17V127.23Z" fill="black"/>
<path d="M152.705 95.1737C152.705 95.1737 155.545 90.7642 157.296 89.6325C159.047 88.5008 164.304 87.4285 164.304 87.4285" stroke="black" stroke-width="1.1097" stroke-linecap="round" stroke-linejoin="round"/>
<path d="M180.126 85.8201C180.126 85.8201 182.333 83.5015 185.905 85.1468C190.455 87.2419 192.752 100.656 192.752 100.656" stroke="black" stroke-width="1.1097" stroke-linecap="round" stroke-linejoin="round"/>
<path d="M157.809 117.518L165.238 116.624" stroke="black" stroke-width="1.1097" stroke-linecap="round" stroke-linejoin="round"/>
<path d="M158.169 121.958L160.586 120.11" stroke="black" stroke-width="1.1097" stroke-linecap="round" stroke-linejoin="round"/>
<path d="M161.523 122.077L163.335 121.034" stroke="black" stroke-width="1.1097" stroke-linecap="round" stroke-linejoin="round"/>
<path d="M168.41 83.7349C165.672 84.8865 162.128 84.728 159.994 81.8676C157.86 79.0071 158.937 71.4203 158.937 71.4203C158.937 71.4203 160.004 67.2301 162.198 66.0078" stroke="black" stroke-width="1.1097" stroke-linecap="round" stroke-linejoin="round"/>
<path d="M164.744 84.4041L164.3 87.4286C164.3 87.4286 164.12 92.312 170.098 89.4855" stroke="black" stroke-width="1.1097" stroke-linecap="round" stroke-linejoin="round"/>
<path d="M162.912 63.238C162.912 63.238 161.303 65.1591 162.912 67.6475C164.522 70.1359 169.087 70.3807 170.774 72.1759C171.646 73.1053 172.337 75.3928 171.611 77.4186C170.887 79.4444 167.906 81.7758 170.181 84.2146C172.456 86.6535 175.356 85.2233 174.51 83.7336C173.664 82.244 167.221 89.173 171.61 91.9557C174.993 94.1003 180.128 85.8189 180.128 85.8189" stroke="black" stroke-width="1.1097" stroke-linecap="round" stroke-linejoin="round"/>
<path d="M155.213 90.5946C148.762 85.6687 156.445 81.4742 157.074 79.9775C158.129 77.4693 155.276 73.1249 155.586 70.1867C155.895 67.2498 159.797 61.396 165.945 60.0902C170.846 59.0504 176.801 61.0083 178.414 65.8422C180.028 70.6761 179.655 72.7571 182.633 74.4703C185.61 76.1834 194.048 80.6509 189.208 85.7904" stroke="black" stroke-width="1.1097" stroke-linecap="round" stroke-linejoin="round"/>
<path d="M159.619 71.2928C159.619 71.2928 160.767 70.1201 162.397 70.8642C164.028 71.6083 163.817 73.6044 163.132 74.7375C162.655 75.5241 161.385 76.5554 163.535 77.7748" stroke="black" stroke-width="1.1097" stroke-linecap="round" stroke-linejoin="round"/>
<path d="M165.449 70.6676C165.449 70.6676 165.806 69.983 167.923 70.5927" stroke="black" stroke-width="1.1097" stroke-linecap="round" stroke-linejoin="round"/>
<path d="M162.775 79.6692C162.775 79.6692 163.646 80.3185 164.922 79.8786C166.317 79.399 166.507 78.6096 166.507 78.6096" stroke="black" stroke-width="1.1097" stroke-linecap="round" stroke-linejoin="round"/>
<path d="M167.2 74.2384C167.551 74.2384 167.835 73.9078 167.835 73.4999C167.835 73.0921 167.551 72.7615 167.2 72.7615C166.849 72.7615 166.564 73.0921 166.564 73.4999C166.564 73.9078 166.849 74.2384 167.2 74.2384Z" fill="black"/>
<path d="M161.403 74.3783C161.754 74.3783 162.038 74.0477 162.038 73.6398C162.038 73.232 161.754 72.9014 161.403 72.9014C161.052 72.9014 160.768 73.232 160.768 73.6398C160.768 74.0477 161.052 74.3783 161.403 74.3783Z" fill="black"/>
<path d="M181.255 95.8896C181.255 95.8896 180.611 110.405 182.866 113.455C185.12 116.506 187.296 114.361 184.236 112.295C181.175 110.23 165.711 115.95 165.711 115.95C165.711 115.95 169.175 117.797 168.409 121.958" stroke="black" stroke-width="1.1097" stroke-linecap="round" stroke-linejoin="round"/>
<path d="M192.752 122.383C192.752 122.383 194.545 121.986 195.189 116.624" stroke="black" stroke-width="1.1097" stroke-linecap="round" stroke-linejoin="round"/>
<path d="M261.153 126.595C261.153 126.595 263.972 133.586 260.347 135.572C256.722 137.559 231.754 133.349 229.499 137.479C227.457 141.22 235.701 168.701 235.701 168.701" stroke="#A6E82F" stroke-width="1.1097" stroke-linejoin="round"/>
<path d="M254.466 129.137C254.466 129.137 228.774 128.66 224.746 133.109C220.719 137.558 231.915 168.699 231.915 168.699" stroke="#A6E82F" stroke-width="1.1097" stroke-linejoin="round"/>
<path d="M231.997 127.865C231.997 127.865 220.238 127.865 217.741 133.029C215.244 138.192 228.453 168.699 228.453 168.699" stroke="#A6E82F" stroke-width="1.1097" stroke-linejoin="round"/>
<path d="M214.801 146.932L204.817 168.7" stroke="#A6E82F" stroke-width="1.1097" stroke-linejoin="round"/>
<path d="M212.273 138.908L199.46 168.7" stroke="#A6E82F" stroke-width="1.1097" stroke-linejoin="round"/>
<path d="M264.879 126.277C264.879 126.277 267.113 135.333 263.006 138.073C258.898 140.814 231.996 139.086 231.996 139.086L238.178 168.699" stroke="black" stroke-width="1.1097" stroke-linecap="round" stroke-linejoin="round"/>
<path d="M218.425 127.865C218.425 127.865 213.351 129.076 212.928 134.081C212.505 139.086 226.037 170.128 226.037 170.128" stroke="black" stroke-width="1.1097" stroke-linecap="round" stroke-linejoin="round"/>
<path d="M207.116 170.725L217.428 152.552" stroke="black" stroke-width="1.1097" stroke-linecap="round" stroke-linejoin="round"/>
<path d="M196.318 168.7C196.318 168.7 207.191 132.682 214.803 129.122" stroke="black" stroke-width="1.1097" stroke-linecap="round" stroke-linejoin="round"/>
<path d="M199.46 99.2665L201.393 103.08C201.393 103.08 202.118 106.894 205.018 113.011C207.918 119.128 210.994 122.565 217.43 122.078C223.865 121.591 230.309 118.572 230.309 118.572C230.309 118.572 231.115 126.357 233.773 127.231C236.43 128.106 261.56 128.264 264.782 124.968C268.004 121.67 255.278 99.2679 251.976 95.1767C248.674 91.0855 243.257 86.5373 243.257 86.5373C243.257 86.5373 245.532 84.6106 244.607 81.5521C243.726 78.6421 239.252 78.0565 236.271 78.6124C233.291 79.1684 221.612 87.2715 220.484 89.337C219.357 91.4024 223.304 103.796 223.304 103.796L220.364 107.63L209.531 99.1887L206.773 95.8911L199.464 99.2679L199.46 99.2665Z" fill="#A6E82F"/>
<path d="M222.898 97.8362L211.944 110.401L199.309 108.163L196.802 114.509L201.312 117.936C201.312 117.936 207.039 122.712 215.166 122.702C223.292 122.692 233.207 115.154 233.207 115.154L222.898 97.8362Z" fill="#A6E82F"/>
<path d="M228.334 122.702H50.8954C49.628 122.702 48.6006 123.715 48.6006 124.965V124.967C48.6006 126.217 49.628 127.23 50.8954 127.23H228.334C229.601 127.23 230.629 126.217 230.629 124.967V124.965C230.629 123.715 229.601 122.702 228.334 122.702Z" fill="white" stroke="black" stroke-width="1.1097" stroke-linecap="round" stroke-linejoin="round"/>
<path d="M194.43 127.23L207.116 177.875H203.451L190.766 127.23H194.43Z" fill="#F3F3F3" stroke="black" stroke-width="1.1097" stroke-linecap="round" stroke-linejoin="round"/>
<path d="M228.693 172.543C228.693 172.543 225.823 169.832 223.286 171.322C220.749 172.812 225.884 175.761 226.941 174.837C227.998 173.914 223.557 172.093 220.477 172.945" stroke="black" stroke-width="1.1097" stroke-linecap="round" stroke-linejoin="round"/>
<path d="M196.566 171.441C196.566 171.441 193.696 168.731 191.159 170.22C188.622 171.71 193.757 174.659 194.814 173.736C195.871 172.812 191.43 170.991 188.35 171.843" stroke="black" stroke-width="1.1097" stroke-linecap="round" stroke-linejoin="round"/>
<path d="M49.9533 168.603C49.9533 168.603 45.9805 168.595 45.1859 171.4C44.3914 174.205 50.1713 172.844 50.2904 171.457C50.4094 170.069 45.9217 171.774 44.2881 174.485" stroke="black" stroke-width="1.1097" stroke-linecap="round" stroke-linejoin="round"/>
<path d="M85.4563 168.394C85.4563 168.394 81.4834 168.385 80.6889 171.191C79.8943 173.996 85.6743 172.635 85.7933 171.247C85.9124 169.859 81.4246 171.564 79.791 174.276" stroke="black" stroke-width="1.1097" stroke-linecap="round" stroke-linejoin="round"/>
<path d="M220.659 96.307C220.659 96.307 209.786 93.0094 209.182 95.5317C208.578 98.0555 220.237 96.9025 220.237 96.9025C220.237 96.9025 214.256 100.299 215.405 102.206C216.552 104.113 220.66 96.307 220.66 96.307H220.659Z" stroke="black" stroke-width="1.1097" stroke-linecap="round" stroke-linejoin="round"/>
<path d="M213.623 69.7624C213.623 69.7624 210.935 65.8197 213.19 63.2776C215.445 60.7354 218.868 63.2776 217.741 64.9455C216.613 66.6134 216.179 60.6704 219.432 59.4637C224.143 57.7165 225.19 64.4291 223.862 64.6668C222.533 64.9044 222.765 60.4384 226.64 59.8173C233.205 58.7676 232.601 66.6119 230.425 66.5723C228.251 66.5327 231.276 62.7273 234.394 64.248C238.057 66.0362 235.016 72.2522 232.842 72.0131C230.668 71.7755 234.99 67.663 236.909 71.2789C240.319 77.7029 230.748 82.0629 228.574 81.8846C226.399 81.7064 225.734 80.0286 225.734 80.0286C225.734 80.0286 229.238 80.4544 229.781 77.1172C230.325 73.78 227.607 72.4969 225.674 73.4971C223.74 74.4958 223.68 77.2969 223.68 77.2969C223.68 77.2969 220.196 76.1849 221.203 72.927C222.21 69.6704 223.217 71.2987 221.927 73.1646C220.638 75.032 216.49 71.3765 218.223 69.0735C219.954 66.769 219.592 70.3848 216.773 70.7413C213.953 71.0992 213.772 68.2982 213.772 68.2982" stroke="black" stroke-width="1.1097" stroke-linecap="round" stroke-linejoin="round"/>
<path d="M213.655 70.229C213.655 70.229 213.366 70.7383 213.372 72.136C213.378 73.661 213.635 74.34 213.176 75.5722C213.039 75.9386 210.654 76.387 210.654 77.2203C210.654 78.0535 211.661 79.5445 211.661 79.5445C211.661 79.5445 211.328 84.718 213.412 86.6546C215.496 88.5913 219.664 86.8923 219.664 86.8923L220.751 88.4116" stroke="black" stroke-width="1.1097" stroke-linecap="round" stroke-linejoin="round"/>
<path d="M212.785 81.965C212.785 81.965 214.577 82.5874 215.724 80.7993" stroke="black" stroke-width="1.1097" stroke-linecap="round" stroke-linejoin="round"/>
<path d="M214.258 71.7881C214.258 71.7881 216.039 70.8346 217.519 73.0995" stroke="black" stroke-width="1.1097" stroke-linecap="round" stroke-linejoin="round"/>
<path d="M215.451 75.9204C215.818 75.9204 216.116 75.5473 216.116 75.0871C216.116 74.627 215.818 74.2539 215.451 74.2539C215.083 74.2539 214.785 74.627 214.785 75.0871C214.785 75.5473 215.083 75.9204 215.451 75.9204Z" fill="black"/>
<path d="M239.628 141.608L236.308 154.987" stroke="black" stroke-width="1.1097" stroke-linecap="round" stroke-linejoin="round"/>
<path d="M256.479 141.608L265.483 177.875" stroke="black" stroke-width="1.1097" stroke-linecap="round" stroke-linejoin="round"/>
<path d="M238.844 145.462L261.394 161.431" stroke="black" stroke-width="1.1097" stroke-linecap="round" stroke-linejoin="round"/>
<path d="M257.318 145.268L237.301 159.442" stroke="black" stroke-width="1.1097" stroke-linecap="round" stroke-linejoin="round"/>
<path d="M263.026 138.193H232.358C231.402 138.193 230.627 138.958 230.627 139.901V139.902C230.627 140.845 231.402 141.61 232.358 141.61H263.026C263.982 141.61 264.758 140.845 264.758 139.902V139.901C264.758 138.958 263.982 138.193 263.026 138.193Z" fill="white" stroke="black" stroke-width="1.1097" stroke-linecap="round" stroke-linejoin="round"/>
<path d="M22.9031 141.609L13.9004 177.875" stroke="black" stroke-width="1.1097" stroke-linecap="round" stroke-linejoin="round"/>
<path d="M39.751 141.609L48.7551 177.875" stroke="black" stroke-width="1.1097" stroke-linecap="round" stroke-linejoin="round"/>
<path d="M22.1133 145.462L44.6638 161.431" stroke="black" stroke-width="1.1097" stroke-linecap="round" stroke-linejoin="round"/>
<path d="M40.5901 145.268L18.0381 161.236" stroke="black" stroke-width="1.1097" stroke-linecap="round" stroke-linejoin="round"/>
<path d="M46.2989 138.194H15.6305C14.6745 138.194 13.8994 138.958 13.8994 139.901V139.903C13.8994 140.846 14.6745 141.61 15.6305 141.61H46.2989C47.255 141.61 48.03 140.846 48.03 139.903V139.901C48.03 138.958 47.255 138.194 46.2989 138.194Z" fill="white" stroke="black" stroke-width="1.1097" stroke-linecap="round" stroke-linejoin="round"/>
<path d="M86.9778 127.23L74.292 177.875H77.9579L90.6423 127.23H86.9778Z" fill="#F3F3F3" stroke="black" stroke-width="1.1097" stroke-linecap="round" stroke-linejoin="round"/>
<path d="M100.874 141.608L107.955 157.341" stroke="black" stroke-width="1.1097" stroke-linecap="round" stroke-linejoin="round"/>
<path d="M111.834 128.226C111.834 128.226 115.273 129.806 116.923 132.034C118.572 134.261 119.166 136.841 119.166 136.841" stroke="black" stroke-width="1.1097" stroke-linecap="round" stroke-linejoin="round"/>
<path d="M69.1057 128.226C69.1057 128.226 68.3728 131.007 70.3864 132.754C72.4001 134.502 82.4685 134.741 82.4685 134.741" stroke="white" stroke-width="1.1097" stroke-linecap="round" stroke-linejoin="round"/>
<path d="M90.6426 135.096C90.6426 135.096 98.5596 136.884 103.853 135.691C109.147 134.5 106.075 129.358 104.223 133.01C100.87 139.624 117.946 168.939 117.946 168.939" stroke="white" stroke-width="1.1097" stroke-linecap="round" stroke-linejoin="round"/>
<path d="M101.778 148.74L96.7822 157.081" stroke="white" stroke-width="1.1097" stroke-linecap="round" stroke-linejoin="round"/>
<path d="M94.5898 161.431L91.0859 168.163" stroke="white" stroke-width="1.1097" stroke-linecap="round" stroke-linejoin="round"/>
<path d="M139.796 145.462C139.796 145.462 144.527 130.526 147.618 128.226" stroke="white" stroke-width="1.1097" stroke-linecap="round" stroke-linejoin="round"/>
<path d="M155.787 149.476L149.45 168.699" stroke="white" stroke-width="1.1097" stroke-linecap="round" stroke-linejoin="round"/>
<path d="M49.4668 140.874C49.4668 140.874 55.1249 139.901 55.3242 138.194C55.6226 135.641 52.8788 137.717 53.1514 140.934C53.4239 144.151 57.1385 151.003 57.1385 151.003" stroke="black" stroke-width="1.1097" stroke-linecap="round" stroke-linejoin="round"/>
<path d="M34.7869 84.3304C28.6168 85.2966 15.8392 107.544 17.5201 114.586C19.2011 121.629 41.6283 121.032 52.5242 116.148C51.7009 114.599 52.5242 110.428 52.5242 110.428L34.9476 106.913C34.9476 106.913 50.01 81.9481 34.7869 84.3304Z" fill="black"/>
<path d="M41.0771 92.9429C41.0771 92.9429 36.4603 108.227 32.9163 108.909C30.5899 109.356 31.8951 105.959 37.2993 106.913C42.7021 107.866 51.689 110.26 51.689 110.26" stroke="white" stroke-width="1.1097" stroke-linecap="round" stroke-linejoin="round"/>
<path d="M50.5741 95.8896C50.5741 95.8896 50.392 102.861 48.6006 107.568" stroke="white" stroke-width="1.1097" stroke-linecap="round" stroke-linejoin="round"/>
<path d="M203.647 109.912C203.647 109.912 207.483 120.1 212.29 122.077" stroke="black" stroke-width="1.1097" stroke-linecap="round" stroke-linejoin="round"/>
<path d="M217.096 105.502C217.096 105.502 223.5 112.254 220.66 112.612C218.863 112.839 219.181 108.729 223.297 103.795C225.915 100.657 232.974 90.1306 239.17 89.8123" stroke="black" stroke-width="1.1097" stroke-linecap="round" stroke-linejoin="round"/>
<path d="M228.85 119.192C228.85 119.192 240.374 111.987 244.481 108.923" stroke="black" stroke-width="1.1097" stroke-linecap="round" stroke-linejoin="round"/>
<path d="M237.973 115.234L243.919 118.65L246.98 126.276" stroke="black" stroke-width="1.1097" stroke-linecap="round" stroke-linejoin="round"/>
<path d="M24.1982 120.874C24.1982 120.874 20.0103 129.772 24.1982 132.631C28.3862 135.492 54.7992 132.075 59.1507 133.982C63.5021 135.889 68.9781 165.944 68.9781 165.944" stroke="black" stroke-width="1.1097" stroke-linecap="round" stroke-linejoin="round"/>
<path d="M25 129.554C25 129.554 30.1948 127.887 30.6179 121.75" stroke="black" stroke-width="1.1097" stroke-linecap="round" stroke-linejoin="round"/>
<path d="M205.824 95.3109C205.824 95.3109 205.817 94.1085 205.947 92.4717C206.079 90.8349 207.8 86.5075 207.568 85.919C206.868 84.1521 204.309 89.5405 204.309 89.5405C204.309 89.5405 201.596 81.3624 200.57 80.9366C199.545 80.5107 201.22 88.7398 201.22 88.7398C201.22 88.7398 199.245 80.9733 198.091 80.8262C196.936 80.6791 198.805 89.8928 199.099 89.3212C199.393 88.7497 196.645 82.0145 195.616 82.2196C194.587 82.4262 196.972 90.4912 196.972 90.4912C196.972 90.4912 194.442 85.8935 193.796 86.6009C193.151 87.3096 196.404 96.9307 199.619 98.7995" stroke="black" stroke-width="1.1097" stroke-linecap="round" stroke-linejoin="round"/>
<path d="M198.703 108.163C198.703 108.163 197.505 105.572 197.102 105.095C196.699 104.618 192.766 101.073 192.002 101.47C191.237 101.868 193.971 105.811 193.971 105.811C193.971 105.811 186.329 102.227 184.719 102.841C183.108 103.455 189.713 106.088 189.713 106.088C189.713 106.088 183.792 104.777 182.705 105.809" stroke="black" stroke-width="1.1097" stroke-linecap="round" stroke-linejoin="round"/>
<path d="M189.107 108.262C189.107 108.262 183.431 106.157 182.462 107.04C181.494 107.923 188.624 110.466 188.624 110.466C188.624 110.466 183.187 109.462 182.906 110.415C182.625 111.369 194.091 114.11 196.225 113.673" stroke="black" stroke-width="1.1097" stroke-linecap="round" stroke-linejoin="round"/>
<path d="M68.3125 101.282C68.3125 101.282 69.8629 98.3357 70.2645 97.859C70.6675 97.3823 74.6002 93.8371 75.3647 94.2346C76.1291 94.6322 73.3954 98.5748 73.3954 98.5748C73.3954 98.5748 81.0371 94.9915 82.6477 95.6054C84.2584 96.2194 77.6537 98.8521 77.6537 98.8521C77.6537 98.8521 84.6614 97.5662 84.6614 98.5734C84.6614 100.267 78.2575 101.028 78.2575 101.028C78.2575 101.028 83.9342 98.9228 84.9023 99.8056C85.8705 100.688 78.7409 103.232 78.7409 103.232C78.7409 103.232 84.1781 102.227 84.4592 103.181C84.7417 104.134 73.2735 106.876 71.1394 106.439" fill="white"/>
<path d="M193.972 105.811C193.972 105.811 193.751 108.621 195.683 109.912" stroke="black" stroke-width="1.1097" stroke-linecap="round" stroke-linejoin="round"/>
<path d="M68.666 100.927C68.666 100.927 69.8636 98.3357 70.2666 97.859C70.6696 97.3823 74.6023 93.8371 75.3668 94.2346C76.1312 94.6322 73.3976 98.5748 73.3976 98.5748C73.3976 98.5748 81.0392 94.9915 82.6499 95.6054C84.2605 96.2194 77.6558 98.8521 77.6558 98.8521C77.6558 98.8521 83.5764 97.5407 84.6635 98.5734" stroke="black" stroke-width="1.1097" stroke-linecap="round" stroke-linejoin="round"/>
<path d="M78.2597 101.026C78.2597 101.026 83.9365 98.9214 84.9046 99.8041C85.8727 100.687 78.7431 103.23 78.7431 103.23C78.7431 103.23 84.1803 102.226 84.4614 103.18C84.7439 104.133 73.2757 106.875 71.1416 106.437" stroke="black" stroke-width="1.1097" stroke-linecap="round" stroke-linejoin="round"/>
<path d="M73.3966 98.5732C73.3966 98.5732 73.6175 101.384 71.6855 102.674" stroke="black" stroke-width="1.1097" stroke-linecap="round" stroke-linejoin="round"/>
<path d="M147.721 94.6377C147.721 94.6377 147.751 91.7546 146.784 89.4303C145.818 87.106 140.656 82.3952 140.34 83.2568C139.87 84.5469 142.555 88.2222 142.555 88.2222C142.555 88.2222 132.98 84.404 131.842 84.9657C130.067 85.8413 137.42 88.8588 137.42 88.8588C137.42 88.8588 130.398 85.8498 128.615 87.5177" stroke="black" stroke-width="1.1097" stroke-linecap="round" stroke-linejoin="round"/>
<path d="M136.574 90.3995C136.574 90.3995 129.136 86.7991 128.846 88.8971C128.781 89.3668 131.529 90.3995 131.529 90.3995" stroke="black" stroke-width="1.1097" stroke-linecap="round" stroke-linejoin="round"/>
<path d="M135.82 91.8381C135.82 91.8381 130.141 89.6638 129.568 90.9737C129.189 91.8381 136.575 93.953 136.575 93.953L139.022 95.4427" stroke="black" stroke-width="1.1097" stroke-linecap="round" stroke-linejoin="round"/>
<path d="M139.02 92.0361C139.02 92.0361 142.353 92.0361 144.325 92.6317" stroke="black" stroke-width="1.1097" stroke-linecap="round" stroke-linejoin="round"/>
<path d="M53.1231 110.517C53.1231 110.517 57.3212 109.803 58.6206 109.267C59.92 108.731 68.2271 108.408 68.0134 109.504C67.7108 111.053 61.7917 110.517 61.7917 110.517C61.7917 110.517 67.5903 111.242 68.1282 111.957C68.7019 112.72 67.7725 113.05 67.7725 113.05C67.7725 113.05 68.296 113.804 67.7725 114.241C67.249 114.678 61.4503 114.876 61.4503 114.876C61.4503 114.876 66.0815 115.923 65.961 116.749C65.8406 117.575 52.5279 116.148 52.5279 116.148C52.5279 116.148 51.0521 110.903 53.1246 110.517H53.1231Z" fill="white"/>
<path d="M68.129 111.957C68.7027 112.72 67.7733 113.049 67.7733 113.049C67.7733 113.049 68.2968 113.803 67.7733 114.241C67.2498 114.678 61.4512 114.876 61.4512 114.876C61.4512 114.876 66.2831 115.829 65.9619 116.749C65.8801 116.984 65.2117 117.176 63.5452 117.121" stroke="black" stroke-width="1.1097" stroke-linecap="round" stroke-linejoin="round"/>
<path d="M61.2471 112.493L67.5491 112.97" stroke="black" stroke-width="1.1097" stroke-linecap="round" stroke-linejoin="round"/>
<path d="M223.679 92.3147C223.679 92.3147 236.861 90.1701 242.472 86.7735C248.082 83.3769 243.788 77.6319 238.357 78.4227" stroke="black" stroke-width="1.1097" stroke-linecap="round" stroke-linejoin="round"/>
<path d="M99.1752 78.1555L98.7607 81.023" stroke="black" stroke-width="1.1097" stroke-linecap="round" stroke-linejoin="round"/>
<path d="M96.7051 72.6665C96.7051 72.6665 97.3189 73.5577 98.67 73.545C100.147 73.5323 100.583 72.8447 100.583 72.8447" stroke="black" stroke-width="1.1097" stroke-linecap="round" stroke-linejoin="round"/>
<path d="M97.0605 72.3765C97.0605 72.3765 97.5439 73.3413 98.8835 73.5139C100.348 73.702 100.877 73.081 100.877 73.081" stroke="black" stroke-width="1.1097" stroke-linecap="round" stroke-linejoin="round"/>
</g>
<defs>
<clipPath id="clip0_923_9255">
<rect width="274" height="183" fill="white" transform="translate(0 0.538086)"/>
</clipPath>
</defs>
</svg>
