<svg width="680" height="365" viewBox="0 0 680 365" fill="none" xmlns="http://www.w3.org/2000/svg">
<path d="M543.895 337.411C543.895 337.411 536.283 286.124 538.7 296.437C533.049 254.074 515.814 144.754 490.571 124.198C477.982 113.949 449.019 106.861 413.623 102.985C417.193 77.9721 413.866 58.1381 413.866 58.1381C411.931 57.9721 410.044 57.7645 408.192 57.5219C408 55.9734 407.86 55.1336 407.86 55.1336C392.027 53.7767 379.096 49.8367 368.837 45.1176C351.397 35.6764 343.46 24.7536 343.46 24.7536C343.46 24.7536 342.936 25.4752 341.864 26.7044C340.535 25.373 339.514 24.2427 338.792 23.403C338.09 22.5825 336.822 22.5825 336.116 23.403C330.775 29.6291 309.182 51.5193 267.045 55.1336C267.045 55.1336 263.367 77.0654 267.898 103.889C228.983 108.662 194.612 115.29 186.221 129.965C140.2 210.476 144.031 339.841 144.031 339.841M144.031 312.076C144.031 312.076 139.417 337.411 144.031 339.841C148.645 342.27 326.136 339.841 326.136 339.841" fill="white"/>
<path d="M431.762 278.264V266.903C431.762 266.903 422.898 260.862 419.651 253.382C416.407 245.904 417.17 239.333 417.17 239.327C414.619 240.058 412.895 240.843 412.253 241.667C407.186 248.161 404.479 280.85 405.299 290.518L431.762 278.264Z" fill="#A7E92F"/>
<path d="M475.711 241.597C476.723 248.468 470.663 256.453 470.663 256.453C470.663 256.453 470.293 268.969 473.515 276.099C474.737 278.803 488.125 279.394 488.125 279.394L511.89 247.366C511.902 245.409 512.212 243.943 510.216 241.597C507.222 238.072 498.39 236.983 485.408 236.159C481.72 241.003 479.255 241.903 475.711 241.597Z" fill="#A7E92F"/>
<path d="M385.799 305.01C387.086 303.589 388.194 302.14 389.427 300.93C379.656 301.571 370.107 303.26 366.189 307.181C356.843 316.536 356.527 339.841 356.527 339.841C356.527 339.841 359.484 339.883 364.634 339.946C366.521 332.565 375.1 316.824 385.799 305.01Z" fill="#A7E92F"/>
<path d="M490.571 124.199C448.253 89.7381 220.839 91.0216 186.222 129.968C151.602 168.915 144.031 312.076 144.031 312.076C144.031 312.076 151.384 270.144 160.89 251.013C170.174 232.322 203.53 234.183 203.53 234.183C203.53 234.183 203.939 231.156 205.066 227.117C203.754 227.261 202.336 227.264 200.931 226.996C195.883 226.035 197.205 220.987 197.205 220.987C197.205 220.987 190.593 228.921 186.867 223.991C183.141 219.062 191.796 211.249 194.427 203.046C197.058 194.841 194.68 193.34 194.44 186.731C194.201 180.122 197.084 162.21 210.787 152.353C224.491 142.497 246.848 145.741 258.687 155.687C270.523 165.632 257.547 189.014 258.687 195.086C259.562 199.748 266.541 205.035 269.744 207.245C273.811 208.532 277.046 210.249 278.898 212.456C288.272 223.634 288.993 229.853 288.993 229.853H395.734C395.734 229.853 396.545 220.479 403.397 212.545C404.722 211.009 407.461 209.505 411.098 208.171C411.117 206.51 411.433 203.825 413.061 201.903C415.581 198.927 419.715 200.91 419.715 200.91C419.715 200.91 415.13 182.759 427.873 175.307C440.616 167.855 452.905 177.229 452.905 177.229C452.905 177.229 455.229 172.893 466.701 174.192C487.132 176.507 480.52 202.232 480.52 202.232C480.52 202.232 487.343 201.169 490.316 206.59C493.288 212.012 486.711 225.521 486.711 225.521C486.711 225.521 488.895 229.751 485.411 236.153C494.275 236.274 514.661 237.689 522.394 247.791C527.254 254.142 534.24 277.395 538.7 296.431C533.049 254.074 515.814 144.754 490.571 124.199Z" fill="#C9C9C9"/>
<path d="M144.031 312.076C144.031 312.076 139.417 337.411 144.031 339.841C148.645 342.271 326.136 339.841 326.136 339.841C326.136 339.841 325.82 316.533 316.474 307.181C307.129 297.826 265.733 301.166 265.733 301.166C265.733 301.166 274.331 298.909 275.72 292.146C277.109 285.384 281.107 249.921 268.98 241.664C261.713 236.715 181.368 230.259 172.444 241.594C163.52 252.928 164.603 291.064 166.764 294.847C168.926 298.631 177.748 300.531 177.748 300.531C177.748 300.531 153.21 298.736 144.031 312.076Z" fill="#A7E92F"/>
<path d="M488.125 225.786C487.898 225.786 487.675 225.69 487.518 225.505C487.234 225.169 487.272 224.668 487.608 224.381C487.668 224.33 493.661 219.062 492.307 210.141C490.992 201.475 483.035 201.957 482.697 201.983C482.473 202.002 482.247 201.919 482.084 201.759C481.921 201.6 481.832 201.379 481.841 201.153C481.848 200.99 482.397 184.844 472.237 178.793C462.212 172.823 454.29 180.339 453.958 180.661C453.674 180.939 453.224 180.964 452.911 180.719C452.789 180.623 440.5 171.21 431.362 176.743C425.468 180.313 422.014 185.738 421.097 192.867C420.404 198.244 421.496 202.625 421.506 202.669C421.586 202.985 421.468 203.318 421.206 203.509C420.944 203.701 420.593 203.717 420.315 203.547C420.296 203.535 418.096 202.226 416.263 203.12C414.804 203.832 413.837 205.856 413.469 208.969C412.355 218.445 416.873 221.057 417.068 221.166C417.451 221.376 417.595 221.862 417.387 222.245C417.176 222.631 416.701 222.775 416.314 222.57C416.081 222.446 410.634 219.419 411.886 208.781C412.326 205.042 413.565 202.65 415.574 201.676C417.039 200.964 418.568 201.185 419.654 201.526C419.36 199.716 419.028 196.475 419.504 192.714C420.171 187.446 422.627 180.16 430.532 175.374C439.584 169.892 450.778 177.206 453.358 179.061C455.43 177.356 463.466 171.708 473.048 177.414C477.614 180.131 480.855 185.125 482.426 191.846C483.3 195.597 483.435 198.87 483.441 200.361C486.982 200.441 492.748 202.449 493.878 209.892C495.369 219.713 488.913 225.348 488.639 225.585C488.492 225.725 488.31 225.786 488.125 225.786Z" fill="black"/>
<path d="M540.695 329.822H540.691C540.251 329.819 539.896 329.461 539.896 329.021C539.896 328.835 539.852 310.512 528.118 297.769C524.51 293.854 519.382 290.393 512.875 287.485C512.473 287.306 512.291 286.833 512.473 286.431C512.652 286.029 513.124 285.847 513.527 286.029C520.235 289.024 525.538 292.612 529.293 296.69C541.464 309.905 541.499 328.257 541.493 329.033C541.49 329.467 541.132 329.822 540.695 329.822Z" fill="black"/>
<path d="M488.125 280.195C488.065 280.195 488.007 280.189 487.946 280.176C487.02 279.962 486.13 279.761 485.277 279.566C479.089 278.164 476.072 277.44 475.169 276.341C472.547 273.158 471.912 255.875 471.848 253.915C471.835 253.474 472.18 253.107 472.621 253.091C473.058 253.075 473.432 253.423 473.444 253.864C473.891 267.516 475.459 274.18 476.404 275.326C477.001 276.051 481.194 277.002 485.632 278.008C486.484 278.203 487.378 278.404 488.307 278.618C488.735 278.717 489.003 279.145 488.907 279.576C488.818 279.946 488.489 280.195 488.125 280.195Z" fill="black"/>
<path d="M451.409 283.937C448.832 283.937 446.517 283.662 444.525 283.273C437.082 281.814 432.516 278.535 432.325 278.397C432.079 278.219 431.958 277.918 432.009 277.618C433.356 269.658 433.356 261.545 432.006 252.813C431.938 252.379 432.235 251.97 432.673 251.903C433.11 251.836 433.516 252.133 433.583 252.57C434.93 261.29 434.959 269.409 433.666 277.376C434.914 278.18 439.004 280.578 444.905 281.721C451.453 282.989 461.658 282.928 473.078 275.434C473.446 275.192 473.944 275.294 474.183 275.664C474.426 276.031 474.324 276.526 473.953 276.769C465.511 282.309 457.689 283.937 451.409 283.937Z" fill="black"/>
<path d="M366.523 340.639C366.414 340.639 366.305 340.617 366.197 340.569C365.795 340.39 365.613 339.917 365.791 339.515C365.884 339.304 375.268 318.366 387.104 304.786C391.472 299.777 399.913 294.103 412.193 287.922C421.302 283.337 429.249 280.17 429.329 280.138C429.738 279.975 430.204 280.176 430.367 280.585C430.53 280.993 430.329 281.459 429.92 281.622C429.607 281.747 398.429 294.228 388.307 305.837C376.628 319.234 367.343 339.956 367.251 340.163C367.12 340.463 366.829 340.639 366.523 340.639Z" fill="black"/>
<path d="M409.073 317.622C408.942 317.622 408.811 317.59 408.686 317.523C408.3 317.309 408.16 316.824 408.373 316.437C408.98 315.342 414.421 305.754 418.69 306.418C419.983 306.619 420.95 307.197 421.566 308.13C422.697 309.844 422.128 312.117 422.103 312.213C421.994 312.641 421.557 312.897 421.132 312.788C420.707 312.679 420.449 312.245 420.557 311.817C420.564 311.789 420.966 310.116 420.229 309.001C419.868 308.455 419.283 308.126 418.444 307.995C417.208 307.801 415.238 309.359 413.022 312.261C411.183 314.665 409.785 317.185 409.772 317.21C409.625 317.472 409.354 317.622 409.073 317.622Z" fill="black"/>
<path d="M423.617 330.601C423.24 330.601 422.905 330.333 422.835 329.953C422.819 329.867 421.171 321.387 417.445 319.193C415.794 318.222 412.052 317.756 407.177 317.906C403.087 318.034 398.777 318.593 396.701 319.266C393.7 320.237 391.465 326.779 390.858 329.219C390.753 329.646 390.319 329.908 389.891 329.8C389.463 329.694 389.201 329.26 389.31 328.832C389.556 327.846 391.826 319.164 396.209 317.747C400.197 316.457 413.86 315.231 418.256 317.817C422.605 320.374 424.335 329.279 424.406 329.656C424.489 330.09 424.204 330.505 423.77 330.588C423.716 330.598 423.668 330.601 423.617 330.601Z" fill="black"/>
<path d="M384.313 339.257C384.243 339.257 384.169 339.247 384.096 339.228C383.671 339.11 383.425 338.669 383.543 338.245C383.645 337.877 386.139 329.257 392.151 327.593C397.378 326.147 414.415 324.215 418.093 328.503C418.381 328.838 418.342 329.343 418.007 329.63C417.672 329.918 417.17 329.879 416.88 329.544C414.025 326.214 398.352 327.536 392.576 329.132C387.419 330.559 385.101 338.596 385.079 338.676C384.983 339.027 384.661 339.257 384.313 339.257Z" fill="black"/>
<path d="M517.735 325.074C517.362 325.074 517.03 324.812 516.953 324.432C516.928 324.314 514.555 312.491 513.061 309.617C511.637 306.881 499.198 298.139 494.878 298.027C492.63 297.973 489.006 298.685 485.647 299.847C481.896 301.146 479.057 302.778 477.857 304.33C476.701 305.821 475.832 309.263 475.593 313.305C475.337 317.606 475.922 320.086 476.279 320.406C477.544 321.399 478.32 321.23 478.329 321.226L478.297 321.236L478.802 322.749C478.648 322.8 477.256 323.2 475.293 321.657C473.677 320.387 473.929 314.464 473.996 313.292C474.092 311.625 474.562 305.98 476.595 303.353C479.638 299.422 490.015 296.309 494.916 296.434C499.958 296.561 512.777 305.62 514.475 308.883C516.072 311.954 518.419 323.624 518.518 324.119C518.604 324.55 518.323 324.972 517.892 325.058C517.841 325.067 517.786 325.074 517.735 325.074Z" fill="black"/>
<path d="M490.354 328.934C489.514 328.934 488.735 328.65 488.077 328.104C487.448 327.58 486.74 326.374 487.286 322.092C486.344 324.215 485.488 325.936 485.038 326.303C483.627 327.456 480.855 328.059 479.319 326.192C477.675 324.196 479.984 312.778 481.439 308.736C483.186 303.889 493.451 301.137 493.888 301.022C494.316 300.914 494.75 301.166 494.862 301.591C494.974 302.015 494.719 302.453 494.294 302.564C491.548 303.289 484.157 305.904 482.943 309.276C481.168 314.212 479.693 324.02 480.555 325.176C481.513 326.338 483.403 325.579 484.029 325.064C484.616 324.451 487.126 318.557 489.198 313.222C489.351 312.823 489.792 312.619 490.197 312.756C490.603 312.893 490.826 313.324 490.708 313.733C489.08 319.368 488.045 325.994 489.099 326.872C489.537 327.239 490.031 327.382 490.606 327.319C491.989 327.162 493.576 325.824 494.533 324.566C494.798 324.215 495.3 324.148 495.651 324.416C496.002 324.685 496.069 325.186 495.801 325.534C494.671 327.015 492.761 328.682 490.785 328.905C490.641 328.928 490.498 328.934 490.354 328.934Z" fill="black"/>
<path d="M500.648 325.524C498.55 325.524 496.682 324.899 496.273 322.389C495.676 318.708 504.367 313.257 506.114 312.201C506.491 311.974 506.982 312.095 507.209 312.472C507.436 312.849 507.314 313.34 506.938 313.567C502.975 315.962 497.535 320.199 497.848 322.13C498.173 324.132 499.977 324.196 503.901 323.577L504.514 323.481C507.365 323.047 511.149 319.212 511.187 319.174C511.497 318.858 512.002 318.855 512.318 319.161C512.634 319.468 512.637 319.975 512.33 320.288C512.161 320.461 508.138 324.541 504.757 325.058L504.153 325.151C503.055 325.33 501.816 325.524 500.648 325.524Z" fill="black"/>
<path d="M489.939 314.314C489.751 314.314 489.559 314.247 489.409 314.113C489.08 313.819 489.052 313.315 489.345 312.986C489.598 312.702 495.578 306.048 501.743 304.538C502.168 304.429 502.602 304.694 502.708 305.122C502.813 305.55 502.551 305.981 502.123 306.086C496.446 307.478 490.597 313.979 490.54 314.046C490.38 314.225 490.16 314.314 489.939 314.314Z" fill="black"/>
<path d="M474.739 300.731C474.458 300.731 474.186 300.585 474.039 300.32C473.832 299.943 472.025 296.571 473.011 294.365C473.273 293.777 473.854 293.018 475.128 292.724C476.846 292.328 479.477 293.101 482.948 295.013C485.444 296.389 487.453 297.845 487.539 297.909C487.896 298.168 487.973 298.669 487.714 299.023C487.456 299.381 486.958 299.458 486.6 299.199C484.429 297.618 478.203 293.656 475.486 294.282C474.799 294.438 474.576 294.777 474.467 295.016C473.909 296.268 475.007 298.771 475.435 299.547C475.649 299.933 475.508 300.419 475.122 300.633C475.001 300.7 474.866 300.731 474.739 300.731Z" fill="black"/>
<path d="M415.273 317.079C415.273 317.079 426.982 305.885 443.933 301.798C460.883 297.711 480.29 300.598 480.29 300.598C480.29 300.598 476.768 304.608 476.04 306.211C475.114 308.248 474.223 314.969 474.223 314.969C474.223 314.969 460.526 311.553 447.783 314.969C435.037 318.388 423.62 328.139 423.62 328.139C423.62 328.139 421.666 321.211 419.593 319.65C417.518 318.085 415.273 317.079 415.273 317.079Z" fill="black"/>
<path d="M482.637 292.137C482.474 292.137 482.311 292.089 482.17 291.987C481.813 291.728 481.733 291.23 481.992 290.872L524.993 231.37C525.252 231.013 525.75 230.933 526.107 231.191C526.465 231.45 526.545 231.948 526.286 232.306L483.285 291.808C483.128 292.025 482.886 292.137 482.637 292.137Z" fill="black"/>
<path d="M500.756 297.475C500.583 297.475 500.411 297.421 500.264 297.306C499.916 297.034 499.855 296.533 500.127 296.185L525.009 264.429C525.28 264.081 525.781 264.02 526.129 264.292C526.477 264.563 526.538 265.064 526.266 265.412L501.385 297.168C501.228 297.37 500.995 297.475 500.756 297.475Z" fill="black"/>
<path d="M497.039 325.598C497.039 325.598 501.998 329.835 504.395 332.45C507.336 332.539 522.841 337.587 525.637 337.408C522.033 329.745 511.755 321 511.755 321C511.755 321 507.518 325.508 502.92 325.508C498.323 325.508 497.039 325.598 497.039 325.598Z" fill="black"/>
<path d="M240.579 195.884C240.208 195.884 239.88 195.626 239.8 195.252C239.707 194.821 239.985 194.396 240.416 194.307C240.534 194.282 247.875 192.615 249.299 186.258C250.023 183.017 249.209 180.009 247.223 178.595C245.547 177.401 243.28 177.525 241.003 178.937C239.959 179.582 239.142 180.22 238.507 180.827C238.797 182.845 238.753 184.614 238.42 185.591C238.015 186.788 237.23 186.855 236.91 186.829C235.952 186.75 235.208 186.079 234.969 185.08C234.675 183.857 235.103 182.12 236.818 180.258C236.23 177.046 234.771 173.362 232.217 171.718C230.882 170.859 228.357 170.428 225.429 169.93C219.308 168.886 210.924 167.458 207.185 160.488C206.977 160.099 207.121 159.617 207.51 159.406C207.9 159.198 208.382 159.342 208.593 159.732C211.964 166.015 219.579 167.311 225.7 168.356C228.8 168.882 231.476 169.339 233.085 170.377C235.764 172.104 237.399 175.667 238.168 178.997C238.743 178.525 239.407 178.052 240.167 177.58C243.015 175.814 245.927 175.709 248.152 177.292C250.703 179.106 251.741 182.675 250.863 186.606C249.206 193.991 241.099 195.795 240.754 195.865C240.691 195.881 240.636 195.884 240.579 195.884ZM237.095 182.538C236.514 183.502 236.415 184.275 236.521 184.706C236.565 184.888 236.661 185.102 236.866 185.195C237.016 184.863 237.178 183.988 237.095 182.538Z" fill="black"/>
<path d="M216.684 217.172C214.197 217.172 211.333 216.795 208.325 215.668C201.333 213.046 197.782 205.91 197.77 194.458C197.75 175.642 207.105 159.857 207.198 159.697C207.425 159.32 207.916 159.196 208.293 159.422C208.67 159.649 208.794 160.141 208.568 160.518C208.475 160.671 199.35 176.096 199.366 194.454C199.376 205.173 202.578 211.808 208.884 214.174C217.115 217.261 224.443 214.218 224.516 214.186C224.922 214.014 225.391 214.202 225.563 214.608C225.736 215.013 225.551 215.483 225.145 215.655C224.938 215.744 221.528 217.172 216.684 217.172Z" fill="black"/>
<path d="M309.366 304.518C308.97 304.518 308.628 304.225 308.574 303.825C308.513 303.356 302.274 256.677 292.15 247.427C286.789 242.529 278.532 240.297 270.547 238.142C263.258 236.172 256.374 234.314 252.3 230.537C251.977 230.237 251.958 229.732 252.258 229.41C252.558 229.087 253.063 229.068 253.385 229.368C257.169 232.877 263.871 234.687 270.962 236.603C279.132 238.809 287.581 241.092 293.226 246.252C297.686 250.329 301.894 261.246 305.729 278.698C308.564 291.61 310.141 303.506 310.157 303.624C310.215 304.062 309.908 304.461 309.471 304.518C309.436 304.515 309.401 304.518 309.366 304.518Z" fill="black"/>
<path d="M220.93 229.662C220.904 229.662 220.879 229.662 220.857 229.658C220.416 229.617 220.093 229.227 220.135 228.79C220.323 226.759 219.075 219.125 218.577 216.354C218.5 215.92 218.788 215.505 219.222 215.428C219.653 215.351 220.071 215.639 220.148 216.073C220.221 216.488 221.971 226.277 221.722 228.94C221.683 229.352 221.335 229.662 220.93 229.662Z" fill="black"/>
<path d="M266.546 230.866C266.275 230.866 266.01 230.728 265.86 230.476C265.633 230.096 265.758 229.608 266.135 229.381C271.604 226.115 274.548 222.701 274.886 219.234C275.413 213.812 269.816 208.784 264.88 204.346C261.834 201.606 259.2 199.24 258.35 197.06C257.035 193.688 258.325 188.765 259.819 183.062C261.77 175.623 263.979 167.187 260.777 160.45C255.301 148.93 239.142 143.126 222.348 146.644C207.571 149.741 192.728 166.3 194.318 190.888C194.959 200.795 190.994 208.314 188.101 213.803C184.927 219.825 183.545 222.835 186.811 225.476C189.921 227.992 192.696 226.932 194.631 225.345C194.439 224.943 194.279 224.509 194.148 224.042C193.258 220.827 194.468 216.91 196.741 215.661C198.829 214.512 199.809 215.249 200.205 215.795C201.543 217.625 199.768 222.478 196.668 225.642C198.242 227.746 201.253 228.793 205.387 228.637C205.828 228.621 206.198 228.963 206.214 229.403C206.23 229.844 205.889 230.214 205.448 230.23C203.108 230.323 198.098 230.077 195.47 226.718C192.338 229.18 188.864 229.199 185.802 226.718C181.371 223.132 183.717 218.688 186.684 213.059C189.647 207.44 193.331 200.45 192.718 190.99C191.067 165.505 206.578 148.317 222.012 145.083C239.516 141.414 256.422 147.589 262.211 159.764C265.662 167.028 263.376 175.76 261.355 183.468C259.931 188.899 258.702 193.592 259.829 196.478C260.541 198.305 263.162 200.661 265.94 203.158C270.902 207.615 277.073 213.164 276.47 219.387C276.077 223.442 272.961 227.159 266.949 230.751C266.824 230.827 266.684 230.866 266.546 230.866ZM198.679 216.654C198.417 216.654 197.993 216.798 197.511 217.063C196.048 217.867 194.934 220.907 195.684 223.618C195.735 223.806 195.796 223.991 195.863 224.167C198.446 221.319 199.519 217.561 198.915 216.737C198.88 216.683 198.794 216.654 198.679 216.654Z" fill="black"/>
<path d="M248.035 231.134C247.821 231.134 247.611 231.047 247.451 230.881C246.745 230.128 246.113 228.991 245.749 227.532C240.883 229.802 235.165 229.936 231.873 225.236C224.833 215.179 242.052 198.238 242.789 197.522C243.105 197.216 243.61 197.222 243.92 197.538C244.226 197.855 244.22 198.359 243.904 198.669C243.734 198.835 226.918 215.374 233.182 224.323C235.328 227.388 239.836 228.851 245.481 225.923C245.315 224.116 245.545 221.961 246.423 219.524C247.492 216.555 249.121 214.655 250.775 214.445C251.496 214.352 252.556 214.534 253.501 215.916C254.973 218.072 254.07 222.114 248.6 225.897C248.15 226.207 247.684 226.504 247.208 226.779C247.425 227.947 247.876 228.998 248.62 229.793C248.92 230.115 248.904 230.62 248.581 230.92C248.425 231.06 248.23 231.134 248.035 231.134ZM251.094 216.015C251.046 216.015 251.005 216.022 250.976 216.025C250.171 216.127 248.872 217.436 247.927 220.064C247.378 221.59 247.033 223.349 247.045 225.013C247.259 224.876 247.476 224.732 247.694 224.582C251.487 221.957 253.418 218.618 252.186 216.814C251.704 216.111 251.308 216.015 251.094 216.015Z" fill="black"/>
<path d="M207.344 192.158C207.248 192.158 207.149 192.139 207.054 192.104C206.91 192.047 203.513 190.68 203.321 187.634C203.19 185.559 204.238 184.432 205.345 183.234C206.409 182.088 207.612 180.789 208.254 178.215C208.714 176.363 208.554 175.025 207.782 174.237C206.479 172.912 203.548 173.228 202.529 173.464C202.102 173.563 201.67 173.295 201.571 172.867C201.473 172.439 201.738 172.008 202.169 171.909C202.354 171.864 206.718 170.884 208.918 173.116C210.112 174.329 210.409 176.175 209.806 178.601C209.065 181.574 207.654 183.097 206.52 184.32C205.502 185.418 204.831 186.143 204.918 187.532C205.045 189.559 207.616 190.607 207.641 190.616C208.05 190.779 208.251 191.242 208.088 191.651C207.964 191.967 207.663 192.158 207.344 192.158Z" fill="black"/>
<path d="M220.454 181.897C221.408 181.897 222.181 180.935 222.181 179.748C222.181 178.561 221.408 177.599 220.454 177.599C219.5 177.599 218.727 178.561 218.727 179.748C218.727 180.935 219.5 181.897 220.454 181.897Z" fill="black"/>
<path d="M205.518 181.715C206.472 181.715 207.246 180.753 207.246 179.566C207.246 178.379 206.472 177.417 205.518 177.417C204.564 177.417 203.791 178.379 203.791 179.566C203.791 180.753 204.564 181.715 205.518 181.715Z" fill="black"/>
<path d="M228.318 175.511C228.149 175.511 227.979 175.457 227.832 175.348C227.797 175.323 224.359 172.717 221.143 172.382C218.174 172.075 216.744 173.812 216.683 173.886C216.408 174.227 215.907 174.288 215.562 174.013C215.217 173.742 215.157 173.247 215.425 172.899C215.505 172.797 217.424 170.39 221.306 170.792C224.975 171.172 228.647 173.959 228.803 174.077C229.154 174.346 229.218 174.847 228.95 175.195C228.797 175.402 228.56 175.511 228.318 175.511Z" fill="black"/>
<path d="M210.339 203.844C208.583 203.844 206.92 202.979 205.598 201.363C204.305 199.783 203.628 197.819 203.982 196.692C204.11 196.287 204.503 195.048 210.144 194.304C212.009 194.058 213.976 193.946 215.54 194.001C218.21 194.09 218.877 194.614 219.164 195.061C219.563 195.687 219.503 196.552 218.985 197.637C217.862 199.984 214.429 203.436 210.917 203.812C210.722 203.835 210.531 203.844 210.339 203.844ZM205.499 197.213C205.403 197.647 205.761 199.042 206.837 200.355C207.482 201.143 208.845 202.433 210.748 202.229C213.219 201.964 216.016 199.575 217.293 197.423C217.801 196.568 217.846 196.092 217.826 195.952C217.226 195.578 214.167 195.383 210.298 195.9C207.258 196.303 205.761 196.909 205.499 197.213Z" fill="black"/>
<path d="M184.704 234.295C184.397 234.295 184.103 234.116 183.973 233.816L163.778 187.775C163.602 187.373 163.784 186.9 164.19 186.724C164.595 186.546 165.064 186.731 165.24 187.136L185.435 233.177C185.611 233.58 185.429 234.052 185.023 234.228C184.921 234.272 184.809 234.295 184.704 234.295Z" fill="black"/>
<path d="M173.523 237.053C173.21 237.053 172.913 236.868 172.785 236.562L159.698 204.933C159.529 204.525 159.723 204.058 160.129 203.889C160.534 203.72 161.004 203.915 161.173 204.32L174.26 235.949C174.43 236.357 174.235 236.824 173.829 236.993C173.73 237.034 173.625 237.053 173.523 237.053Z" fill="black"/>
<path d="M521.867 275.559L514.297 284.665L523.492 290.163L521.867 275.559Z" fill="#A7E92F"/>
<path d="M441.871 226.124C443.035 226.124 443.978 224.954 443.978 223.509C443.978 222.065 443.035 220.895 441.871 220.895C440.707 220.895 439.764 222.065 439.764 223.509C439.764 224.954 440.707 226.124 441.871 226.124Z" fill="black"/>
<path d="M463.463 225.671C464.627 225.671 465.57 224.5 465.57 223.056C465.57 221.612 464.627 220.441 463.463 220.441C462.299 220.441 461.355 221.612 461.355 223.056C461.355 224.5 462.299 225.671 463.463 225.671Z" fill="black"/>
<path d="M452.045 265.013C441.92 265.013 435.295 257.312 435.005 256.97C428.906 250.24 427.297 241.175 426.92 238.209C424.471 238.723 421.955 237.861 420.024 235.805C417.249 232.845 416.534 228.474 418.204 224.668C418.961 222.947 420.065 222.497 420.86 222.42C423.051 222.21 425.554 224.633 427.128 226.491L426.7 211.9C426.69 211.609 426.841 211.338 427.093 211.191C427.342 211.044 427.655 211.044 427.904 211.191C427.91 211.194 428.922 211.772 430.704 212.085C432.345 212.376 434.998 212.494 438.312 211.421C439.66 210.983 441.183 209.812 442.003 208.129C439.101 206.552 437.077 204.543 436.675 202.931C436.33 201.552 437.039 200.457 438.568 199.997C440.943 199.285 443.003 200.514 443.82 203.126C444.229 204.432 444.274 205.9 443.945 207.308C447.08 208.748 451.138 209.655 455.199 208.844C457.923 208.298 458.724 205.667 458.941 204.559C458.98 204.371 459.009 204.183 459.031 204.001C455.397 201.513 455.337 200.629 455.302 200.128C455.27 199.649 455.487 199.211 455.902 198.934C457.358 197.953 458.443 198.381 458.961 198.726C460.065 199.46 460.707 201.204 460.685 203.183C464.056 205.386 469.35 208.343 475.212 211.226C475.487 211.36 475.659 211.638 475.659 211.944L475.634 223.416C477.237 221.747 479.558 220.862 481.601 221.36C484.085 221.967 485.321 224.457 484.909 228.024C484.587 230.808 483.523 232.861 481.748 234.122C479.81 235.501 477.537 235.549 476.307 235.447C475.308 246.804 471.892 255.054 466.145 259.971C462.632 262.979 458.482 264.611 453.453 264.968C452.98 264.997 452.508 265.013 452.045 265.013ZM427.616 236.383C427.766 236.383 427.92 236.427 428.051 236.51C428.261 236.644 428.395 236.871 428.415 237.12C428.424 237.232 429.334 248.327 436.212 255.917C436.298 256.019 443.258 264.081 453.351 263.369C466.001 262.475 473.415 252.484 474.794 234.473C474.813 234.243 474.928 234.029 475.113 233.892C475.299 233.755 475.535 233.704 475.761 233.755C475.787 233.761 478.667 234.362 480.841 232.807C482.224 231.817 483.064 230.144 483.332 227.832C483.654 225.064 482.907 223.314 481.231 222.906C479.363 222.452 476.553 223.851 475.583 226.405C475.445 226.766 475.072 226.976 474.692 226.906C474.312 226.836 474.037 226.504 474.037 226.121L474.066 212.433C472.786 211.794 468.964 209.863 465.164 207.727C463.265 206.657 461.732 205.744 460.496 204.959C459.893 207.87 458.038 209.904 455.519 210.409C451.228 211.268 446.876 210.383 443.431 208.835C442.604 210.651 441.071 212.206 438.811 212.941C433.836 214.553 430.148 213.761 428.341 213.116L428.804 228.905C428.814 229.259 428.59 229.575 428.255 229.687C427.92 229.799 427.549 229.671 427.348 229.381C425.857 227.213 422.818 223.847 421.017 224.013C420.816 224.033 420.206 224.09 419.673 225.313C418.067 228.975 419.28 232.672 421.196 234.716C422.929 236.565 425.231 237.21 427.348 236.437C427.431 236.399 427.524 236.383 427.616 236.383ZM439.877 201.392C439.622 201.392 439.341 201.434 439.031 201.526C438.044 201.823 438.159 202.277 438.226 202.545C438.501 203.646 440.12 205.233 442.514 206.577C442.677 205.674 442.636 204.674 442.3 203.602C442.074 202.88 441.422 201.392 439.877 201.392ZM456.952 200.156C457.163 200.572 457.888 201.22 459.015 202.037C458.865 201.063 458.504 200.335 458.079 200.054C457.964 199.978 457.632 199.757 456.952 200.156Z" fill="black"/>
<path d="M452.803 247.079C448.499 247.079 445.242 244.79 445.194 244.755C444.836 244.496 444.753 243.998 445.012 243.64C445.267 243.283 445.769 243.2 446.126 243.458C446.388 243.643 452.611 247.983 458.898 243.458C459.255 243.2 459.753 243.283 460.012 243.64C460.271 243.998 460.188 244.496 459.83 244.755C457.403 246.498 454.971 247.079 452.803 247.079Z" fill="black"/>
<path d="M452.902 238.822C452.538 238.822 452.206 238.57 452.123 238.2C452.027 237.772 452.295 237.344 452.723 237.245C452.845 237.216 455.479 236.568 456.178 233.969C456.405 233.12 456.063 231.191 455.699 229.148C454.862 224.445 453.713 218.002 457.691 215.202C463.074 211.408 468.611 214.043 470.82 217.124C471.076 217.481 470.996 217.979 470.638 218.238C470.281 218.497 469.783 218.414 469.524 218.056C468.381 216.463 463.927 212.762 458.611 216.507C455.463 218.726 456.465 224.349 457.27 228.87C457.701 231.287 458.039 233.193 457.72 234.387C456.765 237.938 453.224 238.771 453.074 238.806C453.02 238.816 452.963 238.822 452.902 238.822Z" fill="black"/>
<path d="M432.794 218.385C432.536 218.385 432.28 218.257 432.127 218.024C431.884 217.653 431.99 217.162 432.357 216.919C436.919 213.934 440.85 214.1 443.343 214.764C446.061 215.489 447.683 216.932 447.753 216.992C448.082 217.286 448.107 217.791 447.81 218.12C447.516 218.445 447.012 218.474 446.683 218.18C446.444 217.966 440.936 213.209 433.228 218.254C433.094 218.343 432.944 218.385 432.794 218.385Z" fill="black"/>
<path d="M337.451 191.166C249.596 159.112 267.045 55.1371 267.045 55.1371C309.181 51.5227 330.771 29.6325 336.116 23.4064C336.819 22.5859 338.086 22.5859 338.792 23.4064C344.133 29.6325 365.727 51.5227 407.863 55.1371C407.86 55.1371 425.305 159.112 337.451 191.166Z" fill="#A7E92F"/>
<path d="M343.457 194.968C343.364 194.968 343.272 194.952 343.182 194.92C322.994 187.554 306.701 175.763 294.753 159.872C285.2 147.168 278.396 131.839 274.526 114.307C267.949 84.5017 272.218 58.2724 272.262 58.0105C272.323 57.6498 272.62 57.3784 272.981 57.3464C298.195 55.1849 315.835 46.3119 326.196 39.2525C337.425 31.5992 342.761 24.361 342.812 24.2908C342.962 24.0832 343.201 23.9619 343.457 23.9619C343.712 23.9619 343.952 24.0832 344.102 24.2908C344.156 24.3642 349.488 31.5992 360.717 39.2525C371.075 46.3119 388.715 55.1817 413.933 57.3464C414.297 57.3784 414.59 57.6498 414.651 58.0105C414.696 58.2724 418.961 84.5017 412.384 114.307C408.514 131.839 401.71 147.168 392.157 159.872C380.21 175.763 363.913 187.554 343.728 194.92C343.642 194.952 343.549 194.968 343.457 194.968ZM273.747 58.8822C273.156 62.969 270.13 87.0081 276.1 114.013C279.922 131.309 286.637 146.424 296.049 158.937C307.754 174.492 323.703 186.06 343.46 193.321C363.217 186.06 379.166 174.492 390.871 158.937C400.286 146.424 406.998 131.309 410.82 114.013C416.79 87.0081 413.763 62.969 413.173 58.8822C387.908 56.5929 370.197 47.6561 359.756 40.5265C350.433 34.1599 345.194 28.2052 343.46 26.0596C341.726 28.2052 336.487 34.1599 327.164 40.5265C316.723 47.6529 299.009 56.5929 273.747 58.8822Z" fill="black"/>
<path d="M312 106.5L339 128L370.5 86" stroke="#016A2B" stroke-width="13"/>
</svg>
