<svg width="180" height="181" viewBox="0 0 180 181" fill="none" xmlns="http://www.w3.org/2000/svg">
<path d="M70.909 25.2973L71.0788 34.7036C71.0788 34.7036 68.4392 33.7547 68.2952 34.7036C68.1512 35.6524 66.6983 39.6523 68.9123 41.3018C71.1263 42.9514 72.3053 43.2124 72.3053 43.2124C72.3053 43.2124 70.9412 56.2431 69.055 58.9997C69.055 58.9997 55.807 60.2186 49.9017 63.2683C43.9965 66.318 27.979 83.3306 27.979 83.3306L28.8649 84.7474L30.4669 85.074C30.4669 85.074 10.3185 108.441 9.8106 114.757C9.8106 114.757 8.7576 119.113 16.2366 126.774C23.7156 134.434 40.3155 145.854 43.1196 145.76C45.9237 145.666 49.1625 143.799 49.1625 143.799L48.913 149.353L71.071 154.362L77.587 126.918L53.9183 118.326L51.2222 123.334L51.0293 126.555L46.4329 131.454L32.1743 113.213L48.256 99.6668L49.7076 101.216L55.0806 96.7624L106.581 103.203L109.678 100.101C109.678 100.101 115.825 118.301 124.684 117.914C133.543 117.527 136.87 110.553 138.769 106.345C140.668 102.137 143.27 90.1783 143.755 86.2093C144.24 82.2403 144.708 74.184 144.708 74.184C144.708 74.184 145.946 74.0593 146.974 73.6234C148.003 73.1876 151.67 70.1378 152.916 67.875L157.526 62.4236C157.526 62.4236 159.621 60.3664 159.033 59.2838C158.446 58.2013 158.125 58.182 158.125 58.182C158.125 58.182 159.825 55.3753 157.066 54.1654C157.066 54.1654 158.01 49.857 154.016 49.4944C154.016 49.4944 153.016 46.4691 150.298 46.59C147.58 46.7108 146.563 48.0184 146.563 48.0184L141.286 46.302L137.715 53.0906L138.261 54.2618C138.261 54.2618 134.484 60.6814 136.433 68.4111L126.875 85.731L125.764 83.2534C125.764 83.2534 123.28 75.318 111.712 65.3473C111.712 65.3473 110.95 64.4396 107.428 63.5678C103.907 62.6961 92.6363 60.0013 92.6363 60.0013L91.2915 59.5384V56.1981C91.2915 56.1981 94.867 54.492 96.7917 48.3926C98.7165 42.2931 98.7062 32.7506 98.7062 32.7506C98.7062 32.7506 99.5509 32.928 99.9147 32.2016C100.279 31.4751 99.2256 28.608 99.2256 28.608L100.119 26.2693C100.119 26.2693 101.004 19.1323 98.5352 15.4294C96.0666 11.7266 92.4512 10.3226 89.287 10.4306C86.1229 10.5386 70.909 25.2921 70.909 25.2921V25.2973Z" fill="white"/>
<path d="M118.633 48.8332C118.633 48.8332 117.908 56.4652 126.774 56.8484C134.503 57.1814 146.609 42.3468 149.588 38.5346C150.044 37.9509 150.179 37.1859 149.953 36.4814C149.363 34.6492 147.827 31.1804 144.403 29.9062C143.905 29.7211 143.354 29.7442 142.86 29.9384C138.587 31.6149 117.138 40.4799 118.633 48.8332Z" fill="#88DA09"/>
<path d="M145.197 29.4383C145.197 29.4383 149.411 30.1583 150.569 35.5082L154.888 32.0753C156.119 31.1534 156.878 29.6813 156.76 28.1474C156.708 27.4763 156.491 26.7833 155.979 26.1726C155.127 25.1556 153.779 25.09 152.647 25.279C151.628 25.4487 150.667 25.8627 149.803 26.4284L145.197 29.4409V29.4383Z" fill="#636E7A"/>
<path d="M156.344 26.1827C156.25 26.1827 156.156 26.1416 156.093 26.0632C155.981 25.9243 156.003 25.7224 156.142 25.6106L164.898 18.5597C165.036 18.4479 165.238 18.4697 165.35 18.6086C165.462 18.7474 165.44 18.9493 165.301 19.0612L156.546 26.112C156.486 26.1596 156.414 26.1827 156.344 26.1827Z" fill="#1C2024"/>
<path d="M146.432 63.6539L149.855 68.4239L148.287 72.1961L153.747 80.2756L170.208 67.5637L165.776 61.9824L158.132 62.633L151.358 66.476L146.432 63.6539Z" fill="#88DA09"/>
<path d="M109.16 120.248L105.364 62.7394C105.364 62.7394 104.556 61.2608 103.727 61.1001L100.356 60.4495C98.998 60.1873 97.7714 61.3084 97.9103 62.6841L99.4724 78.1217C99.6473 79.8561 98.3114 81.3745 96.5693 81.4208L68.6179 82.1665C66.9812 82.2103 65.6119 80.9323 65.5424 79.2968L64.7376 60.4354C64.6849 59.1921 63.5522 58.278 62.3256 58.4888L59.0354 59.0558C58.129 59.2114 57.4334 59.9481 57.3344 60.8623C56.6736 66.972 53.5544 98.6533 51.2247 123.335C52.0797 122.744 53.4452 122.183 55.5499 122.228C59.9149 122.321 72.4544 128.173 72.6409 130.68C72.8273 133.189 71.0749 133.095 71.0749 133.095C71.0749 133.095 72.8273 135.696 71.62 136.811C70.4127 137.925 68.1833 137.646 68.1833 137.646C68.1833 137.646 72.2024 139.133 71.0749 140.712C69.9473 142.29 65.0256 142.848 65.0256 142.848C65.0256 142.848 67.1624 144.279 65.9539 146.211C64.7466 148.142 56.7584 147.345 53.2292 146.211L49.0532 147.072C48.751 150.604 48.5736 162.627 48.5723 163.25C48.5672 165.48 49.174 166.128 51.2864 166.126H108.593C110.074 166.128 111.25 164.88 111.161 163.403L109.163 120.247L109.16 120.248Z" fill="#88DA09"/>
<path d="M119.614 99.8245C119.568 99.8245 119.52 99.8142 119.475 99.7923C119.316 99.7152 119.248 99.5236 119.325 99.3629C124.579 88.4421 129.977 78.2438 135.823 68.1895C135.075 63.4979 135.521 59.3451 137.151 55.8453C138.913 52.0628 141.479 50.2988 142.852 49.5839C144.994 48.4692 147.047 48.4011 148.084 49.4116C148.615 49.9298 148.597 50.6408 148.028 51.5253C147.581 52.2235 146.856 52.9666 146.088 53.7535C144.658 55.2192 143.181 56.7338 143.931 57.5836C145.645 59.5263 146.336 63.3141 145.692 67.2342C145.664 67.4091 145.497 67.5273 145.323 67.4991C145.148 67.4708 145.029 67.3049 145.058 67.1301C145.664 63.4503 145.016 59.7848 143.449 58.0092C142.304 56.7119 143.994 54.9801 145.628 53.3048C146.339 52.5758 147.076 51.8211 147.487 51.1782C147.994 50.3875 147.832 50.0648 147.634 49.8719C146.813 49.0709 145.01 49.1853 143.148 50.1548C139.058 52.2839 134.856 58.2869 136.475 68.1998C136.486 68.2731 136.472 68.3489 136.435 68.4132C130.575 78.4842 125.167 88.6992 119.903 99.6406C119.848 99.7551 119.734 99.8232 119.614 99.8232V99.8245Z" fill="#1C2024"/>
<path d="M125.294 118.327C123.777 118.327 122.298 117.976 120.9 117.273C117.857 115.742 114.904 112.182 112.122 106.69C110.062 102.625 108.867 98.9516 108.856 98.9156C108.83 98.8371 108.837 98.7523 108.871 98.679C108.887 98.6469 110.404 95.493 113.27 92.0267C115.864 88.8909 120.119 84.8589 125.767 83.2556C125.403 82.5574 124.467 80.85 122.911 78.5396C121.02 75.7303 117.797 71.4309 113.186 66.8961C111.108 64.8531 108.097 63.9917 105.154 63.3656L92.5041 60.6321C92.3305 60.5949 92.2199 60.4239 92.2572 60.2503C92.2945 60.0767 92.4655 59.9674 92.6391 60.0034L105.288 62.7369C108.326 63.3836 111.441 64.2797 113.636 66.4384C118.29 71.0156 121.543 75.3574 123.453 78.1937C125.525 81.273 126.511 83.3019 126.52 83.3211C126.561 83.4073 126.563 83.5089 126.523 83.5963C126.483 83.6837 126.406 83.748 126.312 83.7724C120.645 85.2536 116.366 89.2946 113.775 92.424C111.26 95.4609 109.803 98.2509 109.506 98.841C109.982 100.254 114.552 113.359 121.188 116.7C123.782 118.005 126.564 118.029 129.459 116.773C131.641 115.825 133.072 114.466 133.086 114.453C137.399 110.551 140.739 102.31 142.752 90.6163C144.28 81.7487 144.51 73.9612 144.513 73.8827C144.518 73.7053 144.669 73.5677 144.843 73.5703C145.02 73.5754 145.161 73.7233 145.155 73.9007C145.153 73.9791 144.921 81.813 143.386 90.7256C142.484 95.9662 141.314 100.551 139.91 104.353C138.144 109.132 135.996 112.688 133.526 114.924C133.472 114.975 132.019 116.36 129.737 117.355C128.246 118.005 126.752 118.33 125.294 118.33V118.327Z" fill="#1C2024"/>
<path d="M99.4993 30.3317C96.6218 30.7946 96.1924 23.9829 86.9687 23.2346C76.3024 22.3706 74.9897 28.4803 72.1123 29.4073C69.2374 30.3343 69.5768 21.4757 69.5768 21.4757C69.8983 11.9229 78.4573 9.04289 89.2881 10.4366C101.623 12.0232 99.0261 24.6862 98.9541 25.0449C102.284 29.8766 100.42 30.1852 99.5006 30.333L99.4993 30.3317Z" fill="#88DA09"/>
<path d="M73.2914 30.6533C72.8799 30.6533 72.5379 30.5286 72.2692 30.2817C71.8437 29.8908 71.6405 29.2184 71.6662 28.285C71.6842 27.6293 71.8102 27.0816 71.8154 27.0584C71.8552 26.8861 72.0288 26.7781 72.2011 26.818C72.3734 26.8578 72.4814 27.0301 72.4415 27.2037C72.3168 27.7463 72.1188 29.2698 72.7051 29.8086C72.9661 30.0477 73.3942 30.0734 73.9767 29.8857C74.8214 29.6131 75.7882 28.771 76.9068 27.7964C79.4358 25.5927 82.9008 22.5764 88.4718 22.9146C94.3707 23.2733 96.5628 26.1301 98.0131 28.0214C98.9427 29.2326 99.4672 29.8587 100.322 29.7198C100.442 29.7006 100.723 29.6556 100.65 29.0358C100.501 27.7643 98.9118 25.18 96.262 22.8966C94.5057 21.3833 90.9404 18.8877 86.8068 19.1963C86.6294 19.2091 86.4751 19.0767 86.4622 18.8993C86.4494 18.7218 86.5818 18.5676 86.7592 18.5547C91.1242 18.2294 94.8502 20.8291 96.6824 22.408C99.1561 24.5397 101.094 27.295 101.289 28.96C101.42 30.0708 100.729 30.3048 100.425 30.3537C99.151 30.5594 98.4245 29.6118 97.5039 28.411C96.0421 26.5056 94.0402 23.8956 88.4332 23.5548C83.1258 23.2321 79.7752 26.1494 77.3298 28.2798C76.1572 29.3007 75.1454 30.1827 74.1747 30.4964C73.8519 30.6006 73.5575 30.652 73.2927 30.652L73.2914 30.6533Z" fill="#1C2024"/>
<path d="M100.325 25.3652C100.315 25.3652 100.305 25.3652 100.295 25.3639C100.118 25.3472 99.9886 25.1903 100.005 25.0129C100.008 24.9794 100.311 21.6687 99.3046 18.2654C97.9726 13.7654 95.09 11.2377 90.7353 10.7543C84.2321 10.0317 79.1356 11.0847 75.9971 13.8014C73.6726 15.8123 72.4306 18.709 72.3058 22.4106C72.2994 22.588 72.1528 22.7269 71.9741 22.7204C71.7967 22.714 71.6578 22.5662 71.6643 22.3887C71.7954 18.5007 73.112 15.4484 75.5767 13.3142C78.854 10.4779 84.1216 9.37216 90.8073 10.114C95.3831 10.6232 98.537 13.3836 99.9269 18.0996C100.964 21.6199 100.66 24.9344 100.646 25.0733C100.63 25.2392 100.49 25.3639 100.325 25.3639V25.3652Z" fill="#1C2024"/>
<path d="M86.5449 48.6661C83.8655 48.6661 82.1028 46.7479 82.0783 46.7221C81.9601 46.5897 81.9703 46.3866 82.1028 46.2683C82.2352 46.15 82.4371 46.1603 82.5566 46.2927C82.6736 46.4213 85.4559 49.426 89.3491 47.2351C89.5033 47.1477 89.7001 47.203 89.7862 47.3573C89.8736 47.5116 89.8183 47.7083 89.6641 47.7944C88.5352 48.4296 87.4835 48.6649 86.5449 48.6649V48.6661Z" fill="#1C2024"/>
<path d="M86.9385 45.4326C86.7932 45.4326 86.6621 45.3336 86.6261 45.187C86.5849 45.0147 86.6904 44.8411 86.8627 44.7987C86.8819 44.7936 88.4428 44.3976 89.0458 43.2224C89.3762 42.5783 89.3621 41.8004 89.0047 40.9094C88.7797 40.3489 86.8537 35.3654 88.6061 33.1167C89.3209 32.1987 90.5565 31.6729 91.9991 31.6729H92.0132C93.6859 31.6767 95.2211 32.3749 96.1211 33.5423C96.2291 33.6824 96.2034 33.8843 96.0632 33.9936C95.9231 34.1016 95.7212 34.0759 95.6119 33.9357C94.8444 32.9406 93.4648 32.3209 92.0119 32.317H92.0004C90.7751 32.317 89.6977 32.7631 89.1139 33.5127C87.8707 35.1096 88.8362 38.7636 89.6025 40.6716C90.0332 41.7438 90.0384 42.703 89.6167 43.5207C88.8761 44.9594 87.0915 45.4056 87.0157 45.4236C86.9899 45.43 86.9642 45.4326 86.9398 45.4326H86.9385Z" fill="#1C2024"/>
<path d="M77.2977 34.1451C77.2193 34.1451 77.1409 34.1169 77.0792 34.059C76.9493 33.9381 76.9416 33.735 77.0624 33.6051C77.0933 33.5717 80.2459 30.2571 84.1673 32.5817C84.3203 32.6717 84.3705 32.8697 84.2805 33.0227C84.1905 33.1757 83.9925 33.2258 83.8395 33.1358C80.3693 31.0787 77.6474 33.9227 77.533 34.0448C77.47 34.113 77.3839 34.1464 77.2977 34.1464V34.1451Z" fill="#1C2024"/>
<path d="M80.944 37.506C81.4815 37.506 81.9173 36.9626 81.9173 36.2923C81.9173 35.622 81.4815 35.0786 80.944 35.0786C80.4065 35.0786 79.9707 35.622 79.9707 36.2923C79.9707 36.9626 80.4065 37.506 80.944 37.506Z" fill="#1C2024"/>
<path d="M91.9459 37.506C92.4835 37.506 92.9192 36.9626 92.9192 36.2923C92.9192 35.622 92.4835 35.0786 91.9459 35.0786C91.4084 35.0786 90.9727 35.622 90.9727 36.2923C90.9727 36.9626 91.4084 37.506 91.9459 37.506Z" fill="#1C2024"/>
<path d="M71.9857 43.5231C71.9562 43.5231 71.9266 43.5192 71.8957 43.5102C71.7813 43.4768 69.0929 42.6732 67.8187 40.3101C67.0692 38.9189 66.974 37.2873 67.5384 35.4616C67.9692 34.0692 68.7033 33.7761 69.2472 33.7761H69.2523C69.9376 33.7786 70.601 34.2492 71.0793 34.7031C71.0767 34.6696 71.0754 34.6362 71.0729 34.6028C70.9623 32.6768 70.979 30.6531 71.0652 30.2609C71.1037 30.0873 71.276 29.9793 71.4483 30.0166C71.6219 30.0552 71.7312 30.2275 71.6926 30.3998C71.6322 30.6736 71.6 32.5791 71.7144 34.5732C71.7337 34.9023 71.7543 35.2032 71.7774 35.4809C72.3033 36.1598 72.7314 36.9441 72.9294 37.6023C73.2033 38.5113 72.9552 38.9061 72.6993 39.0758C72.4846 39.2185 72.2442 39.2211 72.0423 39.0822C71.861 38.9575 71.4097 38.6489 71.1539 35.7278C71.1114 35.6763 71.069 35.6262 71.0266 35.5761C70.3902 34.8419 69.7422 34.4202 69.2497 34.4176H69.2472C68.7727 34.4176 68.405 34.8316 68.1517 35.6506C67.6413 37.3028 67.7184 38.7659 68.3819 39.9989C69.5249 42.1242 72.05 42.8841 72.0744 42.8905C72.2442 42.9406 72.3432 43.1181 72.293 43.2891C72.2519 43.4292 72.1233 43.5205 71.9844 43.5205L71.9857 43.5231ZM71.9343 36.8991C72.1014 38.0433 72.2879 38.4046 72.3676 38.5113C72.4203 38.4201 72.4357 38.1886 72.3162 37.7888C72.2339 37.5149 72.1014 37.2102 71.9356 36.8991H71.9343Z" fill="#1C2024"/>
<path d="M85.8923 57.9478C85.6917 57.9478 85.4898 57.9426 85.2841 57.9336C84.973 57.9092 77.8656 57.2856 74.3311 51.4266C74.2398 51.2749 74.2887 51.0769 74.4404 50.9856C74.5921 50.8944 74.7901 50.9432 74.8814 51.0949C78.2423 56.6659 85.2533 57.2869 85.324 57.2921C88.3968 57.4322 90.9824 56.4525 92.9997 54.3799C98.8767 48.3422 98.3148 34.8204 98.2236 33.2055C97.7594 32.8982 96.2757 31.8696 95.0877 30.5595C94.9077 30.7266 94.684 30.8565 94.4178 30.9452C93.3636 31.2975 91.7063 30.1044 90.814 29.3625C90.7934 29.3458 90.7728 29.3291 90.7536 29.3111C90.5568 29.7418 90.1596 30.1686 89.3727 30.3422C88.0188 30.6405 86.3693 29.8562 84.4716 28.0138C83.0971 26.6792 82.1123 25.2868 82.0711 25.2276C81.9696 25.0824 82.0043 24.8818 82.1483 24.7802C82.2936 24.6786 82.4941 24.7134 82.5957 24.8574C82.606 24.8715 83.5921 26.2652 84.9254 27.5586C86.1147 28.7132 87.8273 30.0246 89.2351 29.7148C89.779 29.5952 90.1081 29.3136 90.238 28.8572C89.1824 27.8878 88.2966 26.8129 87.943 26.0492C87.5663 25.2354 87.8658 24.8972 88.078 24.7674C88.2618 24.6555 88.6527 24.5269 89.2094 24.9165C90.1351 25.5645 91.0493 27.2989 90.931 28.6219C92.3208 29.8356 93.6721 30.5158 94.216 30.3345C94.4024 30.2728 94.5541 30.1841 94.6698 30.0671C93.964 29.1838 93.4459 28.2054 93.4664 27.2488C93.4806 26.5944 93.7956 26.4671 93.982 26.4504C94.6493 26.3912 95.3487 27.6744 95.5403 28.5859C95.6573 29.1414 95.6277 29.6248 95.4644 30.0156C95.7241 30.3088 96.0198 30.6096 96.3503 30.9156C97.51 31.9879 98.6954 32.7452 98.707 32.7529C98.7931 32.8069 98.8484 32.8995 98.8548 33.0011C98.8574 33.0384 99.1236 36.8351 98.6003 41.3865C97.7196 49.0365 95.3191 52.9181 93.46 54.8286C91.444 56.8999 88.8996 57.9478 85.891 57.9478H85.8923ZM94.1157 27.1575C94.1118 27.1871 94.1106 27.2218 94.1093 27.2642C94.0964 27.8904 94.387 28.6104 94.9604 29.3934C94.9668 29.3278 94.9694 29.2584 94.9681 29.1864C94.9527 28.3069 94.4037 27.4108 94.1157 27.1575ZM88.4946 25.2971C88.4637 25.2971 88.4354 25.3035 88.411 25.3176C88.3711 25.3896 88.4238 25.8949 89.3958 27.0559C89.6787 27.3941 89.9731 27.7116 90.2714 28.0086C90.1313 27.0251 89.4768 25.8898 88.8404 25.4436C88.7697 25.3935 88.6154 25.2971 88.4946 25.2971Z" fill="#1C2024"/>
<path d="M73.7147 37.2205C73.6029 37.2205 73.4936 37.1614 73.4344 37.0573C73.347 36.903 73.401 36.7063 73.5553 36.6188C74.5337 36.0647 74.9181 34.5308 75.0699 33.3415C75.2396 32.0005 75.1547 30.783 75.1534 30.7714C75.1406 30.594 75.2743 30.441 75.4504 30.4281C75.6266 30.4153 75.7809 30.5477 75.7937 30.7251C75.8091 30.936 76.1434 35.8911 73.8716 37.1794C73.8214 37.2077 73.7674 37.2218 73.7134 37.2218L73.7147 37.2205Z" fill="#1C2024"/>
<path d="M69.0566 59.6422C69.0194 59.6422 68.9821 59.6358 68.9448 59.6216C68.7777 59.5599 68.6928 59.3748 68.7545 59.2089C71.3401 52.2108 71.6602 43.2802 71.6628 43.1902C71.6679 43.0128 71.8197 42.8739 71.9945 42.879C72.1719 42.8842 72.3108 43.0333 72.3057 43.2108C72.3031 43.3008 71.9804 52.3329 69.3575 59.4313C69.3099 59.5612 69.1865 59.6409 69.0554 59.6409L69.0566 59.6422Z" fill="#1C2024"/>
<path d="M145.518 74.315C145.034 74.315 144.75 74.2044 144.709 74.1864C144.546 74.1183 144.468 73.9293 144.537 73.766C144.606 73.6027 144.794 73.5255 144.957 73.5937C144.988 73.6053 148.396 74.8267 152.954 66.5158C153.04 66.3603 153.234 66.3037 153.39 66.3885C153.546 66.4734 153.602 66.6688 153.517 66.8244C149.907 73.4085 146.897 74.3137 145.516 74.3137L145.518 74.315Z" fill="#1C2024"/>
<path d="M63.059 146.533C61.9032 146.533 59.9772 146.249 56.7114 145.286C53.87 144.448 51.17 143.433 50.4654 143.163C49.748 143.745 46.6752 146.072 43.4827 146.073C42.5647 146.073 41.6377 145.88 40.7544 145.399C37.0259 143.369 28.5029 137.961 21.5047 132.092C17.348 128.607 14.2186 125.385 12.2039 122.517C9.73273 119 8.9343 115.99 9.83045 113.57C11.3836 109.377 15.0247 103.675 20.6549 96.6231C24.8399 91.38 28.6212 87.3107 28.6584 87.2696C28.7793 87.1397 28.9824 87.132 29.1123 87.2529C29.2422 87.3737 29.2499 87.5769 29.129 87.7067C29.0917 87.7466 25.3246 91.8017 21.1537 97.0268C17.3133 101.838 12.3363 108.652 10.4322 113.793C8.52287 118.948 15.6239 126.321 21.9174 131.598C28.8809 137.437 37.355 142.815 41.0617 144.834C44.9767 146.965 50.1453 142.595 50.1967 142.551C50.2867 142.474 50.4127 142.454 50.5233 142.496C55.2149 144.328 63.1272 146.785 64.3846 145.574C64.445 145.516 64.6276 145.34 64.4437 144.812C64.094 143.806 62.8854 142.625 60.9414 141.387C60.5146 141.322 60.0903 141.252 59.6776 141.177C56.2306 140.561 51.8026 139.369 50.6634 138.041C50.5554 137.915 50.225 137.529 50.4089 137.16C50.585 136.808 51.0633 136.798 51.4079 136.818C52.8813 136.914 55.9812 138.009 58.7789 139.425C59.4616 139.77 60.314 140.231 61.1703 140.769C64.8809 141.325 67.82 141.309 68.6879 140.699C68.8897 140.557 68.9823 140.39 68.7792 140.033C68.2353 139.076 66.4134 137.83 63.7109 136.532C62.5293 136.366 61.3272 136.152 60.2176 135.921C56.9956 135.251 52.9469 134.113 52.142 133.108C51.9337 132.848 51.9582 132.645 52.0147 132.519C52.1472 132.226 52.52 132.209 52.6422 132.203C52.6704 132.201 52.7013 132.2 52.7322 132.2C54.023 132.2 57.6809 133.285 61.1819 134.712C61.9623 135.031 62.9176 135.44 63.9012 135.908C66.5227 136.268 68.6197 136.317 69.6213 136.008C69.8772 135.93 70.187 135.79 70.2037 135.574C70.241 135.096 69.2253 134.004 66.3299 132.424C63.1053 132.07 59.1247 131.102 56.876 130.247C54.5579 129.365 54.2442 128.761 54.2107 128.384C54.1889 128.145 54.293 127.934 54.4974 127.807C55.2907 127.312 57.9753 128.135 60.089 128.913C62.3004 129.726 64.6507 130.786 66.5343 131.805C68.5979 132.025 70.2307 131.982 70.7039 131.538C70.7772 131.469 70.817 131.391 70.7694 131.236C69.9157 128.466 57.8866 123.878 54.0526 124.857C51.2922 125.563 46.5363 131.829 46.4887 131.892C46.4283 131.971 46.3332 132.019 46.2329 132.019C46.1326 132.019 46.0387 131.973 45.977 131.893L31.9923 113.586C30.3016 113.902 21.8583 115.324 21.029 112.34C20.9454 112.036 21.011 111.757 21.2154 111.554C21.5934 111.176 22.6374 110.785 27.3046 111.737C29.4299 112.17 31.469 112.718 32.0502 112.877L47.5392 99.9814C48.2682 99.3746 48.4057 98.3126 47.8529 97.5643C42.1443 89.8256 32.675 86.0186 28.868 84.7418C28.4296 84.5953 28.1069 84.2391 28.004 83.7917C27.9012 83.3469 28.0362 82.8891 28.3627 82.5677C31.2839 79.7019 38.714 72.4016 44.5897 66.5259C48.4906 62.625 54.9436 60.7851 59.6699 59.9289C64.7703 59.0044 69.017 58.9941 69.0582 58.9941C69.1816 58.9941 69.2947 59.0649 69.3474 59.1767C69.4002 59.286 74.651 70.1079 80.9639 70.5013C83.4839 70.6581 85.5796 70.0089 87.1944 68.5701C90.3509 65.7596 90.6504 60.8469 90.653 60.798C90.662 60.6206 90.8124 60.483 90.9912 60.4946C91.1686 60.5036 91.3049 60.6553 91.2946 60.8327C91.283 61.0449 90.9757 66.0643 87.6213 69.051C85.8727 70.6067 83.6189 71.3113 80.924 71.1429C78.0993 70.9667 75.1897 68.9366 72.2789 65.1103C70.4506 62.7073 69.1983 60.312 68.8602 59.6396C67.9692 59.6537 64.1969 59.7617 59.774 60.564C55.1416 61.4049 48.8262 63.1997 45.0449 66.981C39.1679 72.858 31.7364 80.1609 28.814 83.0267C28.6456 83.1926 28.5787 83.4188 28.6314 83.6477C28.6842 83.8766 28.8487 84.0579 29.0737 84.1324C32.9386 85.4284 42.5544 89.2959 48.371 97.1824C49.1257 98.2046 48.9406 99.651 47.9506 100.475L32.5683 113.281L46.2316 131.168C47.2872 129.816 51.2716 124.902 53.8906 124.233C56.1843 123.646 60.6573 124.842 63.7906 126.043C67.1064 127.314 70.8414 129.297 71.3802 131.043C71.4933 131.411 71.4084 131.751 71.1397 132.003C70.6383 132.474 69.4014 132.615 67.8252 132.542C69.917 133.814 70.9032 134.82 70.8402 135.621C70.8157 135.94 70.6152 136.372 69.8064 136.62C68.8743 136.907 67.3096 136.906 65.5482 136.744C67.2414 137.663 68.7663 138.708 69.3346 139.71C69.6727 140.307 69.5712 140.857 69.0543 141.219C68.018 141.947 65.237 141.916 62.3609 141.572C63.5977 142.479 64.6764 143.526 65.0467 144.593C65.3103 145.352 65.0724 145.793 64.8269 146.031C64.6584 146.193 64.3113 146.527 63.0577 146.527L63.059 146.533ZM51.0312 137.464C51.0543 137.501 51.0903 137.554 51.1494 137.623C51.944 138.55 55.2984 139.705 59.3819 140.47C57.9239 139.674 56.2756 138.927 54.68 138.345C52.5663 137.573 51.386 137.4 51.0312 137.464ZM52.7746 132.84C53.5936 133.527 56.6729 134.531 60.3462 135.295C60.7023 135.369 61.0559 135.439 61.403 135.504C61.0829 135.371 60.7563 135.237 60.4207 135.105C56.7192 133.636 53.7042 132.86 52.7746 132.84ZM54.8523 128.347C54.887 128.452 55.1467 128.906 57.101 129.651C59.1633 130.435 62.0382 131.139 64.625 131.553C62.6797 130.605 60.4837 129.701 58.6156 129.084C55.6816 128.113 54.9757 128.293 54.851 128.348L54.8523 128.347ZM22.8457 111.792C22.0023 111.792 21.7439 111.939 21.6667 112.014C21.6449 112.036 21.6153 112.065 21.6462 112.173C21.9303 113.195 23.837 113.676 27.0153 113.526C28.3383 113.465 29.6459 113.304 30.5986 113.164C29.687 112.931 28.445 112.63 27.1722 112.371C24.9749 111.922 23.6467 111.791 22.847 111.791L22.8457 111.792Z" fill="#1C2024"/>
<path d="M148.071 61.265C147.181 61.265 146.744 60.8664 146.537 60.5475C146.02 59.7491 146.329 58.4454 147.239 57.5801C147.368 57.458 147.571 57.4631 147.693 57.5917C147.815 57.7203 147.81 57.9234 147.681 58.0455C146.999 58.6935 146.727 59.6591 147.076 60.1965C147.444 60.7623 148.445 60.7623 149.825 60.194C152.536 59.078 156.59 55.9511 156.773 53.5905C156.873 52.2868 156.609 51.2878 155.987 50.6205C155.16 49.7334 153.949 49.7244 153.921 49.7244C153.92 49.7244 153.92 49.7244 153.918 49.7244C153.742 49.7244 153.598 49.583 153.597 49.4055C153.596 49.2281 153.737 49.0828 153.913 49.0815C153.978 49.0815 155.421 49.0764 156.451 50.1757C157.205 50.9805 157.529 52.1454 157.413 53.6407C157.292 55.199 155.897 56.756 154.746 57.7884C153.358 59.0343 151.609 60.1554 150.068 60.7893C149.227 61.1351 148.574 61.2637 148.068 61.2637L148.071 61.265Z" fill="#1C2024"/>
<path d="M149.626 63.6162C148.629 63.6162 147.863 63.2961 147.581 62.7265C147.423 62.4089 147.295 61.7481 148.198 60.8879C148.327 60.7658 148.53 60.7709 148.652 60.8995C148.774 61.0281 148.769 61.2312 148.641 61.3534C148.198 61.7738 148.022 62.1698 148.156 62.4398C148.345 62.8217 149.17 63.1058 150.384 62.9078C151.837 62.6712 153.74 61.7828 155.351 60.5884C157.031 59.3425 158.095 57.9771 158.196 56.9357C158.289 55.9829 158.143 55.2707 157.773 54.8759C157.449 54.5288 157.053 54.5314 157.047 54.5301C156.869 54.5339 156.721 54.3951 156.716 54.2177C156.711 54.0402 156.851 53.8924 157.029 53.8872C157.057 53.8872 157.718 53.8744 158.244 54.4362C158.75 54.9775 158.95 55.8389 158.836 56.9974C158.716 58.2355 157.585 59.7334 155.734 61.1052C154.046 62.3562 152.035 63.2909 150.487 63.5429C150.186 63.5918 149.897 63.6162 149.624 63.6162H149.626Z" fill="#1C2024"/>
<path d="M151.356 65.6286C150.631 65.6286 150.029 65.3162 149.762 64.7775C149.48 64.2105 149.654 63.5278 150.215 62.9942C150.344 62.872 150.547 62.8772 150.669 63.0058C150.791 63.1343 150.786 63.3375 150.658 63.4596C150.299 63.8016 150.182 64.177 150.338 64.4908C150.529 64.8765 151.058 65.059 151.688 64.9575C153.948 64.5898 157.351 62.6458 158.192 61.2443C158.711 60.3778 158.876 59.704 158.666 59.2965C158.452 58.8799 157.877 58.8272 157.871 58.8272C157.694 58.813 157.562 58.6588 157.576 58.4826C157.589 58.3065 157.741 58.174 157.918 58.1869C157.955 58.1895 158.852 58.2615 159.235 58.9969C159.56 59.6218 159.394 60.4896 158.744 61.576C157.729 63.268 154.011 65.2326 151.79 65.5939C151.641 65.6183 151.496 65.6299 151.356 65.6299V65.6286Z" fill="#1C2024"/>
<path d="M146.184 58.3952C145.588 58.3952 145.155 58.183 144.927 57.7587C144.311 56.6157 145.013 55.1243 147.011 53.3243C148.428 52.0476 149.977 51.0872 150.043 51.046C150.195 50.9522 150.393 50.9997 150.485 51.1502C150.579 51.3006 150.531 51.4999 150.381 51.5924C150.366 51.6014 148.81 52.567 147.437 53.8064C146.237 54.8877 144.926 56.3984 145.494 57.454C145.758 57.9439 146.817 57.8269 148.191 57.1583C151.209 55.6913 154.737 52.081 153.626 49.5327C153.024 48.1519 152.245 47.3162 151.312 47.05C150.246 46.7453 148.895 47.1516 147.295 48.2547C147.15 48.355 146.95 48.319 146.848 48.1724C146.748 48.0259 146.784 47.8266 146.93 47.725C148.721 46.4907 150.211 46.0664 151.488 46.4316C152.616 46.753 153.534 47.7109 154.215 49.2756C154.827 50.6809 154.398 52.3664 152.97 54.1497C151.839 55.5627 150.116 56.9372 148.472 57.7356C147.568 58.1753 146.791 58.3939 146.184 58.3939V58.3952Z" fill="#1C2024"/>
<path d="M87.0871 116.163C86.9354 116.163 86.8004 116.055 86.7721 115.9C86.7399 115.725 86.8544 115.558 87.0292 115.525C89.6534 115.034 91.8507 113.439 93.5581 110.783C94.9441 108.63 96.0138 105.78 96.7402 102.314C97.8164 97.1751 97.8061 92.1788 97.7829 90.8957L66.9939 91.5437C66.9939 91.5437 66.9888 91.5437 66.9875 91.5437C66.8127 91.5437 66.6699 91.4048 66.6661 91.2287C66.6622 91.0513 66.8037 90.9047 66.9811 90.9008L98.0902 90.2464C98.2625 90.2387 98.4117 90.3801 98.4181 90.555C98.4207 90.6128 98.6302 96.4255 97.3728 102.435C96.6309 105.981 95.5304 108.905 94.1019 111.126C92.2942 113.94 89.9542 115.632 87.1475 116.156C87.1269 116.16 87.1077 116.161 87.0884 116.161L87.0871 116.163Z" fill="#1C2024"/>
<path d="M43.4446 137.596C43.4214 137.596 43.397 137.594 43.3739 137.588C43.2003 137.55 43.0923 137.378 43.1309 137.204C43.1591 137.078 43.8521 134.078 45.9826 131.497C46.0957 131.36 46.2989 131.341 46.4351 131.453C46.5714 131.566 46.5907 131.769 46.4789 131.906C44.4487 134.364 43.7647 137.315 43.7583 137.344C43.7249 137.493 43.5924 137.595 43.4446 137.595V137.596Z" fill="#1C2024"/>
<path d="M136.188 51.132L137.719 53.094C137.719 53.094 142.525 48.3446 145.531 48.2173C149.274 48.0592 148.641 51.2645 148.641 51.2645L150.302 50.313L144.898 42.2246L136.188 51.1308V51.132Z" fill="#88DA09"/>
<path d="M137.938 50.6988C137.847 50.6988 137.756 50.6603 137.693 50.5844C137.578 50.4481 137.596 50.2463 137.731 50.1318C137.802 50.0714 144.916 44.0607 149.334 38.338C149.442 38.1978 149.645 38.1721 149.785 38.2801C149.925 38.3881 149.951 38.59 149.843 38.7314C145.382 44.5081 138.217 50.5638 138.146 50.6243C138.086 50.6744 138.013 50.7001 137.939 50.7001L137.938 50.6988Z" fill="#1C2024"/>
<path d="M120.447 53.6894C120.334 53.6894 120.224 53.629 120.166 53.5223C120.128 53.4541 119.259 51.8419 119.294 49.498C119.326 47.3419 120.166 44.143 123.986 41.1447C124.06 41.0856 124.157 41.0637 124.249 41.083C124.445 41.1241 129.081 42.1707 133.14 50.3993C133.218 50.5587 133.153 50.7516 132.993 50.83C132.834 50.9084 132.641 50.8429 132.563 50.6834C129.044 43.5477 125.042 41.9946 124.256 41.7503C121.444 44.0003 119.991 46.5987 119.937 49.4749C119.896 51.6567 120.721 53.197 120.729 53.2124C120.814 53.368 120.756 53.5634 120.6 53.6483C120.551 53.6753 120.499 53.6881 120.446 53.6881L120.447 53.6894Z" fill="#1C2024"/>
<path d="M126.398 40.0054C126.296 40.0054 126.197 39.9578 126.134 39.8691C126.033 39.7238 126.067 39.5232 126.213 39.4216C126.298 39.3625 134.785 33.4341 144.128 30.3998C144.296 30.3458 144.478 30.4371 144.533 30.6068C144.588 30.7752 144.496 30.9565 144.326 31.0118C135.073 34.0165 126.665 39.8884 126.582 39.9475C126.525 39.9874 126.461 40.0066 126.397 40.0066L126.398 40.0054Z" fill="#1C2024"/>
</svg>
